<?xml version="1.0" encoding="UTF-8"?>
<svg width="240px" height="240px" viewBox="0 0 240 240" version="1.1" xmlns="http://www.w3.org/2000/svg" xmlns:xlink="http://www.w3.org/1999/xlink">
    <defs>
        <polygon id="path-1" points="0 0.167687495 184.526539 0.167687495 184.526539 212.252174 0 212.252174"></polygon>
        <polygon id="path-3" points="0.470475259 0.315365217 85.1477021 0.315365217 85.1477021 79.9398315 0.470475259 79.9398315"></polygon>
    </defs>
    <g id="issuehunt-logo-v.1.0.0" stroke="none" stroke-width="1" fill="none" fill-rule="evenodd">
        <g id="Logo">
            <rect id="Box" x="0" y="0" width="240" height="240"></rect>
            <g id="Issuehunt" transform="translate(27.600000, 5.400000)">
                <path d="M164.844278,223.017443 C141.328478,215.594643 125.338591,193.780878 125.338591,169.117443 C125.338591,144.441287 141.347226,122.618148 164.844278,115.217443 L164.844278,87.0086609 C155.63173,120.756087 128.598704,143.889565 97.8857478,143.889565 C87.2155565,143.889565 76.9678609,141.093461 67.7519652,136.01213 C68.1443304,157.519235 73.7331913,178.621252 84.0518609,197.517052 C106.471583,214.623104 134.47347,224.785096 164.844278,224.797817 L164.844278,223.017443" id="Fill-12" fill="#FFFFFF"></path>
                <path d="M67.7519652,136.01213 C76.9678609,141.093461 87.2155565,143.889565 97.8857478,143.889565 C128.598704,143.889565 155.63173,120.756087 164.844278,87.0086609 L164.844278,46.374087 C172.527539,42.7945913 177.780948,34.3714609 177.780948,24.7417739 L177.772243,23.8867391 C177.772243,23.8867391 149.848026,23.6041826 130.567226,39.2365217 L126.736643,39.2365217 C121.53613,41.6630261 112.263991,45.9040522 106.430739,52.6780435 C105.668774,53.5685652 104.957696,54.4992609 104.324287,55.4741478 C103.242939,57.1420348 101.929252,58.6465478 100.437461,59.9883565 C97.5469478,62.596313 93.9862,64.6083565 90.1274957,66.0472522 C81.532287,70.8493739 72.5922522,70.8025043 66.0003826,67.7586609 C57.329513,65.6555565 51.4426957,60.2448 53.8779043,51.7406522 C54.5869739,49.2579043 56.0064522,46.5093391 58.2762783,43.5029913 C59.7841391,41.4996522 60.8936087,40.1518174 61.7151652,39.2365217 L61.1413478,39.2365217 C39.7192783,23.6041826 8.68292174,23.8867391 8.68292174,23.8867391 L8.66417391,24.7417739 C8.66417391,36.4002435 17.227913,46.2897217 28.7665304,47.9569391 C31.713287,49.2358087 34.5843826,50.6465826 37.371113,52.185913 C33.6972087,64.1443478 31.7260087,76.5513913 31.5063913,89.0521739 C37.8096783,110.158209 51.0911739,126.821678 67.7519652,136.01213" id="Fill-13" fill="#FFFFFF"></path>
                <path d="M80.9176261,197.517052 C70.598287,178.621252 65.0094261,157.519235 64.6170609,136.01213 C47.9569391,126.821678 34.6754435,110.158209 28.371487,89.0521739 C28.3594348,89.8261913 28.3527391,90.6008783 28.3527391,91.3748957 C28.3527391,134.664965 48.9693217,173.139522 80.9176261,197.517052" id="Fill-14" fill="#2CC28C"></path>
                <path d="M58.0057739,39.8614493 L127.431652,39.8614493" id="Stroke-15" stroke="#147853" stroke-linecap="round" stroke-linejoin="round"></path>
                <g id="Group-18" transform="translate(0.000000, 18.078261)">
                    <mask id="mask-2" fill="white">
                        <use xlink:href="#path-1"></use>
                    </mask>
                    <g id="Clip-17"></g>
                    <path d="M48.8628609,51.0911739 C46.1732174,52.3666957 43.885313,54.2662522 42.1672087,56.5796 C39.9322,59.5859478 38.6372609,63.3194435 38.6372609,67.2939826 C38.6372609,72.2467565 40.6466261,76.7321739 43.8879913,79.9735391 C47.1293565,83.2149043 51.6154435,85.2242696 56.5648696,85.2242696 C59.7901652,85.2242696 62.8681565,84.381287 65.5142783,82.8607043 C67.4078087,81.7733304 69.1064957,80.331087 70.5072261,78.5975826 C66.6645913,71.306687 61.918713,64.5608174 56.4108696,58.5173217 C54.0319043,55.9086957 51.5116609,53.4292957 48.8628609,51.0911739 Z M36.7818957,46.1323739 C37.6563478,45.3141652 38.5810174,44.5488522 39.5559043,43.8404522 C38.9131217,43.401887 38.2676609,42.9693478 37.6155043,42.5461826 C37.3208957,43.7373391 37.0423565,44.9318435 36.7818957,46.1323739 Z M156.180774,201.071104 L156.180774,95.2644 C151.606974,102.5332 146.105826,108.90947 139.905652,114.19167 C127.138383,125.068757 111.436409,131.341243 94.7508435,131.341243 C86.3873043,131.341243 78.2567739,129.758391 70.6076609,126.804939 C71.2571391,134.058339 72.523287,141.250139 74.3913739,148.296643 C76.9116174,157.80313 80.5225826,167.019696 85.1680261,175.721365 C105.126426,190.670078 129.601713,199.924139 156.180774,201.071104 Z M159.05187,23.4468348 C159.264791,23.3303304 159.487087,23.2272174 159.716078,23.1361565 C161.810478,22.0923043 163.663165,20.5409217 165.154957,18.6286435 C166.694287,16.6507478 167.850626,14.2811565 168.50613,11.6698522 C159.738174,12.4974348 143.303696,15.3872783 130.908704,25.4341043 C128.548487,27.3524087 125.075452,26.9948609 123.157148,24.6346435 C121.238174,22.2744261 121.596391,18.8013913 123.956609,16.883087 C144.811557,-0.0254434783 174.552304,0.27853913 174.637339,0.27853913 C177.690557,0.27853913 180.166609,2.75526087 180.166609,5.80847826 L180.153887,6.17205217 L180.175983,6.66351304 C180.175983,13.7388087 177.803043,20.3179565 173.837878,25.4120087 C171.969791,27.8070435 169.744157,29.876 167.239313,31.5090696 L167.239313,67.9240435 C167.311626,68.4349217 167.314304,68.9618696 167.239313,69.4914957 L167.239313,201.083826 C168.195452,201.042983 169.136191,200.992765 170.060861,200.933174 C172.897139,200.751722 175.649722,200.481887 178.304548,200.137061 C181.32027,199.745365 184.088252,201.873913 184.479948,204.889635 C184.872313,207.904687 182.743096,210.672 179.728043,211.064365 C176.6688,211.462757 173.6658,211.763391 170.750513,211.948861 C167.662478,212.149061 164.665504,212.252843 161.779009,212.252843 C123.410913,212.252843 88.6698522,196.698174 63.5236609,171.552652 C38.3774696,146.406461 22.8234696,111.66473 22.8234696,73.2966348 C22.8234696,66.3974348 23.3437217,59.4915391 24.3688261,52.6519304 L24.4002957,52.4698087 C25.189713,47.2445217 26.2871304,42.0446783 27.6885304,36.8977304 C26.5127739,36.3172174 25.3249652,35.7594696 24.121087,35.2264957 C17.3002261,34.0668087 11.3598435,30.5623043 7.084,25.6222522 C2.65214783,20.5034261 0,13.8452696 0,6.66351304 C0,6.4854087 0.0127217391,6.30931304 0.0281217391,6.13388696 L0.0187478261,5.80847826 C0.0187478261,5.48842609 0.0441913043,5.17506957 0.100434783,4.87108696 L0.10646087,4.83024348 L0.122530435,4.73315652 L0.131234783,4.6949913 C0.60193913,2.0810087 2.91528696,0.115834783 5.65782609,0.168730435 C6.0214,0.174756522 6.37894783,0.218947826 6.72377391,0.29126087 C12.7645913,0.419817391 40.8535217,1.8305913 61.2444609,16.7103391 C63.699087,18.4974087 64.2414348,21.9423217 62.4550348,24.3962783 C60.6679652,26.8509043 57.2230522,27.3932522 54.7684261,25.6061826 C40.4932957,15.1870783 21.4254174,12.3749043 11.7488609,11.616287 C12.4726609,14.1526 13.7394783,16.4686261 15.4220957,18.4123739 C18.1559304,21.5693739 21.9992348,23.7789391 26.4096609,24.4156957 C27.0584696,24.506087 27.6664348,24.7103043 28.2148087,25.0015652 C31.1019739,26.267713 33.9168261,27.653713 36.656687,29.1515304 C36.8160435,29.2305391 36.9727217,29.3149043 37.1240435,29.4086435 L37.1488174,29.424713 C47.4869043,35.1481565 56.7369478,42.4865913 64.5735391,51.0878261 C71.6675826,58.8681739 77.6233652,67.6984 82.2058696,77.3153652 C88.9865565,63.4506783 98.0544783,51.7714522 108.640304,42.9251565 C122.498296,31.3430174 138.987009,24.5938 156.399722,24.0922957 C156.650809,24.0862696 156.898548,24.0956435 157.142939,24.1204174 C157.795096,23.942313 158.43453,23.7166696 159.05187,23.4468348 Z M129.043965,42.4618174 C137.209983,38.2080696 145.989322,35.6871565 155.051887,35.1796261 C155.415461,35.2834087 155.795104,35.3490261 156.180774,35.3771478 L156.180774,68.2126261 C151.807843,83.688287 143.459704,96.6751739 132.73327,105.815409 C121.962643,114.990461 108.750113,120.282035 94.7508435,120.282035 C81.547687,120.282035 68.996687,115.564278 58.5427652,107.270374 C53.9281217,103.609191 49.7152174,99.2583565 46.0232348,94.304913 C49.2920522,95.5811043 52.8467739,96.2834783 56.5648696,96.2834783 C61.6870435,96.2834783 66.6552174,94.9008261 71.0000261,92.4026783 C72.538687,91.5181826 73.9963304,90.4937478 75.3535391,89.3367391 C75.8771391,90.7160435 76.3726174,92.1114174 76.8332783,93.5215217 L76.8520261,93.5683913 L76.8801478,93.6561043 L76.8955478,93.6936 C77.0026783,93.9922261 77.1312348,94.2767913 77.2845652,94.5432783 L77.3508522,94.653087 L77.3535304,94.6624609 L77.4198174,94.7662435 L77.4258435,94.7782957 L77.7144261,95.1894087 L77.7231304,95.2014609 L77.7392,95.2208783 L77.7425478,95.2269043 L77.8925304,95.4083565 L77.9086,95.4304522 L77.980913,95.5087913 L77.9989913,95.530887 L78.0713043,95.6058783 L78.0900522,95.6279739 L78.1623652,95.7029652 L78.1844609,95.7223826 L78.2594522,95.7973739 L78.2782,95.8161217 L78.3565391,95.8884348 L78.375287,95.9071826 L78.4569739,95.9788261 L78.4757217,95.9948957 L78.5607565,96.0672087 L78.5795043,96.0792609 L78.6638696,96.1515739 L78.6826174,96.1642957 C78.9558,96.3832435 79.2564348,96.568713 79.5758174,96.7314174 L79.5885391,96.7407913 C79.7954348,96.8472522 80.0083565,96.9416609 80.234,97.02 C83.1057652,98.0417565 86.2714696,96.5432696 87.2932261,93.6721739 C88.3966696,90.578113 89.6159478,87.5784609 90.9423565,84.6819217 C93.3179739,87.8442783 96.3055739,90.4622783 99.6788435,92.4026783 C104.022983,94.9008261 108.991157,96.2834783 114.11333,96.2834783 C122.113296,96.2834783 129.363348,93.0354174 134.608052,87.7913826 C139.852087,82.5473478 143.099478,75.2966261 143.099478,67.2939826 C143.099478,60.9217304 140.996374,54.9030087 137.363313,50.0158522 C135.124957,47.0068261 132.306757,44.4303391 129.043965,42.4618174 Z M96.4374783,74.2340261 C97.3152783,74.7013826 98.0765739,75.4097826 98.6128957,76.3344522 C100.220522,79.0964087 102.499722,81.3280696 105.164591,82.8607043 C107.810043,84.381287 110.888035,85.2242696 114.11333,85.2242696 C119.063426,85.2242696 123.548843,83.2149043 126.790209,79.9735391 C130.030904,76.7321739 132.04027,72.2467565 132.04027,67.2939826 C132.04027,63.3194435 130.746,59.5859478 128.510991,56.5796 C126.275983,53.5766 123.081487,51.2605739 119.28907,50.1196348 C118.827739,49.9817043 118.398548,49.7902087 118.006852,49.5518435 C117.235513,50.1477565 116.476896,50.7617478 115.724974,51.3891304 C108.383191,57.5230174 101.850913,65.2283739 96.4374783,74.2340261 Z M65.6267652,157.631722 C64.9404609,155.468357 64.3010261,153.292939 63.7211826,151.1048 C61.1413478,141.378026 59.6147391,131.337896 59.2009478,121.16653 C56.605713,119.583009 54.0948435,117.827409 51.677713,115.909104 C46.1417478,111.517426 41.1079565,106.270713 36.7377043,100.295513 C41.3925217,121.9526 51.533087,141.575548 65.6267652,157.631722 Z" id="Fill-16" fill="#147853" mask="url(#mask-2)"></path>
                </g>
                <path d="M99.8301652,29.2439304 C99.6192522,31.9817826 99.5543043,34.5971043 99.4759652,36.8930435 L100.704617,36.8441652 C114.382496,36.1940174 123.271643,30.6560435 126.3724,28.3855478 C127.657296,33.7989826 127.0654,36.6841391 127.55753,37.4708783 C127.738983,37.7621391 127.009157,38.2850696 125.684087,39.0604261 C121.368739,41.5766522 110.737383,46.7209217 104.635635,54.9646087 C61.764713,58.7583652 55.9368174,49.346287 55.9368174,49.346287 C57.3435739,47.1675217 59.1393478,44.8354261 61.3750261,42.35 C61.3750261,42.35 61.3402087,38.5616 62.1905565,33.5237913 C62.1905565,33.5237913 69.3542348,34.9184957 78.7442174,35.9282 C78.6196783,36.8769739 78.5125478,37.8518609 78.4234957,38.8595565 C78.5152261,37.8518609 78.6290522,36.8776435 78.7589478,35.9308783 C79.1573391,33.0169304 79.7184348,30.373487 80.4087565,27.9751043 C80.3886696,27.9717565 80.3692522,27.9697478 80.3491652,27.9664 C73.1178609,26.8950957 67.1138696,25.4615565 64.4469913,24.7799391 C65.7030957,21.3370348 67.4694087,17.9296174 69.957513,15.1375304 C70.0331739,15.0531652 70.111513,14.9688 70.1898522,14.8844348 C71.456,15.2272522 78.2534261,16.1211217 85.3749217,17.0404348 C93.1827217,5.47570435 104.772896,4.71106087 107.15253,4.80948696 C107.192035,4.81283478 107.228191,4.81417391 107.26167,4.81551304 C107.362104,4.8356 107.4612,4.85903478 107.561635,4.87912174 C108.715965,5.13288696 109.8328,5.45628696 110.899417,5.85266957 C108.8934,7.0665913 107.250957,8.55101739 105.903122,10.2289478 C103.79533,12.8523043 102.41,15.9403391 101.486,19.1796957 L103.84153,19.1033652 C110.986461,18.7484957 116.292765,16.2262435 120.061748,13.4542435 C121.6138,16.1238 122.825713,18.5516435 123.777165,20.7464783 C121.204026,23.1066957 113.842157,28.5803913 100.353765,29.2218348 L99.8301652,29.2439304 Z M52.1517652,57.8872609 C48.1283478,77.2443913 84.4221304,78.1396 99.196087,62.6940696 C65.1815043,65.6066783 54.8688609,60.1149043 52.1517652,57.8872609 Z" id="Fill-19" fill="#FFFFFF"></path>
                <g id="Group-23" transform="translate(48.208696, 0.000000)">
                    <mask id="mask-4" fill="white">
                        <use xlink:href="#path-3"></use>
                    </mask>
                    <g id="Clip-21"></g>
                    <path d="M59.0529739,4.81551304 C46.0620696,2.11113913 28.4096522,8.00197391 21.9811565,14.8844348 C24.3761913,15.5312348 46.5381304,18.1572696 53.2773043,19.1796957 C54.0633739,19.1669739 54.8507826,19.1415304 55.6328348,19.1033652 C62.7777652,18.7484957 68.0840696,16.2262435 71.8530522,13.4542435 C71.7646696,13.3015826 71.676287,13.1489217 71.5852261,12.9969304 C69.5524261,9.548 66.4242174,7.24469565 62.6907217,5.85266957 C60.6847043,7.0665913 59.0422609,8.55101739 57.6944261,10.2289478 C59.1393478,5.58484348 57.5692174,4.7257913 59.0529739,4.81551304 Z M3.94306957,57.8872609 C6.66016522,60.1149043 16.9728087,65.6066783 50.9873913,62.6940696 C52.3747304,61.2424522 53.5752609,59.6462087 54.5314,57.9073478 C55.0924957,56.8849217 55.7312609,55.9046783 56.4269391,54.9646087 C13.5560174,58.7583652 7.72812174,49.346287 7.72812174,49.346287 C5.6846087,52.5119913 4.47068696,55.3569739 3.94306957,57.8872609 Z M16.2382957,24.7799391 C15.1408783,27.7929826 14.4358261,30.8361565 13.9818609,33.5237913 C13.9818609,33.5237913 21.1455391,34.9184957 30.5355217,35.9282 C36.9352261,36.6191913 44.3687391,37.1273913 51.2672696,36.8930435 C51.6797217,36.8809913 52.0894957,36.8622435 52.4959217,36.8441652 C66.1738,36.1940174 75.0629478,30.6560435 78.1637043,28.3855478 C77.6555043,26.2449478 76.8500174,23.7079652 75.5684696,20.7464783 C72.9953304,23.1066957 65.6334609,28.5803913 52.1450696,29.2218348 C51.9696435,29.2305391 51.7975652,29.2379043 51.6214696,29.2439304 C45.0925391,29.5057304 38.187313,28.8616087 32.1404696,27.9664 C24.9091652,26.8950957 18.9051739,25.4615565 16.2382957,24.7799391 Z" id="Fill-20" fill="#2CC28C" mask="url(#mask-4)"></path>
                    <path d="M48.8334,53.1293304 C35.1602087,53.0355913 21.4180522,50.0948609 15.2085043,48.5749478 C11.5031304,53.6435565 10.8389217,58.1102261 12.155287,61.4741217 C13.0893304,63.8624609 15.0518261,65.8309826 17.6095652,67.1286 C20.4431652,68.5641478 23.988513,69.1975565 27.7749043,68.7616696 C34.9372435,67.9374348 42.8561913,63.2852957 48.8334,53.1293304 Z M64.8360087,14.6393739 C61.6475391,17.4950696 60.049287,21.1341565 59.4413217,24.8549304 C58.5695478,30.1994 59.5230087,35.6818 60.8018783,39.6911565 C64.4503391,38.042687 67.9267217,36.6727565 70.7670174,35.5565913 L73.8764783,34.321913 C73.9889652,31.9141565 73.5624522,27.3249565 68.2367304,18.2878348 L68.2461043,18.2811391 L68.2367304,18.2664087 C67.472087,16.9654435 66.4536783,15.8586522 65.2591739,14.9493826 L64.8360087,14.6393739 Z M29.1039913,40.1960087 C30.8910609,25.9081565 36.7812261,17.4261043 43.2505652,12.4137391 C39.7025391,13.2533739 36.3607391,14.5543391 33.5987826,16.1813826 C31.5365217,17.3946348 29.8505565,18.7739391 28.7437652,20.2282348 C23.9068261,26.575713 21.2051304,33.7320261 19.8352,38.3399739 C22.2958522,38.9077652 25.487,39.5786696 29.1039913,40.1960087 Z M49.084487,11.4796957 C41.507687,15.5359217 33.536513,23.8204522 31.4608609,40.5850261 C37.1602,41.4681826 43.6958261,42.1518087 50.0781217,42.098913 C48.5073217,36.7223043 47.4607913,29.7983304 48.5575391,23.0872783 C49.2257652,19.0056087 50.6325217,14.9808522 53.0965217,11.3571652 C52.1778783,11.3323913 51.2471826,11.3444435 50.3097913,11.3946609 L49.084487,11.4796957 Z M8.06491304,39.8069913 C9.06457391,35.4434348 12.3179913,23.5854348 19.9791565,13.5325826 C21.9570522,10.9373478 24.7404348,8.61127826 28.0259913,6.67690435 C34.0319913,3.13825217 41.9750435,0.78406087 49.7460174,0.379643478 C55.460087,0.0783391304 61.1775043,0.821556522 66.1496957,2.88113913 C66.4563565,2.98425217 66.754313,3.1128087 67.0428957,3.27015652 C68.7951478,4.06292174 70.4409391,5.03111304 71.9548261,6.18477391 C74.2273304,7.91827826 76.1958522,10.0722696 77.7318348,12.6768783 L77.7412087,12.6708522 C85.4994609,25.8331652 85.1137913,32.7792348 84.8004348,36.092913 C85.7753217,38.7443913 84.6752261,40.9546261 81.7820348,42.7631217 C81.6159826,42.8662348 81.4465826,42.9606435 81.2738348,43.0416609 C79.7880696,43.8665652 77.5718087,44.7443652 74.7850783,45.8384348 C71.1520174,47.2646087 66.4342609,49.1233217 62.062,51.2706174 C54.1095739,70.0532609 40.9465913,78.3632348 29.029,79.7331652 C23.0511217,80.4228174 17.3363826,79.3568696 12.6440696,76.9772348 C7.68192174,74.463687 3.82321739,70.4737478 1.87344348,65.4921826 C-0.975556522,58.2200348 0.240373913,49.0978783 8.06491304,39.8069913 Z" id="Fill-22" fill="#147853" mask="url(#mask-4)"></path>
                </g>
                <path d="M90.1971304,47.3322348 C90.1971304,47.3322348 102.900791,48.6492696 125.684087,39.0604261" id="Stroke-24" stroke="#147853" stroke-linecap="round" stroke-linejoin="round"></path>
                <path d="M97.4210696,61.3569478 C114.624209,54.7162 133.955226,63.2792696 140.595974,80.4824087 C147.237391,97.6848783 138.674322,117.016565 121.471183,123.657313 C104.268043,130.298061 84.9370261,121.734991 78.2962783,104.531852 C71.6548609,87.3293826 80.2179304,67.9976957 97.4210696,61.3569478" id="Fill-25" fill="#FFFFFF"></path>
                <polyline id="Fill-26" fill="#2CC28C" points="111.293791 123.499296 115.212087 133.645217 129.372722 128.178887 132.00813 127.162487 128.090504 117.015896 111.293791 123.499296"></polyline>
                <path d="M119.050704,70.8306261 C113.502017,68.3733217 107.013261,68.0318435 100.91687,70.382687 L100.907496,70.3853652 C94.807087,72.7395565 90.2279304,77.3542 87.7733043,82.8988696 C85.3407739,88.3879652 84.9805478,94.8010609 87.2436783,100.841878 C87.3059478,100.973113 87.359513,101.108365 87.399687,101.248974 C89.7793217,107.2456 94.3524522,111.753113 99.8382,114.179617 C105.327296,116.612148 111.740391,116.973043 117.781209,114.706565 C117.909765,114.646974 118.04167,114.593409 118.17893,114.552565 C124.182252,112.176278 128.692443,107.603148 131.122296,102.111374 C133.570226,96.5821043 133.915052,90.1120957 131.59233,84.0337826 L131.564209,83.9587913 C129.210017,77.8617304 124.596043,73.2852522 119.050704,70.8306261 Z M98.9918696,65.2169913 C106.499704,62.3418783 114.46753,62.7623652 121.276339,65.7774174 C128.109922,68.8058609 133.799217,74.4449391 136.70513,81.9715217 L136.711157,81.9869217 C139.613722,89.5128348 139.19993,97.5094522 136.175504,104.337009 C134.494896,108.126748 132.015496,111.565635 128.85247,114.371113 C129.65193,114.599435 130.338235,115.189322 130.660965,116.02293 L134.548461,126.097878 L134.576583,126.169522 C135.124957,127.586322 134.416557,129.185243 132.999757,129.733617 L116.276026,136.188226 L116.204383,136.216348 C114.787583,136.764722 113.188661,136.056322 112.640287,134.639522 L108.753461,124.564574 L108.725339,124.492261 C108.351722,123.530096 108.558617,122.480217 109.176626,121.737 C105.157896,121.702183 101.220852,120.831748 97.6125652,119.232826 C90.7763043,116.204383 85.0870087,110.562626 82.1810957,103.036043 L82.1496261,102.951009 C79.2812087,95.4438435 79.7043739,87.4786957 82.7200957,80.6739043 C85.7485391,73.8369739 91.3902957,68.1503565 98.9195565,65.245113 L98.9918696,65.2169913 Z M116.790252,130.081791 L128.442026,125.583652 L126.511,120.580661 L114.859896,125.0788 L116.790252,130.081791 Z" id="Fill-27" fill="#147853"></path>
                <path d="M107.678809,80.1469565 C114.271348,80.4583043 119.360713,86.0518522 119.049365,92.6443913 C118.738687,99.2369304 113.145139,104.326296 106.55193,104.014948 C99.9600609,103.70427 94.8706957,98.1100522 95.1813739,91.517513 C95.4927217,84.9256435 101.08627,79.8362783 107.678809,80.1469565" id="Fill-28" fill="#2CC28C"></path>
                <path d="M107.393574,86.1844261 C110.651009,86.3377565 113.165896,89.1017217 113.011896,92.3591565 C112.858565,95.6165913 110.0946,98.1314783 106.837165,97.9774783 C103.57973,97.8241478 101.065513,95.0601826 101.218843,91.8027478 C101.372843,88.545313 104.136809,86.0304261 107.393574,86.1844261" id="Fill-29" fill="#147853"></path>
                <path d="M110.48027,86.3303913 C112.032322,86.4033739 113.231513,87.7204087 113.157861,89.2731304 C113.084878,90.8258522 111.767174,92.0243739 110.215122,91.9507217 C108.6624,91.8777391 107.463878,90.5600348 107.53753,89.0079826 C107.610513,87.4552609 108.927548,86.2567391 110.48027,86.3303913" id="Fill-30" fill="#FFFFFF"></path>
                <polyline id="Fill-31" fill="#FFFFFF" points="117.844817 132.628817 134.281974 175.207809 145.809878 170.758548 129.372722 128.178887 117.844817 132.628817"></polyline>
                <path d="M127.006478,133.524026 L123.191296,134.99707 L136.648887,169.863339 L140.466748,168.393643 L127.006478,133.524026 Z M116.357713,128.7748 L127.884278,124.322861 C130.012157,123.501974 132.407191,124.561896 133.228748,126.690443 L149.666574,169.270774 C150.48813,171.399322 149.428209,173.794357 147.299661,174.615913 L135.771087,179.063165 C133.642539,179.884722 131.247504,178.82547 130.425948,176.696922 L113.99147,134.1186 C113.169913,131.990722 114.229835,129.595687 116.357713,128.7748 Z" id="Fill-32" fill="#147853"></path>
                <path d="M92.6444806,99.693931 L92.7250962,99.9012284 L92.6444806,99.693931 Z M103.507998,75.7078284 L103.293023,75.7884441 L103.30262,75.7884441 L103.507998,75.7078284 Z M116.991122,75.4854435 C112.655687,73.5671391 107.58373,73.2946261 102.813078,75.1091478 L102.641,75.1754348 C97.8978,77.0341478 94.3404,80.639087 92.4247739,84.9618 C90.5064696,89.2965652 90.2306087,94.3658435 92.0458,99.1364957 L92.1114174,99.3092435 C93.9734783,104.0578 97.5784174,107.612522 101.90113,109.527478 C106.257991,111.455826 111.35807,111.728339 116.150817,109.875652 C120.944235,108.022965 124.53913,104.402626 126.467478,100.049113 C128.395157,95.6915826 128.664322,90.5941826 126.81833,85.8021043 C124.965643,81.008687 121.345304,77.4131217 116.991122,75.4854435 Z M101.948,72.892887 C107.339339,70.8373217 113.060104,71.1413043 117.950609,73.304 C122.862539,75.4794174 126.950235,79.5356435 129.03727,84.9423826 C131.122296,90.3531391 130.821661,96.0993478 128.648922,101.00793 C126.473504,105.919861 122.417278,110.007557 117.00987,112.095261 C111.599113,114.185643 105.850896,113.881661 100.941643,111.709591 C96.029713,109.534174 91.9393391,105.481296 89.854313,100.070539 L89.8295391,100.001574 C87.7733043,94.6102348 88.0806348,88.8921478 90.2433304,84.002313 C92.4187478,79.0903826 96.4749739,75.002687 101.879035,72.9183304 L101.948,72.892887 Z" id="Fill-33" fill="#CCCCCC"></path>
                <path d="M122.203687,169.117443 C122.203687,193.780878 132.664304,211.723887 156.180774,219.149365 L156.180774,117.283052 C132.683052,124.681078 122.203687,144.441287 122.203687,169.117443" id="Fill-34" fill="#2CC28C"></path>
                <path d="M163.371235,217.748635 C166.280496,218.66393 167.894817,221.770043 166.978852,224.678635 C166.064226,227.587896 162.957443,229.202217 160.048183,228.286922 C147.155704,224.218643 136.310087,216.187209 128.689765,205.792878 C121.069443,195.3952 116.674417,182.637304 116.674417,169.117443 C116.674417,155.591557 121.07547,142.830313 128.701817,132.426609 C136.322809,122.034957 147.187174,114.004191 160.108443,109.935243 C163.017035,109.029322 166.113774,110.653017 167.019696,113.562278 C167.926287,116.471539 166.302591,119.568278 163.39333,120.47353 C152.78273,123.816 143.858096,130.410548 137.59833,138.946165 C131.341243,147.478435 127.733626,157.97387 127.733626,169.117443 C127.733626,180.258339 131.338565,190.749087 137.585609,199.272652 C143.836,207.801574 152.753939,214.397461 163.371235,217.748635" id="Fill-35" fill="#147853"></path>
                <path d="M51.1320174,91.0742609 C50.270287,92.3250087 48.5521826,92.6383652 47.3014348,91.7766348 C46.050687,90.9142348 45.7373304,89.1968 46.5997304,87.9460522 C47.5431478,86.5788 48.7282783,85.4880783 50.0479913,84.735487 L50.0446435,84.7328087 C51.4266261,83.9427217 52.9599304,83.5168783 54.5334087,83.5168783 C56.1638,83.5168783 57.7433043,83.9741913 59.1627826,84.8144957 L59.3449043,84.9330087 C60.6210957,85.7297913 61.764713,86.8546609 62.6612609,88.2406609 C63.489513,89.5161826 63.1286174,91.224913 61.8530957,92.0524957 C60.5769043,92.8794087 58.8688435,92.5191826 58.0412609,91.2436609 C57.596,90.556687 57.0536522,90.0056348 56.4704609,89.6293391 L56.3546261,89.5664 C55.7875043,89.2309478 55.1634696,89.0461478 54.5334087,89.0461478 C53.9254435,89.0461478 53.3235043,89.2155478 52.7845043,89.5222087 L52.7811565,89.5195304 L52.7744609,89.5222087 C52.1664957,89.8670348 51.5993739,90.3966609 51.1320174,91.0742609" id="Fill-36" fill="#147853"></path>
            </g>
        </g>
    </g>
</svg>