<?xml version="1.0" encoding="UTF-8"?>
<svg width="64px" height="101px" viewBox="0 0 64 101" version="1.1" xmlns="http://www.w3.org/2000/svg" xmlns:xlink="http://www.w3.org/1999/xlink">
    <defs>
        <linearGradient x1="77.8233159%" y1="60.6217007%" x2="7.71274654%" y2="60.6217007%" id="linearGradient-1">
            <stop stop-color="#FFFFFF" offset="0%"></stop>
            <stop stop-color="#E9E9E9" offset="100%"></stop>
        </linearGradient>
        <linearGradient x1="61.0891845%" y1="23.7460678%" x2="5.5802239%" y2="250.3345%" id="linearGradient-2">
            <stop stop-color="#FFFFFF" offset="0%"></stop>
            <stop stop-color="#E6E6E6" offset="100%"></stop>
        </linearGradient>
        <linearGradient x1="105.138449%" y1="-138.267491%" x2="85.0421984%" y2="100%" id="linearGradient-3">
            <stop stop-color="#7C818A" offset="0%"></stop>
            <stop stop-color="#464A52" offset="100%"></stop>
        </linearGradient>
    </defs>
    <g id="issuehunt-ribbon-v.1.0.0" stroke="none" stroke-width="1" fill="none" fill-rule="evenodd">
        <g id="Ribbon">
            <g id="Mask-16" transform="translate(32.000000, 68.169670) scale(-1, 1) rotate(-180.000000) translate(-32.000000, -68.169670) translate(0.000000, 36.169670)">
                <g id="Group" fill="#000000">
                    <polygon id="Path" points="0 36.623 63.17 0 63.17 26.077 0 63.17"></polygon>
                </g>
                <g id="Group" fill="url(#linearGradient-1)">
                    <polygon id="Path" points="0 36.623 63.17 0 63.17 26.077 0 63.17"></polygon>
                </g>
            </g>
            <g id="Mask-15" transform="translate(44.000000, 75.000000)" fill="#147853" fill-rule="nonzero">
                <path d="M3.08,1.708 L2.417,1.964 L4.757,8.024 L5.421,7.769 L3.081,1.707 L3.08,1.708 Z M1.23,0.882 L3.234,0.108 C3.60428597,-0.0339346092 4.01963253,0.150266446 4.163,0.52 L7.021,7.923 C7.16304091,8.29300635 6.97933952,8.70823408 6.61,8.852 L4.606,9.625 C4.23599365,9.76704091 3.82076592,9.58333952 3.677,9.214 L0.82,1.812 C0.677959086,1.44199365 0.861660483,1.02676592 1.231,0.883 L1.23,0.882 Z" id="Shape"></path>
            </g>
            <g id="Mask-14" transform="translate(29.000000, 58.000000)" fill="#2CC28C">
                <path d="M8.97,27.53 L5.928,25.766 C2.68370603,21.6735087 0.921909174,16.6024384 0.93,11.38 L0.933,10.976 C2.029,14.646 4.338,17.542 7.233,19.14 C7.28565884,22.0198787 7.87436872,24.8647446 8.969,27.529 L8.97,27.53 Z" id="Path"></path>
                <path d="M7.087,0.153 L9.815,1.755 L9.69,1.741 L6.812,1.323 C6.87789767,0.927388914 6.9697629,0.536544126 7.087,0.153 Z M5.067,5.559 C5.159,5.119 5.37,4.624 5.725,4.074 C5.725,4.074 6.738,5.71 14.191,5.051 C14.071,5.215 13.959,5.385 13.861,5.563 C13.6926681,5.86590685 13.4855923,6.14559366 13.245,6.395 C7.332,6.901 5.539,5.947 5.065,5.56 L5.067,5.559 Z" id="Shape" fill-rule="nonzero"></path>
            </g>
            <g id="Mask-13" transform="translate(25.000000, 56.000000)" fill="#147853" fill-rule="nonzero">
                <path d="M10.645,1.893 L12.303,2.867 C12.1189044,3.28820853 11.9609384,3.72036075 11.83,4.161 L13.44,4.484 L13.584,3.62 L13.964,3.843 L13.851,4.551 L15.511,4.751 L18.997,6.798 C17.602,9.79 15.415,11.128 13.427,11.358 C12.387,11.478 11.394,11.293 10.577,10.878 C9.714,10.441 9.043,9.748 8.704,8.881 C8.209,7.616 8.42,6.031 9.78,4.415 C9.888,3.945 10.145,2.977 10.642,1.893 L10.645,1.893 Z M16.871,6.733 C14.494,6.716 12.105,6.205 11.025,5.941 C10.381,6.821 10.265,7.599 10.495,8.184 C10.657,8.599 10.999,8.941 11.443,9.167 C11.936,9.417 12.553,9.527 13.21,9.451 C14.455,9.307 15.832,8.499 16.87,6.733 L16.871,6.733 Z" id="Shape"></path>
                <path d="M19.896,7.326 L24.229,9.87 C24.6541464,10.622733 24.8776974,11.4725023 24.878,12.337 C24.878,13.727 24.313,14.989 23.402,15.9 C22.491,16.811 21.23,17.376 19.839,17.376 C18.9577985,17.374623 18.0923581,17.1422299 17.329,16.702 C16.7371751,16.3619205 16.2204352,15.9053932 15.81,15.36 L15.176,16.923 C15.0905287,17.1629338 14.9132121,17.3590669 14.6830848,17.4682227 C14.4529576,17.5773784 14.1888849,17.5906083 13.949,17.505 C13.909,17.491 13.873,17.475 13.837,17.455 L13.835,17.454 C13.779,17.426 13.727,17.394 13.68,17.354 L13.677,17.352 L13.662,17.34 L13.659,17.338 L13.644,17.326 L13.641,17.323 L13.624,17.307 L13.61,17.294 L13.607,17.291 L13.594,17.278 L13.59,17.275 L13.577,17.262 L13.574,17.258 L13.562,17.245 L13.559,17.242 L13.546,17.228 L13.543,17.224 L13.517,17.192 L13.514,17.188 L13.512,17.186 L13.462,17.114 L13.462,17.113 L13.452,17.095 L13.451,17.094 L13.441,17.074 C13.414,17.028 13.391,16.978 13.373,16.926 L13.37,16.92 L13.365,16.905 L13.362,16.897 L13.105,16.169 C12.869,16.369 12.615,16.549 12.348,16.702 C11.5846419,17.1422299 10.7192015,17.374623 9.838,17.376 C9.21089836,17.3765981 8.58921435,17.2599263 8.005,17.032 C8.63015631,17.8743016 9.36192784,18.6319557 10.182,19.286 C11.999,20.728 14.182,21.548 16.477,21.548 C18.911,21.548 21.207,20.628 23.08,19.033 C24.945,17.443 26.396,15.186 27.156,12.496 L27.156,11.586 L29.079,12.716 L29.079,35.597 L29.579,35.571 L31.012,35.431 C31.5363694,35.3636332 32.0165149,35.7329071 32.086,36.257 C32.1533668,36.7813694 31.7840929,37.2615149 31.26,37.331 L29.7,37.485 L28.14,37.538 C27.6687013,37.5380898 27.1975005,37.5244173 26.727,37.497 L21.997,34.757 C23.6809477,35.2390924 25.415993,35.5203786 27.166,35.595 L27.166,17.2 C26.371,18.464 25.414,19.573 24.336,20.49 C22.116,22.38 19.386,23.472 16.486,23.472 C15.0502921,23.4703117 13.6273069,23.2028027 12.289,22.683 C12.402,23.943 12.622,25.193 12.947,26.419 C13.305,27.769 13.79,29.086 14.397,30.349 L7.91,26.589 C5.427,22.793 3.983,18.256 3.983,13.382 C3.98353262,12.1806509 4.07344747,10.9810063 4.252,9.793 L4.258,9.761 C4.395,8.851 4.586,7.949 4.83,7.053 C4.62529912,6.95186575 4.4185909,6.85484625 4.21,6.762 C3.024,6.56 1.992,5.952 1.248,5.092 C0.478,4.192 0.016,3.045 0.016,1.796 C0.016,1.766 0.018,1.734 0.021,1.704 L0.019,1.647 C0.019,1.591 0.023,1.547 0.033,1.484 L0.034,1.477 L0.034,1.46 L0.036,1.454 C0.120595682,0.991852055 0.527244283,0.658831816 0.997,0.667 C1.06,0.668 1.122,0.677 1.182,0.687 C2.232,0.709 7.116,0.955 10.662,3.542 C11.089,3.852 11.182,4.452 10.862,4.878 C10.542,5.304 9.962,5.398 9.526,5.078 C7.044,3.266 3.729,2.778 2.046,2.646 C2.17032503,3.08185568 2.38841446,3.48526992 2.685,3.828 C3.16,4.376 3.828,4.761 4.585,4.871 C4.69486459,4.88620902 4.80117058,4.92074154 4.899,4.973 C5.401,5.193 5.889,5.433 6.367,5.693 C6.395,5.707 6.422,5.721 6.447,5.738 L6.451,5.74 C8.248,6.735 9.856,8.01 11.219,9.507 C12.4593811,10.8679808 13.492169,12.4045266 14.284,14.067 C15.464,11.657 17.039,9.627 18.88,8.087 C19.205514,7.8148778 19.5421345,7.55632388 19.889,7.312 L19.896,7.326 Z M8.496,9.521 C8.028,9.743 7.631,10.073 7.332,10.475 C6.942,10.997 6.718,11.645 6.718,12.338 C6.71613592,13.1652498 7.04393455,13.9591545 7.62889001,14.54411 C8.21384548,15.1290654 9.00775015,15.4568641 9.835,15.455 C10.395,15.455 10.931,15.308 11.391,15.045 C11.7235649,14.8536573 12.0178524,14.602428 12.259,14.304 C11.591,13.036 10.766,11.864 9.809,10.814 C9.395,10.36 8.957,9.929 8.497,9.524 L8.496,9.521 Z M6.396,8.659 C6.54832769,8.51654585 6.70930021,8.38362663 6.878,8.261 L6.541,8.036 C6.491,8.243 6.441,8.451 6.396,8.66 L6.396,8.659 Z M16.766,13.545 C16.919,13.625 17.051,13.749 17.144,13.91 C17.424,14.39 17.82,14.778 18.284,15.045 C18.7578003,15.3157143 19.2943161,15.457429 19.84,15.456 C20.6672498,15.4578641 21.4611545,15.1300654 22.04611,14.54511 C22.6310654,13.9601545 22.9588641,13.1662498 22.957,12.339 C22.957,11.649 22.732,10.999 22.343,10.476 C21.954,9.953 21.399,9.551 20.74,9.353 C20.6617204,9.32972234 20.586769,9.29644799 20.517,9.254 C20.3825916,9.35772471 20.2502327,9.46407855 20.12,9.573 C18.844,10.639 17.708,11.979 16.767,13.545 L16.766,13.545 Z M11.41,28.045 C11.29,27.669 11.18,27.291 11.08,26.91 C10.6289707,25.208855 10.3654028,23.4634719 10.294,21.705 C9.844,21.43 9.406,21.125 8.986,20.791 C8.024,20.028 7.148,19.115 6.389,18.077 C7.18551117,21.7735812 8.91429931,25.204995 11.411,28.045 L11.41,28.045 Z" id="Shape"></path>
            </g>
            <g id="Mask-12" transform="translate(44.000000, 73.000000)" fill="#2CC28C">
                <polygon id="Path" points="0.35 1.966 1.03 3.73 1.488 3.553 3.95 2.603 3.27 0.839"></polygon>
            </g>
            <g id="Mask-11" transform="translate(33.000000, 68.000000)" fill="#147853">
                <path d="M0.223,1.45 C0.00601506762,1.29938137 -0.0485053566,1.00175348 0.101,0.784 C0.256491983,0.555602645 0.461169189,0.364935064 0.7,0.226 C0.94,0.088 1.206,0.014 1.48,0.014 C1.763,0.014 2.038,0.094 2.285,0.24 L2.317,0.26 C2.54904475,0.407194338 2.74600084,0.60346774 2.894,0.835 C3.03773379,1.05709472 2.97467268,1.35361615 2.753,1.498 C2.53090528,1.64173379 2.23438385,1.57867268 2.09,1.357 C2.013,1.237 1.918,1.142 1.817,1.077 L1.797,1.067 C1.697,1.009 1.59,0.967 1.48,0.967 C1.37,0.967 1.28,0.997 1.176,1.05 C1.069,1.11 0.97,1.202 0.889,1.32 C0.738381374,1.53698493 0.440753484,1.59150536 0.223,1.442 L0.223,1.45 Z" id="Path"></path>
            </g>
            <g id="Mask-10" transform="translate(38.000000, 63.000000)">
                <path d="M3.937,1.162 C6.927,0.008 10.287,1.496 11.443,4.487 C12.599,7.478 11.109,10.839 8.118,11.993 C5.127,13.147 1.768,11.659 0.612,8.668 C-0.544,5.677 0.946,2.316 3.937,1.162" id="Path" fill="#FFFFFF"></path>
                <polygon id="Path" fill="#2CC28C" points="6.35 11.966 7.03 13.73 7.488 13.553 9.95 12.603 9.27 10.839"></polygon>
                <path d="M7.34,3.62 C6.586,3.287 5.705,3.24 4.875,3.555 L4.845,3.565 C4.02,3.888 3.402,4.515 3.069,5.267 C2.72215521,6.04731793 2.69842533,6.93323334 3.003,7.731 L3.013,7.761 C3.337,8.587 3.963,9.204 4.715,9.537 C5.473,9.872 6.359,9.92 7.192,9.597 C7.99284179,9.28847679 8.63797628,8.67392591 8.985,7.889 C9.32,7.132 9.367,6.245 9.045,5.412 C8.723,4.579 8.095,3.954 7.337,3.619 L7.34,3.62 Z M4.725,3.17 C5.662,2.812 6.657,2.865 7.507,3.24 C8.39285772,3.63116044 9.08633538,4.35918603 9.434,5.263 C9.796,6.203 9.734,7.203 9.366,8.056 C8.97624724,8.94347632 8.24862571,9.63884986 7.34440435,9.98799907 C6.44018299,10.3371483 5.43404886,10.3112341 4.549,9.916 C3.66314228,9.52483956 2.96966462,8.79681397 2.622,7.893 L2.618,7.881 C2.26,6.944 2.314,5.949 2.69,5.099 C3.08116044,4.21314228 3.80918603,3.51966462 4.713,3.172 L4.725,3.168 L4.725,3.17 Z" id="Shape" fill="#CCCCCC" fill-rule="nonzero"></path>
            </g>
            <g id="Mask-9" transform="translate(41.000000, 67.000000)" fill="#2CC28C">
                <path d="M4.697,2.602 C4.643,3.748 3.67,4.632 2.524,4.579 C1.378,4.526 0.494,3.553 0.547,2.407 C0.6,1.261 1.574,0.377 2.72,0.43 C3.86530795,0.485573667 4.74961623,1.45755237 4.697,2.603 L4.697,2.602 Z" id="Path"></path>
            </g>
            <g id="Mask-8" transform="translate(42.000000, 68.000000)" fill="#147853">
                <path d="M1.67,0.48 C2.236,0.507 2.673,0.987 2.647,1.554 C2.621,2.121 2.14,2.557 1.574,2.531 C1.008,2.505 0.57,2.024 0.597,1.457 C0.624,0.89 1.104,0.454 1.67,0.48" id="Path"></path>
            </g>
            <g id="Mask-7" transform="translate(43.000000, 68.000000)" fill="#FFFFFF">
                <path d="M1.207,0.504 C1.47695048,0.516950602 1.68544463,0.746025717 1.673,1.016 C1.65951761,1.2855532 1.43060265,1.49345449 1.161,1.481 C0.891049515,1.4680494 0.682555367,1.23897428 0.695,0.969 C0.708482388,0.699446797 0.937397348,0.491545515 1.207,0.504" id="Path"></path>
            </g>
            <g id="Mask-6" transform="translate(38.000000, 64.000000)" fill="#147853" fill-rule="nonzero">
                <path d="M7.697,1.81 C6.69819516,1.36572532 5.56355088,1.33765609 4.544,1.732 L4.542,1.732 C3.52209414,2.12463402 2.70056113,2.90730344 2.259,3.907 C1.836,4.861 1.773,5.977 2.167,7.027 C2.17807686,7.04982383 2.1871121,7.07358318 2.194,7.098 C2.608,8.14 3.404,8.924 4.356,9.346 C5.34314963,9.78548228 6.46366266,9.81853364 7.475,9.438 C7.49736693,9.42745922 7.52041923,9.41843876 7.544,9.411 C8.588,8.998 9.372,8.203 9.794,7.248 C10.22,6.288 10.28,5.162 9.876,4.105 L9.871,4.092 C9.47790874,3.07228393 8.69488082,2.25111218 7.695,1.81 L7.697,1.81 Z M4.21,0.834 C5.515,0.334 6.91,0.407 8.084,0.932 C9.258,1.457 10.261,2.439 10.766,3.747 L10.767,3.749 C11.272,5.059 11.2,6.449 10.674,7.635 C10.3793923,8.30104007 9.94528592,8.89610341 9.401,9.38 C9.541,9.42 9.659,9.522 9.715,9.667 L10.395,11.431 C10.4901339,11.6778615 10.3675871,11.9551572 10.121,12.051 L7.201,13.178 C6.9541385,13.2731339 6.67684283,13.1505871 6.581,12.904 L5.901,11.14 C5.83842425,10.9779806 5.86825392,10.7947958 5.979,10.661 C5.279,10.655 4.596,10.504 3.979,10.226 C2.789,9.7 1.801,8.719 1.296,7.41 L1.29,7.395 C0.8089872,6.14179923 0.844589622,4.74898933 1.389,3.522 C1.915,2.334 2.896,1.345 4.205,0.839 L4.218,0.834 L4.21,0.834 Z M7.304,12.1 L9.33,11.318 L8.994,10.448 L6.968,11.23 L7.304,12.1 Z" id="Shape"></path>
            </g>
            <g id="Mask-5" transform="translate(46.000000, 73.000000)" fill="#2CC28C">
                <path d="M0.245,9.896 C0.245,5.596 2.067,2.17 6.152,0.884 L6.152,18.584 C2.064,17.294 0.245,14.174 0.245,9.886 L0.245,9.896 Z" id="Path"></path>
            </g>
            <g id="Mask-4" transform="translate(45.000000, 72.000000)" fill="#147853">
                <path d="M9.03,20.556 C8.95346878,20.7990184 8.78347138,21.0016463 8.5574533,21.1192508 C8.33143523,21.2368552 8.06793713,21.2597888 7.825,21.183 C5.585,20.475 3.698,19.079 2.373,17.273 C1.048,15.467 0.283,13.248 0.283,10.897 C0.281267563,6.18578621 3.33910146,2.01917875 7.834,0.608 C8.34016566,0.450359134 8.8782946,0.732854444 9.036,1.239 C9.19364087,1.74516566 8.91114556,2.2832946 8.405,2.441 C6.60646936,3.00639933 5.03549378,4.1313776 3.921,5.652 C1.62898209,8.77208974 1.62817223,13.0190363 3.919,16.14 C5.006,17.622 6.556,18.77 8.402,19.352 C8.6450184,19.4285312 8.84764634,19.5985286 8.96525077,19.8245467 C9.08285519,20.0505648 9.10578881,20.3140629 9.029,20.557 L9.03,20.556 Z" id="Path"></path>
            </g>
            <g id="Mask-3" fill="#000000">
                <polygon id="Path" points="0 36.623 63.17 0 63.17 26.077 0 63.17"></polygon>
            </g>
            <g id="Mask-2" fill="url(#linearGradient-2)">
                <polygon id="Path" points="0 36.623 63.17 0 63.17 26.077 0 63.17"></polygon>
            </g>
            <g id="Mask-1" transform="translate(26.587111, 34.368136) rotate(-30.000012) translate(-26.587111, -34.368136) translate(4.087118, 30.868137)" fill-rule="nonzero">
                <g id="Group" fill="#000000">
                    <path d="M0,6.42599775 L0,0 L1.97999931,0 L1.97999931,6.42599775 L0,6.42599775 Z M7.06499753,3.11399891 L5.4449981,3.11399891 C5.43596005,2.97067105 5.35905399,2.84026512 5.23799817,2.76299903 C5.12562704,2.67347593 4.98565287,2.62575746 4.84199831,2.62799908 C4.58999839,2.62799908 4.3019985,2.68199906 4.3019985,2.98799896 C4.3019985,3.12299891 4.40999846,3.18599889 4.50899842,3.23099887 C4.80599832,3.35699883 5.48099808,3.39299881 6.07499788,3.59099874 C6.66899767,3.78099868 7.19099749,4.13099856 7.19099749,4.89599829 C7.19099749,6.19199783 5.94899792,6.54299771 4.81499832,6.54299771 C3.7169987,6.54299771 2.51099912,6.10299787 2.48499913,4.89599829 L4.18499854,4.89599829 C4.19499853,5.05799823 4.26499851,5.19299818 4.40099846,5.30999814 C4.50099843,5.38999812 4.66099837,5.4449981 4.87799829,5.4449981 C5.11199821,5.4449981 5.48099808,5.34499813 5.48099808,5.08499822 C5.48099808,4.82499831 5.32799814,4.73499834 4.50099843,4.58999839 C3.1409989,4.35599848 2.59299909,3.92399863 2.59299909,3.12299891 C2.59299909,1.94299932 3.86299865,1.63799943 4.79799832,1.63799943 C5.80599797,1.63799943 7.02099754,1.91799933 7.06599753,3.11399891 L7.06499753,3.11399891 Z M12.0049958,3.11399891 L10.3849964,3.11399891 C10.3759583,2.97067105 10.2990523,2.84026512 10.1779964,2.76299903 C10.0656253,2.67347593 9.92565114,2.62575746 9.78199658,2.62799908 C9.52999667,2.62799908 9.24199677,2.68199906 9.24199677,2.98799896 C9.24199677,3.12299891 9.34999673,3.18599889 9.4489967,3.23099887 C9.74599659,3.35699883 10.4209964,3.39299881 11.0149961,3.59099874 C11.6089959,3.78099868 12.1309958,4.13099856 12.1309958,4.89599829 C12.1309958,6.19199783 10.8889962,6.54299771 9.75499659,6.54299771 C8.65699697,6.54299771 7.45099739,6.10299787 7.4249974,4.89599829 L9.12499681,4.89599829 C9.13499681,5.05799823 9.20499678,5.19299818 9.34099673,5.30999814 C9.4409967,5.38999812 9.60099664,5.4449981 9.81799657,5.4449981 C10.0519965,5.4449981 10.4209964,5.34499813 10.4209964,5.08499822 C10.4209964,4.82499831 10.2679964,4.73499834 9.4409967,4.58999839 C8.08099717,4.35599848 7.53299737,3.92399863 7.53299737,3.12299891 C7.53299737,1.94299932 8.80299692,1.63799943 9.73799659,1.63799943 C10.7459962,1.63799943 11.9609958,1.91799933 12.0059958,3.11399891 L12.0049958,3.11399891 Z M17.4849939,1.75399939 L17.4849939,6.42399775 L15.7649945,6.42399775 L15.7649945,5.82999796 L15.7469945,5.82999796 C15.4139946,6.2979978 14.9469948,6.53999771 14.226995,6.53999771 C13.3899953,6.53999771 12.6249956,6.02699789 12.6249956,4.95599827 L12.6249956,1.75499939 L14.406995,1.75499939 L14.406995,4.20299853 C14.406995,4.74299834 14.4699949,5.12099821 14.9919948,5.12099821 C15.2979947,5.12099821 15.7019945,4.96799826 15.7019945,4.22099852 L15.7019945,1.75499939 L17.4839939,1.75499939 L17.4849939,1.75399939 Z M19.7449931,3.56399875 L21.4449925,3.56399875 C21.4449925,3.1319989 21.1209926,2.78099903 20.6619928,2.78099903 C20.131993,2.78099903 19.8249931,3.06099893 19.7439931,3.56399875 L19.7449931,3.56399875 Z M23.1549919,4.49099843 L19.7349931,4.49099843 C19.7799931,5.02099824 20.084993,5.40099811 20.6449928,5.40099811 C20.9329927,5.40099811 21.2479926,5.29299815 21.3919925,5.06799823 L23.0569919,5.06799823 C22.6969921,6.07599788 21.7169924,6.54399771 20.6539928,6.54399771 C19.1599933,6.54399771 18.0339937,5.66199802 18.0339937,4.10399856 C18.0339937,2.74399904 19.0339933,1.63799943 20.4999928,1.63799943 C22.3539922,1.63799943 23.1549919,2.67299907 23.1549919,4.49099843 Z M23.7049917,6.42599775 L23.7049917,0 L25.684991,0 L25.684991,2.23199922 L27.5389904,2.23199922 L27.5389904,0 L29.5189897,0 L29.5189897,6.42599775 L27.5389904,6.42599775 L27.5389904,3.87999864 L25.684991,3.87999864 L25.684991,6.42699775 L23.7049917,6.42699775 L23.7049917,6.42599775 Z M35.1449877,1.75599939 L35.1449877,6.42599775 L33.4249883,6.42599775 L33.4249883,5.83199796 L33.4069883,5.83199796 C33.0739884,6.2999978 32.6069886,6.54199771 31.8869888,6.54199771 C31.0499891,6.54199771 30.2849894,6.02899789 30.2849894,4.95799827 L30.2849894,1.75499939 L32.0669888,1.75499939 L32.0669888,4.20299853 C32.0669888,4.74299834 32.1299888,5.12099821 32.6519886,5.12099821 C32.9579885,5.12099821 33.3619883,4.96799826 33.3619883,4.22099852 L33.3619883,1.75499939 L35.1439877,1.75499939 L35.1449877,1.75599939 Z M35.8919874,6.42599775 L35.8919874,1.75599939 L37.6119868,1.75599939 L37.6119868,2.34999918 L37.6299868,2.34999918 C37.9629867,1.88199934 38.4299866,1.63999943 39.1499863,1.63999943 C39.986986,1.63999943 40.7519857,2.15299925 40.7519857,3.22399887 L40.7519857,6.42799775 L38.9699864,6.42799775 L38.9699864,3.97799861 C38.9699864,3.4379988 38.9069864,3.05999893 38.3849866,3.05999893 C38.0789867,3.05999893 37.6749868,3.21299888 37.6749868,3.95999862 L37.6749868,6.42599775 L35.8929874,6.42599775 L35.8919874,6.42599775 Z M43.6399847,0.332999884 L43.6399847,1.75499939 L44.5939844,1.75499939 L44.5939844,2.852999 L43.6399847,2.852999 L43.6399847,4.48299843 C43.6399847,4.91499828 43.7399847,5.10299822 44.1899845,5.10299822 C44.3254333,5.10297166 44.4607308,5.09395182 44.5949844,5.07599822 L44.5949844,6.42599775 L43.4519848,6.47999773 C42.6959851,6.47999773 41.8589854,6.36299777 41.8589854,5.08499822 L41.8589854,2.852999 L41.0669856,2.852999 L41.0669856,1.75499939 L41.8589854,1.75499939 L41.8589854,0.332999884 L43.6409847,0.332999884 L43.6399847,0.332999884 Z" id="E"></path>
                </g>
                <g id="Group" fill="url(#linearGradient-3)">
                    <path d="M0,6.42599775 L0,0 L1.97999931,0 L1.97999931,6.42599775 L0,6.42599775 Z M7.06499753,3.11399891 L5.4449981,3.11399891 C5.43596005,2.97067105 5.35905399,2.84026512 5.23799817,2.76299903 C5.12562704,2.67347593 4.98565287,2.62575746 4.84199831,2.62799908 C4.58999839,2.62799908 4.3019985,2.68199906 4.3019985,2.98799896 C4.3019985,3.12299891 4.40999846,3.18599889 4.50899842,3.23099887 C4.80599832,3.35699883 5.48099808,3.39299881 6.07499788,3.59099874 C6.66899767,3.78099868 7.19099749,4.13099856 7.19099749,4.89599829 C7.19099749,6.19199783 5.94899792,6.54299771 4.81499832,6.54299771 C3.7169987,6.54299771 2.51099912,6.10299787 2.48499913,4.89599829 L4.18499854,4.89599829 C4.19499853,5.05799823 4.26499851,5.19299818 4.40099846,5.30999814 C4.50099843,5.38999812 4.66099837,5.4449981 4.87799829,5.4449981 C5.11199821,5.4449981 5.48099808,5.34499813 5.48099808,5.08499822 C5.48099808,4.82499831 5.32799814,4.73499834 4.50099843,4.58999839 C3.1409989,4.35599848 2.59299909,3.92399863 2.59299909,3.12299891 C2.59299909,1.94299932 3.86299865,1.63799943 4.79799832,1.63799943 C5.80599797,1.63799943 7.02099754,1.91799933 7.06599753,3.11399891 L7.06499753,3.11399891 Z M12.0049958,3.11399891 L10.3849964,3.11399891 C10.3759583,2.97067105 10.2990523,2.84026512 10.1779964,2.76299903 C10.0656253,2.67347593 9.92565114,2.62575746 9.78199658,2.62799908 C9.52999667,2.62799908 9.24199677,2.68199906 9.24199677,2.98799896 C9.24199677,3.12299891 9.34999673,3.18599889 9.4489967,3.23099887 C9.74599659,3.35699883 10.4209964,3.39299881 11.0149961,3.59099874 C11.6089959,3.78099868 12.1309958,4.13099856 12.1309958,4.89599829 C12.1309958,6.19199783 10.8889962,6.54299771 9.75499659,6.54299771 C8.65699697,6.54299771 7.45099739,6.10299787 7.4249974,4.89599829 L9.12499681,4.89599829 C9.13499681,5.05799823 9.20499678,5.19299818 9.34099673,5.30999814 C9.4409967,5.38999812 9.60099664,5.4449981 9.81799657,5.4449981 C10.0519965,5.4449981 10.4209964,5.34499813 10.4209964,5.08499822 C10.4209964,4.82499831 10.2679964,4.73499834 9.4409967,4.58999839 C8.08099717,4.35599848 7.53299737,3.92399863 7.53299737,3.12299891 C7.53299737,1.94299932 8.80299692,1.63799943 9.73799659,1.63799943 C10.7459962,1.63799943 11.9609958,1.91799933 12.0059958,3.11399891 L12.0049958,3.11399891 Z M17.4849939,1.75399939 L17.4849939,6.42399775 L15.7649945,6.42399775 L15.7649945,5.82999796 L15.7469945,5.82999796 C15.4139946,6.2979978 14.9469948,6.53999771 14.226995,6.53999771 C13.3899953,6.53999771 12.6249956,6.02699789 12.6249956,4.95599827 L12.6249956,1.75499939 L14.406995,1.75499939 L14.406995,4.20299853 C14.406995,4.74299834 14.4699949,5.12099821 14.9919948,5.12099821 C15.2979947,5.12099821 15.7019945,4.96799826 15.7019945,4.22099852 L15.7019945,1.75499939 L17.4839939,1.75499939 L17.4849939,1.75399939 Z M19.7449931,3.56399875 L21.4449925,3.56399875 C21.4449925,3.1319989 21.1209926,2.78099903 20.6619928,2.78099903 C20.131993,2.78099903 19.8249931,3.06099893 19.7439931,3.56399875 L19.7449931,3.56399875 Z M23.1549919,4.49099843 L19.7349931,4.49099843 C19.7799931,5.02099824 20.084993,5.40099811 20.6449928,5.40099811 C20.9329927,5.40099811 21.2479926,5.29299815 21.3919925,5.06799823 L23.0569919,5.06799823 C22.6969921,6.07599788 21.7169924,6.54399771 20.6539928,6.54399771 C19.1599933,6.54399771 18.0339937,5.66199802 18.0339937,4.10399856 C18.0339937,2.74399904 19.0339933,1.63799943 20.4999928,1.63799943 C22.3539922,1.63799943 23.1549919,2.67299907 23.1549919,4.49099843 Z M23.7049917,6.42599775 L23.7049917,0 L25.684991,0 L25.684991,2.23199922 L27.5389904,2.23199922 L27.5389904,0 L29.5189897,0 L29.5189897,6.42599775 L27.5389904,6.42599775 L27.5389904,3.87999864 L25.684991,3.87999864 L25.684991,6.42699775 L23.7049917,6.42699775 L23.7049917,6.42599775 Z M35.1449877,1.75599939 L35.1449877,6.42599775 L33.4249883,6.42599775 L33.4249883,5.83199796 L33.4069883,5.83199796 C33.0739884,6.2999978 32.6069886,6.54199771 31.8869888,6.54199771 C31.0499891,6.54199771 30.2849894,6.02899789 30.2849894,4.95799827 L30.2849894,1.75499939 L32.0669888,1.75499939 L32.0669888,4.20299853 C32.0669888,4.74299834 32.1299888,5.12099821 32.6519886,5.12099821 C32.9579885,5.12099821 33.3619883,4.96799826 33.3619883,4.22099852 L33.3619883,1.75499939 L35.1439877,1.75499939 L35.1449877,1.75599939 Z M35.8919874,6.42599775 L35.8919874,1.75599939 L37.6119868,1.75599939 L37.6119868,2.34999918 L37.6299868,2.34999918 C37.9629867,1.88199934 38.4299866,1.63999943 39.1499863,1.63999943 C39.986986,1.63999943 40.7519857,2.15299925 40.7519857,3.22399887 L40.7519857,6.42799775 L38.9699864,6.42799775 L38.9699864,3.97799861 C38.9699864,3.4379988 38.9069864,3.05999893 38.3849866,3.05999893 C38.0789867,3.05999893 37.6749868,3.21299888 37.6749868,3.95999862 L37.6749868,6.42599775 L35.8929874,6.42599775 L35.8919874,6.42599775 Z M43.6399847,0.332999884 L43.6399847,1.75499939 L44.5939844,1.75499939 L44.5939844,2.852999 L43.6399847,2.852999 L43.6399847,4.48299843 C43.6399847,4.91499828 43.7399847,5.10299822 44.1899845,5.10299822 C44.3254333,5.10297166 44.4607308,5.09395182 44.5949844,5.07599822 L44.5949844,6.42599775 L43.4519848,6.47999773 C42.6959851,6.47999773 41.8589854,6.36299777 41.8589854,5.08499822 L41.8589854,2.852999 L41.0669856,2.852999 L41.0669856,1.75499939 L41.8589854,1.75499939 L41.8589854,0.332999884 L43.6409847,0.332999884 L43.6399847,0.332999884 Z" id="E"></path>
                </g>
            </g>
        </g>
    </g>
</svg>