<?xml version="1.0" encoding="UTF-8"?>
<svg width="452px" height="52px" viewBox="0 0 452 52" version="1.1" xmlns="http://www.w3.org/2000/svg" xmlns:xlink="http://www.w3.org/1999/xlink">
    <defs>
        <linearGradient x1="50%" y1="37.770525%" x2="50%" y2="94.5384814%" id="linearGradient-1">
            <stop stop-color="#FFFFFF" offset="0%"></stop>
            <stop stop-color="#FFFFFF" stop-opacity="0.929629938" offset="56.5841763%"></stop>
            <stop stop-color="#FFFFFF" stop-opacity="0.576903661" offset="75.2686958%"></stop>
            <stop stop-color="#FFFFFF" stop-opacity="0" offset="100%"></stop>
        </linearGradient>
        <rect id="path-2" x="1" y="1" width="450" height="48" rx="2"></rect>
        <filter x="-0.3%" y="-3.1%" width="100.7%" height="110.4%" filterUnits="objectBoundingBox" id="filter-3">
            <feMorphology radius="0.5" operator="dilate" in="SourceAlpha" result="shadowSpreadOuter1"></feMorphology>
            <feOffset dx="0" dy="2" in="shadowSpreadOuter1" result="shadowOffsetOuter1"></feOffset>
            <feComposite in="shadowOffsetOuter1" in2="SourceAlpha" operator="out" result="shadowOffsetOuter1"></feComposite>
            <feColorMatrix values="0 0 0 0 0.9016   0 0 0 0 0.90528   0 0 0 0 0.92  0 0 0 1 0" type="matrix" in="shadowOffsetOuter1"></feColorMatrix>
        </filter>
    </defs>
    <g id="Readme-button" stroke="none" stroke-width="1" fill="none" fill-rule="evenodd">
        <rect fill="#FFFFFF" x="0" y="0" width="452" height="52"></rect>
        <g id="Rectangle">
            <use fill="black" fill-opacity="1" filter="url(#filter-3)" xlink:href="#path-2"></use>
            <use stroke="#E6E7EB" stroke-width="1" fill="url(#linearGradient-1)" fill-rule="evenodd" xlink:href="#path-2"></use>
        </g>
        <g id="Group-2" transform="translate(26.000000, 1.000000)">
            <g id="Group" transform="translate(42.000000, 0.000000)">
                <path d="M3.075,20.41 L3.075,31 L0.96,31 L0.96,20.41 L3.075,20.41 Z M7.44333337,22.585 C8.45333842,22.585 9.26333032,22.8399975 9.87333337,23.35 C10.4833364,23.8600026 10.8633326,24.5399958 11.0133334,25.39 L9.03333337,25.39 C8.95333297,24.989998 8.77333477,24.6700012 8.49333337,24.43 C8.21333197,24.1899988 7.84833562,24.07 7.39833337,24.07 C7.03833157,24.07 6.75833437,24.1549992 6.55833337,24.325 C6.35833237,24.4950009 6.25833337,24.7249985 6.25833337,25.015 C6.25833337,25.2450012 6.33833257,25.4299993 6.49833337,25.57 C6.65833417,25.7100007 6.85833217,25.8199996 7.09833337,25.9 C7.33833457,25.9800004 7.68333112,26.0749994 8.13333337,26.185 C8.76333652,26.3250007 9.2758314,26.4724992 9.67083337,26.6275 C10.0658353,26.7825008 10.4058319,27.0274983 10.6908334,27.3625 C10.9758348,27.6975017 11.1183334,28.1499972 11.1183334,28.72 C11.1183334,29.4300035 10.8408361,30.0049978 10.2858334,30.445 C9.7308306,30.8850022 8.98333807,31.105 8.04333337,31.105 C6.96332797,31.105 6.09833662,30.8625024 5.44833337,30.3775 C4.79833012,29.8924976 4.40333407,29.2000045 4.26333337,28.3 L6.28833337,28.3 C6.33833362,28.710002 6.51833182,29.0324988 6.82833337,29.2675 C7.13833492,29.5025012 7.54333087,29.62 8.04333337,29.62 C8.40333517,29.62 8.67833242,29.5325009 8.86833337,29.3575 C9.05833432,29.1824991 9.15333337,28.9550014 9.15333337,28.675 C9.15333337,28.4349988 9.0708342,28.2400008 8.90583337,28.09 C8.74083255,27.9399992 8.5358346,27.8250004 8.29083337,27.745 C8.04583215,27.6649996 7.69833562,27.5700005 7.24833337,27.46 C6.62833027,27.3199993 6.1258353,27.1775007 5.74083337,27.0325 C5.35583145,26.8874993 5.02583475,26.6550016 4.75083337,26.335 C4.475832,26.0149984 4.33833337,25.5750028 4.33833337,25.015 C4.33833337,24.2949964 4.61333062,23.7100023 5.16333337,23.26 C5.71333612,22.8099978 6.47332852,22.585 7.44333337,22.585 Z M15.1416667,22.585 C16.1516718,22.585 16.9616637,22.8399975 17.5716667,23.35 C18.1816698,23.8600026 18.561666,24.5399958 18.7116667,25.39 L16.7316667,25.39 C16.6516663,24.989998 16.4716681,24.6700012 16.1916667,24.43 C15.9116653,24.1899988 15.546669,24.07 15.0966667,24.07 C14.7366649,24.07 14.4566677,24.1549992 14.2566667,24.325 C14.0566657,24.4950009 13.9566667,24.7249985 13.9566667,25.015 C13.9566667,25.2450012 14.0366659,25.4299993 14.1966667,25.57 C14.3566675,25.7100007 14.5566655,25.8199996 14.7966667,25.9 C15.0366679,25.9800004 15.3816645,26.0749994 15.8316667,26.185 C16.4616699,26.3250007 16.9741648,26.4724992 17.3691667,26.6275 C17.7641687,26.7825008 18.1041653,27.0274983 18.3891667,27.3625 C18.6741682,27.6975017 18.8166667,28.1499972 18.8166667,28.72 C18.8166667,29.4300035 18.5391695,30.0049978 17.9841667,30.445 C17.429164,30.8850022 16.6816714,31.105 15.7416667,31.105 C14.6616613,31.105 13.79667,30.8625024 13.1466667,30.3775 C12.4966635,29.8924976 12.1016674,29.2000045 11.9616667,28.3 L13.9866667,28.3 C14.036667,28.710002 14.2166652,29.0324988 14.5266667,29.2675 C14.8366683,29.5025012 15.2416642,29.62 15.7416667,29.62 C16.1016685,29.62 16.3766658,29.5325009 16.5666667,29.3575 C16.7566677,29.1824991 16.8516667,28.9550014 16.8516667,28.675 C16.8516667,28.4349988 16.7691676,28.2400008 16.6041667,28.09 C16.4391659,27.9399992 16.234168,27.8250004 15.9891667,27.745 C15.7441655,27.6649996 15.396669,27.5700005 14.9466667,27.46 C14.3266636,27.3199993 13.8241687,27.1775007 13.4391667,27.0325 C13.0541648,26.8874993 12.7241681,26.6550016 12.4491667,26.335 C12.1741654,26.0149984 12.0366667,25.5750028 12.0366667,25.015 C12.0366667,24.2949964 12.311664,23.7100023 12.8616667,23.26 C13.4116695,22.8099978 14.1716619,22.585 15.1416667,22.585 Z M27.9250001,22.69 L27.9250001,31 L25.8100001,31 L25.8100001,29.32 C25.589999,29.8800028 25.2275026,30.3174984 24.7225001,30.6325 C24.2174976,30.9475016 23.6350034,31.105 22.9750001,31.105 C22.0149953,31.105 21.250003,30.7900032 20.6800001,30.16 C20.1099973,29.5299968 19.8250001,28.6500057 19.8250001,27.52 L19.8250001,22.69 L21.9250001,22.69 L21.9250001,27.28 C21.9250001,27.9400033 22.0949984,28.4524982 22.4350001,28.8175 C22.7750018,29.1825018 23.2349972,29.365 23.8150001,29.365 C24.4250032,29.365 24.9099983,29.1700019 25.2700001,28.78 C25.6300019,28.389998 25.8100001,27.8300037 25.8100001,27.1 L25.8100001,22.69 L27.9250001,22.69 Z M37.2433335,26.53 C37.2433335,26.7400011 37.2183337,26.9799986 37.1683335,27.25 L31.0783335,27.25 C31.1083336,27.9900037 31.3083316,28.5349983 31.6783335,28.885 C32.0483353,29.2350018 32.5083307,29.41 33.0583335,29.41 C33.5483359,29.41 33.9558319,29.2900012 34.2808335,29.05 C34.6058351,28.8099988 34.813333,28.4850021 34.9033335,28.075 L37.1383335,28.075 C37.0283329,28.6550029 36.7933353,29.1749977 36.4333335,29.635 C36.0733317,30.0950023 35.6108363,30.4549987 35.0458335,30.715 C34.4808307,30.9750013 33.8533369,31.105 33.1633335,31.105 C32.3533294,31.105 31.6333366,30.9325017 31.0033335,30.5875 C30.3733303,30.2424983 29.8833352,29.7500032 29.5333335,29.11 C29.1833317,28.4699968 29.0083335,27.7150043 29.0083335,26.845 C29.0083335,25.9749957 29.1833317,25.2175032 29.5333335,24.5725 C29.8833352,23.9274968 30.3733303,23.4350017 31.0033335,23.095 C31.6333366,22.7549983 32.3533294,22.585 33.1633335,22.585 C33.9833376,22.585 34.7008304,22.7549983 35.3158335,23.095 C35.9308366,23.4350017 36.4058318,23.902497 36.7408335,24.4975 C37.0758352,25.092503 37.2433335,25.7699962 37.2433335,26.53 Z M35.1133335,26.32 C35.1433336,25.6399966 34.9658354,25.1250018 34.5808335,24.775 C34.1958316,24.4249983 33.7233363,24.25 33.1633335,24.25 C32.5933306,24.25 32.1133354,24.4249983 31.7233335,24.775 C31.3333315,25.1250018 31.1183337,25.6399966 31.0783335,26.32 L35.1133335,26.32 Z M47.1016669,20.41 L47.1016669,31 L44.9716669,31 L44.9716669,26.395 L40.4416669,26.395 L40.4416669,31 L38.3266669,31 L38.3266669,20.41 L40.4416669,20.41 L40.4416669,24.7 L44.9716669,24.7 L44.9716669,20.41 L47.1016669,20.41 Z M56.5550002,22.69 L56.5550002,31 L54.4400002,31 L54.4400002,29.32 C54.2199991,29.8800028 53.8575028,30.3174984 53.3525002,30.6325 C52.8474977,30.9475016 52.2650035,31.105 51.6050002,31.105 C50.6449954,31.105 49.8800031,30.7900032 49.3100002,30.16 C48.7399974,29.5299968 48.4550002,28.6500057 48.4550002,27.52 L48.4550002,22.69 L50.5550002,22.69 L50.5550002,27.28 C50.5550002,27.9400033 50.7249985,28.4524982 51.0650002,28.8175 C51.4050019,29.1825018 51.8649973,29.365 52.4450002,29.365 C53.0550033,29.365 53.5399984,29.1700019 53.9000002,28.78 C54.260002,28.389998 54.4400002,27.8300037 54.4400002,27.1 L54.4400002,22.69 L56.5550002,22.69 Z M63.0083336,22.57 C63.9683384,22.57 64.7333308,22.8849969 65.3033336,23.515 C65.8733365,24.1450032 66.1583336,25.0299943 66.1583336,26.17 L66.1583336,31 L64.0583336,31 L64.0583336,26.41 C64.0583336,25.7499967 63.8883353,25.2375018 63.5483336,24.8725 C63.2083319,24.5074982 62.7433366,24.325 62.1533336,24.325 C61.5533306,24.325 61.0733354,24.519998 60.7133336,24.91 C60.3533318,25.300002 60.1733336,25.8599963 60.1733336,26.59 L60.1733336,31 L58.0583336,31 L58.0583336,22.69 L60.1733336,22.69 L60.1733336,24.355 C60.3933347,23.7949972 60.7558311,23.3575016 61.2608336,23.0425 C61.7658361,22.7274984 62.3483303,22.57 63.0083336,22.57 Z M72.041667,29.185 L72.041667,31 L70.931667,31 C70.0016623,31 69.2891695,30.7750023 68.794167,30.325 C68.2991645,29.8749977 68.051667,29.1250052 68.051667,28.075 L68.051667,24.475 L66.896667,24.475 L66.896667,22.69 L68.051667,22.69 L68.051667,20.635 L70.166667,20.635 L70.166667,22.69 L72.026667,22.69 L72.026667,24.475 L70.166667,24.475 L70.166667,28.105 C70.166667,28.505002 70.2466662,28.7849992 70.406667,28.945 C70.5666678,29.1050008 70.8366651,29.185 71.216667,29.185 L72.041667,29.185 Z" id="IssueHunt" fill="#262A40"></path>
                <text id="·" font-family="Poppins-Medium, Poppins" font-size="16" font-weight="400" line-spacing="48" fill="#777F8F">
                    <tspan x="88" y="17">·</tspan>
                </text>
                <path d="M108.745,29.665 L112.405,29.665 L112.405,31 L107.035,31 L107.035,20.41 L108.745,20.41 L108.745,29.665 Z M121.42,26.47 C121.42,26.7500014 121.4,26.9949989 121.36,27.205 L115,27.205 C115.03,28.0550042 115.264998,28.6849979 115.705,29.095 C116.145002,29.5050021 116.689997,29.71 117.34,29.71 C117.910003,29.71 118.392498,29.5650015 118.7875,29.275 C119.182502,28.9849986 119.425,28.6000024 119.515,28.12 L121.345,28.12 C121.234999,28.7000029 121.005002,29.2149978 120.655,29.665 C120.304998,30.1150022 119.850003,30.4674987 119.29,30.7225 C118.729997,30.9775013 118.105003,31.105 117.415,31.105 C116.614996,31.105 115.907503,30.9350017 115.2925,30.595 C114.677497,30.2549983 114.195002,29.7650032 113.845,29.125 C113.494998,28.4849968 113.32,27.7300043 113.32,26.86 C113.32,25.9999957 113.494998,25.2500032 113.845,24.61 C114.195002,23.9699968 114.677497,23.4800017 115.2925,23.14 C115.907503,22.7999983 116.614996,22.63 117.415,22.63 C118.225004,22.63 118.932497,22.7974983 119.5375,23.1325 C120.142503,23.4675017 120.607498,23.9274971 120.9325,24.5125 C121.257502,25.0975029 121.42,25.7499964 121.42,26.47 Z M119.695,26.425 C119.715,25.8849973 119.622501,25.4325018 119.4175,25.0675 C119.212499,24.7024982 118.932502,24.4325009 118.5775,24.2575 C118.222498,24.0824991 117.835002,23.995 117.415,23.995 C116.744997,23.995 116.185002,24.199998 115.735,24.61 C115.284998,25.0200021 115.04,25.624996 115,26.425 L119.695,26.425 Z M127.225,29.515 L127.225,31 L126.175,31 C125.294996,31 124.627502,30.7875021 124.1725,30.3625 C123.717498,29.9374979 123.49,29.230005 123.49,28.24 L123.49,24.19 L122.305,24.19 L122.305,22.735 L123.49,22.735 L123.49,20.68 L125.215,20.68 L125.215,22.735 L127.21,22.735 L127.21,24.19 L125.215,24.19 L125.215,28.27 C125.215,28.7400024 125.302499,29.0649991 125.4775,29.245 C125.652501,29.4250009 125.959998,29.515 126.4,29.515 L127.225,29.515 Z M129.97,19.03 L129.79,22.12 L128.62,22.12 L128.425,19.03 L129.97,19.03 Z M134.365,22.63 C135.335005,22.63 136.112497,22.8774975 136.6975,23.3725 C137.282503,23.8675025 137.639999,24.5299959 137.77,25.36 L136.15,25.36 C136.08,24.9099978 135.887502,24.5475014 135.5725,24.2725 C135.257498,23.9974986 134.840003,23.86 134.32,23.86 C133.889998,23.86 133.557501,23.962499 133.3225,24.1675 C133.087499,24.372501 132.97,24.6499982 132.97,25 C132.97,25.2600013 133.054999,25.4699992 133.225,25.63 C133.395001,25.7900008 133.607499,25.9149996 133.8625,26.005 C134.117501,26.0950005 134.479998,26.1949995 134.95,26.305 C135.570003,26.4450007 136.072498,26.5899993 136.4575,26.74 C136.842502,26.8900007 137.172499,27.1274984 137.4475,27.4525 C137.722501,27.7775016 137.86,28.2199972 137.86,28.78 C137.86,29.4700035 137.597503,30.0299979 137.0725,30.46 C136.547497,30.8900022 135.840004,31.105 134.95,31.105 C133.919995,31.105 133.087503,30.8650024 132.4525,30.385 C131.817497,29.9049976 131.435001,29.2350043 131.305,28.375 L132.97,28.375 C133.02,28.8250023 133.219998,29.1899986 133.57,29.47 C133.920002,29.7500014 134.379997,29.89 134.95,29.89 C135.360002,29.89 135.682499,29.7825011 135.9175,29.5675 C136.152501,29.3524989 136.27,29.0800016 136.27,28.75 C136.27,28.4599986 136.180001,28.2300008 136,28.06 C135.819999,27.8899991 135.595001,27.7575005 135.325,27.6625 C135.054999,27.5674995 134.685002,27.4700005 134.215,27.37 C133.614997,27.2299993 133.127502,27.0900007 132.7525,26.95 C132.377498,26.8099993 132.057501,26.5825016 131.7925,26.2675 C131.527499,25.9524984 131.395,25.5250027 131.395,24.985 C131.395,24.2849965 131.657497,23.7175022 132.1825,23.2825 C132.707503,22.8474978 133.434995,22.63 134.365,22.63 Z M146.935,21.025 C146.264997,20.9949998 145.795001,21.1024988 145.525,21.3475 C145.254999,21.5925012 145.12,22.0099971 145.12,22.6 L145.12,22.735 L146.935,22.735 L146.935,24.205 L145.12,24.205 L145.12,31 L143.395,31 L143.395,24.205 L142.27,24.205 L142.27,22.735 L143.395,22.735 L143.395,22.465 C143.395,21.4549949 143.689997,20.6975025 144.28,20.1925 C144.870003,19.6874975 145.754994,19.4649997 146.935,19.525 L146.935,21.025 Z M155.935,22.735 L155.935,31 L154.21,31 L154.21,29.2 C153.999999,29.810003 153.635003,30.2824983 153.115,30.6175 C152.594997,30.9525017 151.990003,31.12 151.3,31.12 C150.339995,31.12 149.570003,30.8100031 148.99,30.19 C148.409997,29.5699969 148.12,28.6850058 148.12,27.535 L148.12,22.735 L149.83,22.735 L149.83,27.355 C149.83,28.1050038 150.019998,28.682498 150.4,29.0875 C150.780002,29.492502 151.299997,29.695 151.96,29.695 C152.640003,29.695 153.184998,29.4750022 153.595,29.035 C154.005002,28.5949978 154.21,27.9550042 154.21,27.115 L154.21,22.735 L155.935,22.735 Z M162.61,22.6 C163.570005,22.6 164.339997,22.9099969 164.92,23.53 C165.500003,24.1500031 165.79,25.0349943 165.79,26.185 L165.79,31 L164.08,31 L164.08,26.365 C164.08,25.6249963 163.890002,25.052502 163.51,24.6475 C163.129998,24.242498 162.610003,24.04 161.95,24.04 C161.269997,24.04 160.725002,24.2574978 160.315,24.6925 C159.904998,25.1275022 159.7,25.7649958 159.7,26.605 L159.7,31 L157.99,31 L157.99,22.735 L159.7,22.735 L159.7,24.55 C159.920001,23.9299969 160.289997,23.4500017 160.81,23.11 C161.330003,22.7699983 161.929997,22.6 162.61,22.6 Z M171.1,22.63 C171.850004,22.63 172.489997,22.8149982 173.02,23.185 C173.550003,23.5550019 173.919999,24.0449969 174.13,24.655 L174.13,19.9 L175.855,19.9 L175.855,31 L174.13,31 L174.13,29.08 C173.919999,29.6900031 173.550003,30.1799981 173.02,30.55 C172.489997,30.9200019 171.850004,31.105 171.1,31.105 C170.379996,31.105 169.737503,30.9350017 169.1725,30.595 C168.607497,30.2549983 168.165002,29.7650032 167.845,29.125 C167.524998,28.4849968 167.365,27.7300043 167.365,26.86 C167.365,25.9999957 167.524998,25.2500032 167.845,24.61 C168.165002,23.9699968 168.607497,23.4800017 169.1725,23.14 C169.737503,22.7999983 170.379996,22.63 171.1,22.63 Z M171.625,24.13 C170.864996,24.13 170.257502,24.3724976 169.8025,24.8575 C169.347498,25.3425024 169.12,26.0099958 169.12,26.86 C169.12,27.7100043 169.347498,28.3774976 169.8025,28.8625 C170.257502,29.3475024 170.864996,29.59 171.625,29.59 C172.105002,29.59 172.534998,29.4775011 172.915,29.2525 C173.295002,29.0274989 173.594999,28.710002 173.815,28.3 C174.035001,27.889998 174.145,27.4100028 174.145,26.86 C174.145,26.3199973 174.035001,25.8425021 173.815,25.4275 C173.594999,25.0124979 173.295002,24.6925011 172.915,24.4675 C172.534998,24.2424989 172.105002,24.13 171.625,24.13 Z M181.18,20.335 C181.18,20.0449986 181.279999,19.805001 181.48,19.615 C181.680001,19.424999 181.944998,19.33 182.275,19.33 C182.605002,19.33 182.872499,19.424999 183.0775,19.615 C183.282501,19.805001 183.385,20.0449986 183.385,20.335 C183.385,20.6250014 183.282501,20.8599991 183.0775,21.04 C182.872499,21.2200009 182.605002,21.31 182.275,21.31 C181.944998,21.31 181.680001,21.2200009 181.48,21.04 C181.279999,20.8599991 181.18,20.6250014 181.18,20.335 Z M183.13,22.735 L183.13,31 L181.42,31 L181.42,22.735 L183.13,22.735 Z M187.915,22.63 C188.885005,22.63 189.662497,22.8774975 190.2475,23.3725 C190.832503,23.8675025 191.189999,24.5299959 191.32,25.36 L189.7,25.36 C189.63,24.9099978 189.437502,24.5475014 189.1225,24.2725 C188.807498,23.9974986 188.390003,23.86 187.87,23.86 C187.439998,23.86 187.107501,23.962499 186.8725,24.1675 C186.637499,24.372501 186.52,24.6499982 186.52,25 C186.52,25.2600013 186.604999,25.4699992 186.775,25.63 C186.945001,25.7900008 187.157499,25.9149996 187.4125,26.005 C187.667501,26.0950005 188.029998,26.1949995 188.5,26.305 C189.120003,26.4450007 189.622498,26.5899993 190.0075,26.74 C190.392502,26.8900007 190.722499,27.1274984 190.9975,27.4525 C191.272501,27.7775016 191.41,28.2199972 191.41,28.78 C191.41,29.4700035 191.147503,30.0299979 190.6225,30.46 C190.097497,30.8900022 189.390004,31.105 188.5,31.105 C187.469995,31.105 186.637503,30.8650024 186.0025,30.385 C185.367497,29.9049976 184.985001,29.2350043 184.855,28.375 L186.52,28.375 C186.57,28.8250023 186.769998,29.1899986 187.12,29.47 C187.470002,29.7500014 187.929997,29.89 188.5,29.89 C188.910002,29.89 189.232499,29.7825011 189.4675,29.5675 C189.702501,29.3524989 189.82,29.0800016 189.82,28.75 C189.82,28.4599986 189.730001,28.2300008 189.55,28.06 C189.369999,27.8899991 189.145001,27.7575005 188.875,27.6625 C188.604999,27.5674995 188.235002,27.4700005 187.765,27.37 C187.164997,27.2299993 186.677502,27.0900007 186.3025,26.95 C185.927498,26.8099993 185.607501,26.5825016 185.3425,26.2675 C185.077499,25.9524984 184.945,25.5250027 184.945,24.985 C184.945,24.2849965 185.207497,23.7175022 185.7325,23.2825 C186.257503,22.8474978 186.984995,22.63 187.915,22.63 Z M195.835,22.63 C196.805005,22.63 197.582497,22.8774975 198.1675,23.3725 C198.752503,23.8675025 199.109999,24.5299959 199.24,25.36 L197.62,25.36 C197.55,24.9099978 197.357502,24.5475014 197.0425,24.2725 C196.727498,23.9974986 196.310003,23.86 195.79,23.86 C195.359998,23.86 195.027501,23.962499 194.7925,24.1675 C194.557499,24.372501 194.44,24.6499982 194.44,25 C194.44,25.2600013 194.524999,25.4699992 194.695,25.63 C194.865001,25.7900008 195.077499,25.9149996 195.3325,26.005 C195.587501,26.0950005 195.949998,26.1949995 196.42,26.305 C197.040003,26.4450007 197.542498,26.5899993 197.9275,26.74 C198.312502,26.8900007 198.642499,27.1274984 198.9175,27.4525 C199.192501,27.7775016 199.33,28.2199972 199.33,28.78 C199.33,29.4700035 199.067503,30.0299979 198.5425,30.46 C198.017497,30.8900022 197.310004,31.105 196.42,31.105 C195.389995,31.105 194.557503,30.8650024 193.9225,30.385 C193.287497,29.9049976 192.905001,29.2350043 192.775,28.375 L194.44,28.375 C194.49,28.8250023 194.689998,29.1899986 195.04,29.47 C195.390002,29.7500014 195.849997,29.89 196.42,29.89 C196.830002,29.89 197.152499,29.7825011 197.3875,29.5675 C197.622501,29.3524989 197.74,29.0800016 197.74,28.75 C197.74,28.4599986 197.650001,28.2300008 197.47,28.06 C197.289999,27.8899991 197.065001,27.7575005 196.795,27.6625 C196.524999,27.5674995 196.155002,27.4700005 195.685,27.37 C195.084997,27.2299993 194.597502,27.0900007 194.2225,26.95 C193.847498,26.8099993 193.527501,26.5825016 193.2625,26.2675 C192.997499,25.9524984 192.865,25.5250027 192.865,24.985 C192.865,24.2849965 193.127497,23.7175022 193.6525,23.2825 C194.177503,22.8474978 194.904995,22.63 195.835,22.63 Z M208.66,22.735 L208.66,31 L206.935,31 L206.935,29.2 C206.724999,29.810003 206.360003,30.2824983 205.84,30.6175 C205.319997,30.9525017 204.715003,31.12 204.025,31.12 C203.064995,31.12 202.295003,30.8100031 201.715,30.19 C201.134997,29.5699969 200.845,28.6850058 200.845,27.535 L200.845,22.735 L202.555,22.735 L202.555,27.355 C202.555,28.1050038 202.744998,28.682498 203.125,29.0875 C203.505002,29.492502 204.024997,29.695 204.685,29.695 C205.365003,29.695 205.909998,29.4750022 206.32,29.035 C206.730002,28.5949978 206.935,27.9550042 206.935,27.115 L206.935,22.735 L208.66,22.735 Z M218.395,26.47 C218.395,26.7500014 218.375,26.9949989 218.335,27.205 L211.975,27.205 C212.005,28.0550042 212.239998,28.6849979 212.68,29.095 C213.120002,29.5050021 213.664997,29.71 214.315,29.71 C214.885003,29.71 215.367498,29.5650015 215.7625,29.275 C216.157502,28.9849986 216.4,28.6000024 216.49,28.12 L218.32,28.12 C218.209999,28.7000029 217.980002,29.2149978 217.63,29.665 C217.279998,30.1150022 216.825003,30.4674987 216.265,30.7225 C215.704997,30.9775013 215.080003,31.105 214.39,31.105 C213.589996,31.105 212.882503,30.9350017 212.2675,30.595 C211.652497,30.2549983 211.170002,29.7650032 210.82,29.125 C210.469998,28.4849968 210.295,27.7300043 210.295,26.86 C210.295,25.9999957 210.469998,25.2500032 210.82,24.61 C211.170002,23.9699968 211.652497,23.4800017 212.2675,23.14 C212.882503,22.7999983 213.589996,22.63 214.39,22.63 C215.200004,22.63 215.907497,22.7974983 216.5125,23.1325 C217.117503,23.4675017 217.582498,23.9274971 217.9075,24.5125 C218.232502,25.0975029 218.395,25.7499964 218.395,26.47 Z M216.67,26.425 C216.69,25.8849973 216.597501,25.4325018 216.3925,25.0675 C216.187499,24.7024982 215.907502,24.4325009 215.5525,24.2575 C215.197498,24.0824991 214.810002,23.995 214.39,23.995 C213.719997,23.995 213.160002,24.199998 212.71,24.61 C212.259998,25.0200021 212.015,25.624996 211.975,26.425 L216.67,26.425 Z M222.76,22.63 C223.730005,22.63 224.507497,22.8774975 225.0925,23.3725 C225.677503,23.8675025 226.034999,24.5299959 226.165,25.36 L224.545,25.36 C224.475,24.9099978 224.282502,24.5475014 223.9675,24.2725 C223.652498,23.9974986 223.235003,23.86 222.715,23.86 C222.284998,23.86 221.952501,23.962499 221.7175,24.1675 C221.482499,24.372501 221.365,24.6499982 221.365,25 C221.365,25.2600013 221.449999,25.4699992 221.62,25.63 C221.790001,25.7900008 222.002499,25.9149996 222.2575,26.005 C222.512501,26.0950005 222.874998,26.1949995 223.345,26.305 C223.965003,26.4450007 224.467498,26.5899993 224.8525,26.74 C225.237502,26.8900007 225.567499,27.1274984 225.8425,27.4525 C226.117501,27.7775016 226.255,28.2199972 226.255,28.78 C226.255,29.4700035 225.992503,30.0299979 225.4675,30.46 C224.942497,30.8900022 224.235004,31.105 223.345,31.105 C222.314995,31.105 221.482503,30.8650024 220.8475,30.385 C220.212497,29.9049976 219.830001,29.2350043 219.7,28.375 L221.365,28.375 C221.415,28.8250023 221.614998,29.1899986 221.965,29.47 C222.315002,29.7500014 222.774997,29.89 223.345,29.89 C223.755002,29.89 224.077499,29.7825011 224.3125,29.5675 C224.547501,29.3524989 224.665,29.0800016 224.665,28.75 C224.665,28.4599986 224.575001,28.2300008 224.395,28.06 C224.214999,27.8899991 223.990001,27.7575005 223.72,27.6625 C223.449999,27.5674995 223.080002,27.4700005 222.61,27.37 C222.009997,27.2299993 221.522502,27.0900007 221.1475,26.95 C220.772498,26.8099993 220.452501,26.5825016 220.1875,26.2675 C219.922499,25.9524984 219.79,25.5250027 219.79,24.985 C219.79,24.2849965 220.052497,23.7175022 220.5775,23.2825 C221.102503,22.8474978 221.829995,22.63 222.76,22.63 Z M231.235,20.335 C231.235,20.0449986 231.334999,19.805001 231.535,19.615 C231.735001,19.424999 231.999998,19.33 232.33,19.33 C232.660002,19.33 232.927499,19.424999 233.1325,19.615 C233.337501,19.805001 233.44,20.0449986 233.44,20.335 C233.44,20.6250014 233.337501,20.8599991 233.1325,21.04 C232.927499,21.2200009 232.660002,21.31 232.33,21.31 C231.999998,21.31 231.735001,21.2200009 231.535,21.04 C231.334999,20.8599991 231.235,20.6250014 231.235,20.335 Z M233.185,22.735 L233.185,31 L231.475,31 L231.475,22.735 L233.185,22.735 Z M239.875,22.6 C240.835005,22.6 241.604997,22.9099969 242.185,23.53 C242.765003,24.1500031 243.055,25.0349943 243.055,26.185 L243.055,31 L241.345,31 L241.345,26.365 C241.345,25.6249963 241.155002,25.052502 240.775,24.6475 C240.394998,24.242498 239.875003,24.04 239.215,24.04 C238.534997,24.04 237.990002,24.2574978 237.58,24.6925 C237.169998,25.1275022 236.965,25.7649958 236.965,26.605 L236.965,31 L235.255,31 L235.255,22.735 L236.965,22.735 L236.965,24.55 C237.185001,23.9299969 237.554997,23.4500017 238.075,23.11 C238.595003,22.7699983 239.194997,22.6 239.875,22.6 Z M252.715,29.515 L252.715,31 L251.665,31 C250.784996,31 250.117502,30.7875021 249.6625,30.3625 C249.207498,29.9374979 248.98,29.230005 248.98,28.24 L248.98,24.19 L247.795,24.19 L247.795,22.735 L248.98,22.735 L248.98,20.68 L250.705,20.68 L250.705,22.735 L252.7,22.735 L252.7,24.19 L250.705,24.19 L250.705,28.27 C250.705,28.7400024 250.792499,29.0649991 250.9675,29.245 C251.142501,29.4250009 251.449998,29.515 251.89,29.515 L252.715,29.515 Z M258.94,22.6 C259.900005,22.6 260.669997,22.9099969 261.25,23.53 C261.830003,24.1500031 262.12,25.0349943 262.12,26.185 L262.12,31 L260.41,31 L260.41,26.365 C260.41,25.6249963 260.220002,25.052502 259.84,24.6475 C259.459998,24.242498 258.940003,24.04 258.28,24.04 C257.599997,24.04 257.055002,24.2574978 256.645,24.6925 C256.234998,25.1275022 256.03,25.7649958 256.03,26.605 L256.03,31 L254.32,31 L254.32,19.9 L256.03,19.9 L256.03,24.55 C256.250001,23.9299969 256.619997,23.4500017 257.14,23.11 C257.660003,22.7699983 258.259997,22.6 258.94,22.6 Z M263.875,20.335 C263.875,20.0449986 263.974999,19.805001 264.175,19.615 C264.375001,19.424999 264.639998,19.33 264.97,19.33 C265.300002,19.33 265.567499,19.424999 265.7725,19.615 C265.977501,19.805001 266.08,20.0449986 266.08,20.335 C266.08,20.6250014 265.977501,20.8599991 265.7725,21.04 C265.567499,21.2200009 265.300002,21.31 264.97,21.31 C264.639998,21.31 264.375001,21.2200009 264.175,21.04 C263.974999,20.8599991 263.875,20.6250014 263.875,20.335 Z M265.825,22.735 L265.825,31 L264.115,31 L264.115,22.735 L265.825,22.735 Z M270.61,22.63 C271.580005,22.63 272.357497,22.8774975 272.9425,23.3725 C273.527503,23.8675025 273.884999,24.5299959 274.015,25.36 L272.395,25.36 C272.325,24.9099978 272.132502,24.5475014 271.8175,24.2725 C271.502498,23.9974986 271.085003,23.86 270.565,23.86 C270.134998,23.86 269.802501,23.962499 269.5675,24.1675 C269.332499,24.372501 269.215,24.6499982 269.215,25 C269.215,25.2600013 269.299999,25.4699992 269.47,25.63 C269.640001,25.7900008 269.852499,25.9149996 270.1075,26.005 C270.362501,26.0950005 270.724998,26.1949995 271.195,26.305 C271.815003,26.4450007 272.317498,26.5899993 272.7025,26.74 C273.087502,26.8900007 273.417499,27.1274984 273.6925,27.4525 C273.967501,27.7775016 274.105,28.2199972 274.105,28.78 C274.105,29.4700035 273.842503,30.0299979 273.3175,30.46 C272.792497,30.8900022 272.085004,31.105 271.195,31.105 C270.164995,31.105 269.332503,30.8650024 268.6975,30.385 C268.062497,29.9049976 267.680001,29.2350043 267.55,28.375 L269.215,28.375 C269.265,28.8250023 269.464998,29.1899986 269.815,29.47 C270.165002,29.7500014 270.624997,29.89 271.195,29.89 C271.605002,29.89 271.927499,29.7825011 272.1625,29.5675 C272.397501,29.3524989 272.515,29.0800016 272.515,28.75 C272.515,28.4599986 272.425001,28.2300008 272.245,28.06 C272.064999,27.8899991 271.840001,27.7575005 271.57,27.6625 C271.299999,27.5674995 270.930002,27.4700005 270.46,27.37 C269.859997,27.2299993 269.372502,27.0900007 268.9975,26.95 C268.622498,26.8099993 268.302501,26.5825016 268.0375,26.2675 C267.772499,25.9524984 267.64,25.5250027 267.64,24.985 C267.64,24.2849965 267.902497,23.7175022 268.4275,23.2825 C268.952503,22.8474978 269.679995,22.63 270.61,22.63 Z M281.035,24.355 C281.315001,23.8149973 281.714997,23.3875016 282.235,23.0725 C282.755003,22.7574984 283.354997,22.6 284.035,22.6 L284.035,24.46 L283.525,24.46 C282.774996,24.46 282.172502,24.6424982 281.7175,25.0075 C281.262498,25.3725018 281.035,25.9749958 281.035,26.815 L281.035,31 L279.325,31 L279.325,22.735 L281.035,22.735 L281.035,24.355 Z M292.99,26.47 C292.99,26.7500014 292.97,26.9949989 292.93,27.205 L286.57,27.205 C286.6,28.0550042 286.834998,28.6849979 287.275,29.095 C287.715002,29.5050021 288.259997,29.71 288.91,29.71 C289.480003,29.71 289.962498,29.5650015 290.3575,29.275 C290.752502,28.9849986 290.995,28.6000024 291.085,28.12 L292.915,28.12 C292.804999,28.7000029 292.575002,29.2149978 292.225,29.665 C291.874998,30.1150022 291.420003,30.4674987 290.86,30.7225 C290.299997,30.9775013 289.675003,31.105 288.985,31.105 C288.184996,31.105 287.477503,30.9350017 286.8625,30.595 C286.247497,30.2549983 285.765002,29.7650032 285.415,29.125 C285.064998,28.4849968 284.89,27.7300043 284.89,26.86 C284.89,25.9999957 285.064998,25.2500032 285.415,24.61 C285.765002,23.9699968 286.247497,23.4800017 286.8625,23.14 C287.477503,22.7999983 288.184996,22.63 288.985,22.63 C289.795004,22.63 290.502497,22.7974983 291.1075,23.1325 C291.712503,23.4675017 292.177498,23.9274971 292.5025,24.5125 C292.827502,25.0975029 292.99,25.7499964 292.99,26.47 Z M291.265,26.425 C291.285,25.8849973 291.192501,25.4325018 290.9875,25.0675 C290.782499,24.7024982 290.502502,24.4325009 290.1475,24.2575 C289.792498,24.0824991 289.405002,23.995 288.985,23.995 C288.314997,23.995 287.755002,24.199998 287.305,24.61 C286.854998,25.0200021 286.61,25.624996 286.57,26.425 L291.265,26.425 Z M299.38,22.63 C300.100004,22.63 300.742497,22.7999983 301.3075,23.14 C301.872503,23.4800017 302.314998,23.9699968 302.635,24.61 C302.955002,25.2500032 303.115,25.9999957 303.115,26.86 C303.115,27.7300043 302.955002,28.4849968 302.635,29.125 C302.314998,29.7650032 301.872503,30.2549983 301.3075,30.595 C300.742497,30.9350017 300.100004,31.105 299.38,31.105 C298.629996,31.105 297.990003,30.9200019 297.46,30.55 C296.929997,30.1799981 296.560001,29.6900031 296.35,29.08 L296.35,34.93 L294.64,34.93 L294.64,22.735 L296.35,22.735 L296.35,24.655 C296.560001,24.0449969 296.929997,23.5550019 297.46,23.185 C297.990003,22.8149982 298.629996,22.63 299.38,22.63 Z M298.855,24.13 C298.374998,24.13 297.945002,24.2424989 297.565,24.4675 C297.184998,24.6925011 296.885001,25.0124979 296.665,25.4275 C296.444999,25.8425021 296.335,26.3199973 296.335,26.86 C296.335,27.4100028 296.444999,27.889998 296.665,28.3 C296.885001,28.710002 297.184998,29.0274989 297.565,29.2525 C297.945002,29.4775011 298.374998,29.59 298.855,29.59 C299.615004,29.59 300.224998,29.3475024 300.685,28.8625 C301.145002,28.3774976 301.375,27.7100043 301.375,26.86 C301.375,26.0199958 301.145002,25.3550025 300.685,24.865 C300.224998,24.3749975 299.615004,24.13 298.855,24.13 Z M308.545,22.63 C309.345004,22.63 310.064997,22.7999983 310.705,23.14 C311.345003,23.4800017 311.844998,23.9699968 312.205,24.61 C312.565002,25.2500032 312.745,25.9999957 312.745,26.86 C312.745,27.7300043 312.565002,28.4849968 312.205,29.125 C311.844998,29.7650032 311.345003,30.2549983 310.705,30.595 C310.064997,30.9350017 309.345004,31.105 308.545,31.105 C307.744996,31.105 307.027503,30.9350017 306.3925,30.595 C305.757497,30.2549983 305.257502,29.7625032 304.8925,29.1175 C304.527498,28.4724968 304.345,27.7200043 304.345,26.86 C304.345,25.9999957 304.527498,25.2500032 304.8925,24.61 C305.257502,23.9699968 305.757497,23.4800017 306.3925,23.14 C307.027503,22.7999983 307.744996,22.63 308.545,22.63 Z M308.545,24.115 C308.104998,24.115 307.700002,24.214999 307.33,24.415 C306.959998,24.615001 306.662501,24.9224979 306.4375,25.3375 C306.212499,25.7525021 306.1,26.259997 306.1,26.86 C306.1,27.470003 306.212499,27.9799979 306.4375,28.39 C306.662501,28.800002 306.959998,29.104999 307.33,29.305 C307.700002,29.505001 308.104998,29.605 308.545,29.605 C308.985002,29.605 309.389998,29.505001 309.76,29.305 C310.130002,29.104999 310.427499,28.800002 310.6525,28.39 C310.877501,27.9799979 310.99,27.470003 310.99,26.86 C310.99,26.259997 310.877501,25.7525021 310.6525,25.3375 C310.427499,24.9224979 310.130002,24.615001 309.76,24.415 C309.389998,24.214999 308.985002,24.115 308.545,24.115 Z M317.11,22.63 C318.080005,22.63 318.857497,22.8774975 319.4425,23.3725 C320.027503,23.8675025 320.384999,24.5299959 320.515,25.36 L318.895,25.36 C318.825,24.9099978 318.632502,24.5475014 318.3175,24.2725 C318.002498,23.9974986 317.585003,23.86 317.065,23.86 C316.634998,23.86 316.302501,23.962499 316.0675,24.1675 C315.832499,24.372501 315.715,24.6499982 315.715,25 C315.715,25.2600013 315.799999,25.4699992 315.97,25.63 C316.140001,25.7900008 316.352499,25.9149996 316.6075,26.005 C316.862501,26.0950005 317.224998,26.1949995 317.695,26.305 C318.315003,26.4450007 318.817498,26.5899993 319.2025,26.74 C319.587502,26.8900007 319.917499,27.1274984 320.1925,27.4525 C320.467501,27.7775016 320.605,28.2199972 320.605,28.78 C320.605,29.4700035 320.342503,30.0299979 319.8175,30.46 C319.292497,30.8900022 318.585004,31.105 317.695,31.105 C316.664995,31.105 315.832503,30.8650024 315.1975,30.385 C314.562497,29.9049976 314.180001,29.2350043 314.05,28.375 L315.715,28.375 C315.765,28.8250023 315.964998,29.1899986 316.315,29.47 C316.665002,29.7500014 317.124997,29.89 317.695,29.89 C318.105002,29.89 318.427499,29.7825011 318.6625,29.5675 C318.897501,29.3524989 319.015,29.0800016 319.015,28.75 C319.015,28.4599986 318.925001,28.2300008 318.745,28.06 C318.564999,27.8899991 318.340001,27.7575005 318.07,27.6625 C317.799999,27.5674995 317.430002,27.4700005 316.96,27.37 C316.359997,27.2299993 315.872502,27.0900007 315.4975,26.95 C315.122498,26.8099993 314.802501,26.5825016 314.5375,26.2675 C314.272499,25.9524984 314.14,25.5250027 314.14,24.985 C314.14,24.2849965 314.402497,23.7175022 314.9275,23.2825 C315.452503,22.8474978 316.179995,22.63 317.11,22.63 Z M322.075,20.335 C322.075,20.0449986 322.174999,19.805001 322.375,19.615 C322.575001,19.424999 322.839998,19.33 323.17,19.33 C323.500002,19.33 323.767499,19.424999 323.9725,19.615 C324.177501,19.805001 324.28,20.0449986 324.28,20.335 C324.28,20.6250014 324.177501,20.8599991 323.9725,21.04 C323.767499,21.2200009 323.500002,21.31 323.17,21.31 C322.839998,21.31 322.575001,21.2200009 322.375,21.04 C322.174999,20.8599991 322.075,20.6250014 322.075,20.335 Z M324.025,22.735 L324.025,31 L322.315,31 L322.315,22.735 L324.025,22.735 Z M330.25,29.515 L330.25,31 L329.2,31 C328.319996,31 327.652502,30.7875021 327.1975,30.3625 C326.742498,29.9374979 326.515,29.230005 326.515,28.24 L326.515,24.19 L325.33,24.19 L325.33,22.735 L326.515,22.735 L326.515,20.68 L328.24,20.68 L328.24,22.735 L330.235,22.735 L330.235,24.19 L328.24,24.19 L328.24,28.27 C328.24,28.7400024 328.327499,29.0649991 328.5025,29.245 C328.677501,29.4250009 328.984998,29.515 329.425,29.515 L330.25,29.515 Z M335.635,22.63 C336.435004,22.63 337.154997,22.7999983 337.795,23.14 C338.435003,23.4800017 338.934998,23.9699968 339.295,24.61 C339.655002,25.2500032 339.835,25.9999957 339.835,26.86 C339.835,27.7300043 339.655002,28.4849968 339.295,29.125 C338.934998,29.7650032 338.435003,30.2549983 337.795,30.595 C337.154997,30.9350017 336.435004,31.105 335.635,31.105 C334.834996,31.105 334.117503,30.9350017 333.4825,30.595 C332.847497,30.2549983 332.347502,29.7625032 331.9825,29.1175 C331.617498,28.4724968 331.435,27.7200043 331.435,26.86 C331.435,25.9999957 331.617498,25.2500032 331.9825,24.61 C332.347502,23.9699968 332.847497,23.4800017 333.4825,23.14 C334.117503,22.7999983 334.834996,22.63 335.635,22.63 Z M335.635,24.115 C335.194998,24.115 334.790002,24.214999 334.42,24.415 C334.049998,24.615001 333.752501,24.9224979 333.5275,25.3375 C333.302499,25.7525021 333.19,26.259997 333.19,26.86 C333.19,27.470003 333.302499,27.9799979 333.5275,28.39 C333.752501,28.800002 334.049998,29.104999 334.42,29.305 C334.790002,29.505001 335.194998,29.605 335.635,29.605 C336.075002,29.605 336.479998,29.505001 336.85,29.305 C337.220002,29.104999 337.517499,28.800002 337.7425,28.39 C337.967501,27.9799979 338.08,27.470003 338.08,26.86 C338.08,26.259997 337.967501,25.7525021 337.7425,25.3375 C337.517499,24.9224979 337.220002,24.615001 336.85,24.415 C336.479998,24.214999 336.075002,24.115 335.635,24.115 Z M343.195,24.355 C343.475001,23.8149973 343.874997,23.3875016 344.395,23.0725 C344.915003,22.7574984 345.514997,22.6 346.195,22.6 L346.195,24.46 L345.685,24.46 C344.934996,24.46 344.332502,24.6424982 343.8775,25.0075 C343.422498,25.3725018 343.195,25.9749958 343.195,26.815 L343.195,31 L341.485,31 L341.485,22.735 L343.195,22.735 L343.195,24.355 Z M348.445,22.735 L350.92,28.81 L353.215,22.735 L355.12,22.735 L350.125,34.93 L348.22,34.93 L350.005,30.805 L346.525,22.735 L348.445,22.735 Z" id="Let's-fund-issues-in" fill="#303136"></path>
            </g>
            <g id="logo" transform="translate(0.000000, 6.000000)">
                <path d="M25.3892374,34.8453523 C21.7673465,33.6839845 19.3045887,30.2707974 19.3045887,26.4117523 C19.3045887,22.550849 21.7701662,19.1362684 25.3892374,17.9782297 L25.3892374,13.5646297 C23.9703091,18.8449394 19.8066511,22.4645265 15.0762296,22.4645265 C13.4327907,22.4645265 11.8545101,22.0271071 10.4351246,21.2320103 C10.4954818,24.59712 11.3563344,27.8989006 12.9456652,30.8554684 C16.3986016,33.5319329 20.7114761,35.1219716 25.3892374,35.1239845 L25.3892374,34.8453523 Z" id="Fill-1" fill="#FFFFFF"></path>
                <path d="M10.4351627,21.2320258 C11.8545482,22.0271226 13.4328288,22.4645419 15.0762677,22.4645419 C19.8066892,22.4645419 23.970271,18.8449548 25.3892755,13.5645677 L25.3892755,7.20665806 C26.5725668,6.64652903 27.3817499,5.32869677 27.3817499,3.82196129 L27.380302,3.68810323 C27.380302,3.68810323 23.0795447,3.64389677 20.1099233,6.08988387 L19.5199162,6.08988387 C18.7189636,6.46947097 17.290814,7.13310968 16.3923906,8.19298065 C16.2750293,8.33225806 16.1654413,8.47796129 16.0678943,8.63047742 C15.9013784,8.89145806 15.6990445,9.12689032 15.4692755,9.33677419 C15.024141,9.74485161 14.4756675,10.0597161 13.8813165,10.2848516 C12.5574965,11.0362065 11.1805592,11.0288516 10.1652317,10.5526452 C8.82982805,10.2235355 7.92317409,9.37703226 8.29827292,8.04634839 C8.40740367,7.65785806 8.62612241,7.22771613 8.97569136,6.75739355 C9.20789902,6.444 9.37875875,6.23310968 9.50526506,6.08988387 L9.41693927,6.08988387 C6.11748702,3.64389677 1.33737747,3.68810323 1.33737747,3.68810323 L1.33448154,3.82196129 C1.33448154,5.64603871 2.65342415,7.19341935 4.43060919,7.4544 C4.88443153,7.65445161 5.32667016,7.87517419 5.75587711,8.11594839 C5.1900281,9.98709677 4.88633675,11.9283871 4.85257633,13.8843871 C5.82347416,17.1867097 7.86906597,19.7939613 10.4351627,21.2320258" id="Fill-3" fill="#FFFFFF"></path>
                <path d="M12.4628759,30.8554606 C10.8735451,27.8989703 10.0126925,24.5971123 9.95233532,21.2320026 C7.38631484,19.7939381 5.34064682,17.1866865 4.3698252,13.8843639 C4.36784377,14.0055252 4.36692927,14.126609 4.36692927,14.2477703 C4.36692927,21.0211123 7.54223768,27.0410865 12.4628759,30.8554606" id="Fill-5" fill="#2CC28C"></path>
                <path d="M8.93398238,6.1154212 L19.6269664,6.1154212" id="Stroke-7" stroke="#147853" stroke-linecap="round" stroke-linejoin="round"></path>
                <path d="M7.52579948,10.7733368 C7.11160562,10.9729239 6.75914075,11.2701368 6.49454442,11.6321497 C6.15031007,12.1024723 5.95094832,12.6866013 5.95094832,13.3085884 C5.95094832,14.0834787 6.26043153,14.7853626 6.759598,15.2924594 C7.25884068,15.7996335 7.94967183,16.1140335 8.71206287,16.1140335 C9.20879066,16.1140335 9.6829607,15.9820335 10.0904482,15.7442013 C10.3820224,15.5740335 10.6437228,15.3483561 10.8595456,15.0771561 C10.2676332,13.9363045 9.53664015,12.8808465 8.68836199,11.9352465 C8.32195094,11.527169 7.93382043,11.1392206 7.52579948,10.7733368 M5.66508978,9.99744 C5.79982663,9.86938839 5.94226054,9.74969806 6.09239152,9.63891097 C5.99339652,9.57016258 5.89394427,9.50249806 5.79357752,9.43630452 C5.74815718,9.62273032 5.70517552,9.80954323 5.66508978,9.99744 M24.0548397,34.2401497 L24.0548397,17.6849497 C23.3503672,18.8223174 22.5030798,19.8199432 21.5481095,20.6463948 C19.5816985,22.3483045 17.1633703,23.3297497 14.5934632,23.3297497 C13.3053089,23.3297497 12.0529726,23.0820852 10.8749397,22.6200465 C10.9749255,23.7549368 11.1699433,24.8800723 11.4577071,25.9826787 C11.8458376,27.4702142 12.4020081,28.9122271 13.1175308,30.2737239 C16.1914818,32.6127948 19.9611412,34.0606142 24.0548397,34.2401497 M24.4970021,6.44791742 C24.5298481,6.42980129 24.5641419,6.41362065 24.5994265,6.39929806 C24.9219414,6.23602065 25.2072665,5.99323355 25.4370355,5.69408516 C25.6741205,5.38464 25.8522963,5.01380129 25.9531203,4.60525935 C24.6027797,4.73470452 22.0715104,5.18691097 20.1624844,6.75883355 C19.7989693,7.05898839 19.2639848,7.00309161 18.9685239,6.63380129 C18.6730631,6.26443355 18.7281619,5.7210271 19.0916771,5.42087226 C22.303718,2.77529806 26.8844658,2.82291097 26.8974975,2.82291097 C27.3677047,2.82291097 27.7491288,3.21039484 27.7491288,3.68807226 L27.7472236,3.74497548 L27.7505768,3.82193032 C27.7505768,4.92894968 27.3850803,5.95847226 26.7744206,6.7554271 C26.4866568,7.13013677 26.1438704,7.45390452 25.7581024,7.70938839 L25.7581024,13.4071432 C25.7692289,13.48704 25.7696861,13.5694916 25.7581024,13.6524077 L25.7581024,34.2420852 C25.9053375,34.2357368 26.0502101,34.2279174 26.1925678,34.2185497 C26.629548,34.1900594 27.0534203,34.1478658 27.4623558,34.0939819 C27.9268473,34.0326658 28.3530822,34.3657239 28.4134394,34.8375174 C28.4737966,35.309311 28.1460233,35.7423948 27.6815318,35.803711 C27.2103339,35.8660335 26.7478238,35.9131045 26.2988026,35.9420594 C25.8232608,35.9734142 25.3617414,35.9895948 24.9170641,35.9895948 C19.0076952,35.9895948 13.6568593,33.5559174 9.78386092,29.6214658 C5.91086259,25.6868594 3.51524458,20.2510916 3.51524458,14.2477626 C3.51524458,13.1683045 3.59533984,12.0877626 3.75324411,11.0175948 L3.75812146,10.9891045 C3.87975042,10.1715561 4.04870493,9.35780129 4.26452774,8.55248516 C4.08353227,8.46174968 3.90047916,8.37449806 3.7151398,8.29104 C2.66452774,8.10964645 1.74971946,7.56128516 1.09112455,6.7882529 C0.408447726,5.98734968 4.57251727e-05,4.94567226 4.57251727e-05,3.82193032 C4.57251727e-05,3.79398194 0.0019509407,3.76657548 0.00438961658,3.73909161 L0.00294165277,3.68807226 C0.00294165277,3.63798194 0.00675208383,3.58897548 0.0154398666,3.54144 L0.0164305787,3.53501419 L0.0188692546,3.51984 L0.0203172184,3.51395613 C0.0927154084,3.10487226 0.448990712,2.79744 0.871491307,2.80572387 C0.927428435,2.80673032 0.982527268,2.81354323 1.03556847,2.82484645 C1.96592332,2.84497548 6.29228673,3.06569806 9.43284401,5.39393032 C9.81091498,5.67349161 9.89443963,6.21248516 9.6192503,6.59656258 C9.34398476,6.98056258 8.81342034,7.06541419 8.43542558,6.7858529 C6.23673065,5.15555613 3.29995523,4.71558194 1.80954322,4.59689806 C1.92103644,4.99367226 2.11613051,5.35614968 2.37531603,5.6602529 C2.79636866,6.15411097 3.38828102,6.49986581 4.06760467,6.5994271 C4.16751417,6.61367226 4.26117457,6.64556903 4.34561372,6.69116903 C4.79029102,6.88936258 5.22384187,7.10613677 5.645809,7.34056258 C5.67042439,7.35279484 5.69458252,7.36611097 5.71774994,7.38082065 L5.72163658,7.38322065 C7.3138633,8.27880774 8.73858347,9.42701419 9.94557561,10.7728723 C11.0381786,11.9901368 11.9554256,13.3717626 12.661346,14.8765626 C13.7056328,12.7071948 15.1023082,10.8797884 16.7327154,9.49568516 C18.8671665,7.68337548 21.4066663,6.6274529 24.0886001,6.54894968 C24.1272379,6.54794323 24.1653422,6.54941419 24.2029893,6.55336258 C24.3034322,6.52541419 24.4018938,6.49011097 24.4970021,6.44791742 M19.8752541,9.42306581 C21.132925,8.75749161 22.485247,8.36319484 23.8810079,8.28376258 C23.9370212,8.29994323 23.995397,8.31024 24.0548397,8.3146529 L24.0548397,13.4522787 C23.3813079,15.8736465 22.0956685,17.9056723 20.4434656,19.33584 C18.7845563,20.7714271 16.7496337,21.5993497 14.5934632,21.5993497 C12.5599124,21.5993497 10.6268045,20.8612335 9.01666873,19.5634529 C8.30602334,18.9905497 7.65718314,18.3098013 7.0884382,17.534911 C7.59194856,17.7344981 8.13943129,17.8443561 8.71206287,17.8443561 C9.50089831,17.8443561 10.2661853,17.6281239 10.935297,17.2371561 C11.172382,17.0988852 11.3968164,16.9384723 11.6059328,16.7574658 C11.6865616,16.973311 11.7628464,17.1915561 11.8337966,17.4122787 L11.8366925,17.4196335 L11.8410364,17.4333368 L11.8434751,17.4392206 C11.85986,17.4858271 11.8796742,17.5304981 11.9032989,17.5721497 L11.9134346,17.5893368 L11.9139681,17.5908077 L11.9241038,17.6069884 L11.9250183,17.6089239 L11.969448,17.6731819 L11.9708959,17.6751174 L11.9733346,17.6781368 L11.9737919,17.6790658 L11.9969593,17.7074787 L11.999398,17.7109626 L12.0105244,17.7232723 L12.0134203,17.7266787 L12.0244706,17.7384465 L12.0273665,17.7418529 L12.038493,17.7536206 L12.0419224,17.7565626 L12.0535061,17.7683303 L12.056402,17.7712723 L12.068443,17.7825755 L12.0713389,17.7855174 L12.0839133,17.7968206 L12.0868092,17.7992206 L12.0998409,17.8105239 L12.1027368,17.8124594 L12.1157685,17.8237626 L12.1186644,17.8257755 C12.1606554,17.8600723 12.2069902,17.8890271 12.256221,17.9144981 L12.2582024,17.915969 C12.2900576,17.9326916 12.3229035,17.9474013 12.3576547,17.9596335 C12.7998933,18.1195045 13.2874761,17.8850787 13.4448469,17.4358142 C13.6147921,16.951711 13.8026463,16.4823174 14.0068854,16.0291819 C14.3728392,16.5240465 14.8329107,16.9335948 15.3524249,17.2371561 C16.0215366,17.6281239 16.7867473,17.8443561 17.5757352,17.8443561 C18.8078,17.8443561 19.9244849,17.3362529 20.7322201,16.5156852 C21.5399552,15.6951174 22.0401124,14.5606916 22.0401124,13.3085884 C22.0401124,12.3114271 21.7161496,11.3696981 21.1565497,10.6051045 C20.8118581,10.13424 20.37785,9.73111742 19.8752541,9.42306581 M14.8531822,14.3943948 C14.9883763,14.4674787 15.1056613,14.5783432 15.1882715,14.72304 C15.4359495,15.1551948 15.7868902,15.5043561 16.1973498,15.7442013 C16.6047611,15.9820335 17.078855,16.1140335 17.5757352,16.1140335 C18.33805,16.1140335 19.0288812,15.7996335 19.5281238,15.2924594 C20.0272903,14.7853626 20.3367735,14.0834787 20.3367735,13.3085884 C20.3367735,12.6866013 20.1374118,12.1024723 19.7931774,11.6321497 C19.4489431,11.1622916 18.9570164,10.7998142 18.3728011,10.6212852 C18.3017747,10.5996852 18.2356256,10.5698013 18.1753446,10.5324852 C18.0565354,10.6256981 17.9397075,10.7217755 17.8238704,10.8199432 C16.6930869,11.7797884 15.6869807,12.9852852 14.8531822,14.3943948 M10.1078238,27.4432723 C10.0020462,27.1048723 9.90358466,26.7644594 9.81426816,26.422111 C9.41691641,24.9002013 9.18181281,23.3292077 9.11810241,21.7376981 C8.71831198,21.4899561 8.33162944,21.2152723 7.95935032,20.9151948 C7.10672827,20.2280981 6.33138176,19.4069884 5.65838342,18.4721497 C6.37527792,21.8607948 7.93717361,24.931169 10.1078238,27.4432723" id="Fill-9" fill="#147853"></path>
                <path d="M15.3758057,4.52637677 C15.3433408,4.95481548 15.3332813,5.36389935 15.3211641,5.72320258 L15.5104663,5.71546065 C17.6171774,5.61380903 18.9861891,4.74733161 19.4638647,4.39205419 C19.6617023,5.23909935 19.5704806,5.69045419 19.6463082,5.81355097 C19.6742005,5.85915097 19.5617928,5.94106065 19.3577061,6.06229935 C18.6930907,6.45605419 17.0557485,7.26090581 16.1158676,8.55071226 C9.51292403,9.14436387 8.61533889,7.6716929 8.61533889,7.6716929 C8.832,7.33073806 9.10863729,6.96586065 9.45294784,6.57706065 C9.45294784,6.57706065 9.44753703,5.98426065 9.57846344,5.19597677 C9.57846344,5.19597677 10.6818881,5.41422194 12.1280991,5.57231226 C12.1088945,5.72072516 12.0925096,5.87324129 12.0787159,6.0308671 C12.0928145,5.87316387 12.1104187,5.72080258 12.1304615,5.57262194 C12.1918095,5.11669935 12.2781538,4.70304774 12.3844649,4.32787355 C12.3814165,4.32725419 12.3783682,4.32702194 12.3753198,4.32640258 C11.261607,4.1588671 10.3367392,3.93450581 9.92612717,3.82789935 C10.1195447,3.2892929 10.3916094,2.75602839 10.7747864,2.31915097 C10.7865225,2.30598968 10.7984873,2.29275097 10.8105282,2.27958968 C11.0056985,2.33316387 12.0525763,2.47313806 13.1493708,2.61698323 C14.3518666,0.807460645 16.1369774,0.687770323 16.5036171,0.703176774 C16.5096375,0.70371871 16.5152008,0.703873548 16.5203829,0.704105806 C16.5359295,0.707357419 16.551095,0.71091871 16.5665654,0.714092903 C16.7443601,0.753809032 16.9162867,0.804363871 17.0806687,0.866454194 C16.771719,1.05636387 16.5187826,1.28862194 16.3110379,1.55115097 C15.9865416,1.96162839 15.7731574,2.44480258 15.6307997,2.9516671 L15.9935528,2.93958968 C17.0940814,2.88415742 17.9113427,2.48955097 18.4919,2.05584774 C18.730814,2.47352516 18.9176013,2.85342194 19.0640743,3.19677677 C18.6677895,3.56614452 17.5338814,4.42255742 15.4564344,4.5228929 L15.3758057,4.52637677 Z M8.03241915,9.00810581 C7.41261443,12.0368284 13.002593,12.1769574 15.2781062,9.76015742 C10.0392208,10.2158477 8.45080448,9.35664774 8.03241915,9.00810581 Z" id="Fill-11" fill="#FFFFFF"></path>
                <path d="M16.5203906,0.704136774 C14.5195332,0.280962581 11.8007145,1.20271742 10.8105358,2.27954323 C11.1794618,2.38073032 14.5928459,2.79167226 15.6308073,2.95162065 C15.7519028,2.94968516 15.8731508,2.94565935 15.9935604,2.93962065 C17.0940891,2.88411097 17.9112741,2.48958194 18.4919076,2.05580129 C18.47819,2.03195613 18.4645487,2.00811097 18.4505263,1.98426581 C18.1375375,1.44457548 17.6555942,1.08418839 17.0806764,0.866407742 C16.7717266,1.05631742 16.5187902,1.2886529 16.3110455,1.55118194 C16.5337271,0.824523871 16.2917647,0.690123871 16.5203906,0.704136774 M8.03242677,9.00805935 C8.4508121,9.35660129 10.0392284,10.2158013 15.2781138,9.76018839 C15.4918028,9.53304 15.6766849,9.28328516 15.82392,9.01115613 C15.9104168,8.85128516 16.0087259,8.69784 16.1158752,8.55074323 C9.51293165,9.14439484 8.61534651,7.67172387 8.61534651,7.67172387 C8.30060491,8.1670529 8.11366516,8.61213677 8.03242677,9.00805935 M9.92613479,3.82793032 C9.75710407,4.29933677 9.64850679,4.77546581 9.57847106,5.19600774 C9.57847106,5.19600774 10.6818957,5.4142529 12.1281067,5.57226581 C13.1138652,5.68026581 14.2586711,5.7598529 15.3211717,5.72323355 C15.3848059,5.72122065 15.4478304,5.71835613 15.5104739,5.71549161 C17.617185,5.61384 18.9861205,4.74736258 19.4638724,4.39208516 C19.3854537,4.05709161 19.261386,3.66016258 19.0640819,3.19680774 C18.6677971,3.56617548 17.533889,4.42251097 15.456442,4.52292387 C15.4294642,4.52416258 15.4028673,4.52540129 15.3758133,4.52640774 C14.3702405,4.56728516 13.306673,4.46648516 12.3753275,4.32643355 C11.2616147,4.15889806 10.3367468,3.93453677 9.92613479,3.82793032" id="Fill-13" fill="#2CC28C"></path>
                <path d="M14.946393,8.26360258 C12.8404439,8.2488929 10.7238257,7.7888671 9.76740748,7.55095742 C9.19675732,8.34411871 9.09440915,9.04298323 9.29720029,9.56928 C9.44108216,9.94298323 9.74332555,10.2509574 10.1373241,10.4540284 C10.5736947,10.6786219 11.1197295,10.7777961 11.702954,10.7095897 C12.80615,10.580609 14.0256404,9.85271226 14.946393,8.26360258 Z M17.411056,2.24115097 C16.9200438,2.68801548 16.6738138,3.25743484 16.5801534,3.83962839 C16.44595,4.67591226 16.5927278,5.53371871 16.7896509,6.16097032 C17.3516894,5.90300903 17.887055,5.68871226 18.3244925,5.51405419 L18.8034637,5.32081548 C18.8208392,4.94417032 18.7551474,4.22610581 17.934914,2.81211871 L17.9362858,2.81111226 L17.934914,2.80871226 C17.8170955,2.60509935 17.6601819,2.43198968 17.4762143,2.28977032 L17.411056,2.24115097 Z M11.9076504,6.23993806 C12.1828397,4.00445419 13.0900271,2.67725419 14.0865311,1.89291871 C13.5399628,2.02437677 13.025326,2.22798968 12.6000057,2.4824671 C12.282292,2.67229935 12.022573,2.8880671 11.8521705,3.11568 C11.1072312,4.1088929 10.691056,5.22860903 10.4800343,5.94961548 C10.8590198,6.03833806 11.3504892,6.14331871 11.9076504,6.23993806 Z M14.9850307,1.74682839 C13.8180481,2.38143484 12.5903272,3.67774452 12.2707083,6.30078968 C13.1484792,6.43913806 14.1551188,6.54597677 15.1380576,6.5376929 C14.8961715,5.69653161 14.734914,4.61312516 14.9038685,3.56300903 C15.0067502,2.92445419 15.2234875,2.29464774 15.6030064,1.72770581 C15.4615632,1.72375742 15.3181386,1.7256929 15.1737233,1.73351226 L14.9850307,1.74682839 Z M8.66718362,6.17916387 C8.82120124,5.49640258 9.32227292,3.64097032 10.5022872,2.06804129 C10.8068931,1.66197677 11.2356428,1.29802839 11.7415918,0.995396129 C12.6666121,0.441692903 13.8900653,0.0733316129 15.0869216,0.01008 C15.967055,-0.0369909677 16.8476456,0.0792154839 17.6133136,0.401434839 C17.6606392,0.417615484 17.7065168,0.437744516 17.7509464,0.462286452 C18.0208011,0.586389677 18.274271,0.737899355 18.5074694,0.91844129 C18.8574956,1.18964129 19.1607297,1.52657032 19.3972813,1.93418323 L19.3987292,1.93317677 C20.5936804,3.99260903 20.5342377,5.07949935 20.4859976,5.59789935 C20.6361286,6.0128671 20.4667168,6.35869935 20.0210488,6.6416671 C19.9954427,6.65784774 19.9693794,6.67255742 19.9428588,6.68533161 C19.7140043,6.81431226 19.3726659,6.95165419 18.9434589,7.12282839 C18.383859,7.34595097 17.657286,7.63681548 16.9837542,7.97281548 C15.7589293,10.9116542 13.7317037,12.2119123 11.8960667,12.426209 C10.9753903,12.5341316 10.095257,12.3673703 9.3724944,11.9950606 C8.60827435,11.6016929 8.01392332,10.9773832 7.71358514,10.1980026 C7.2747759,9.06017032 7.46209669,7.6328671 8.66718362,6.17916387 Z" id="Fill-15" fill="#147853"></path>
                <path d="M13.8920848,7.35656516 C13.8920848,7.35656516 15.8487411,7.5627329 19.3577671,6.06226839" id="Stroke-17" stroke="#147853" stroke-linecap="round" stroke-linejoin="round"></path>
                <path d="M15.0047383,9.55100129 C17.6542834,8.51187871 20.631678,9.85177548 21.6545501,12.5434142 C22.677346,15.2350529 21.3584796,18.2598271 18.7088583,19.2988723 C16.0593132,20.3379174 13.0819186,18.9980981 12.0591226,16.3064594 C11.0362505,13.6147432 12.3551169,10.5900465 15.0047383,9.55100129" id="Fill-19" fill="#FFFFFF"></path>
                <polygon id="Fill-21" fill="#2CC28C" points="17.1414451 19.27416 17.744865 20.8616439 18.150371 20.7025471 19.9259557 20.0063148 20.3318428 19.8472955 19.7283467 18.2597342"></polygon>
                <path d="M18.3360762,11.0332723 C17.4815489,10.6487303 16.4821491,10.595311 15.5431827,10.9631303 L15.5416585,10.9636723 C14.6021586,11.3319561 13.8967716,12.053969 13.5187769,12.9216077 C13.1441353,13.7803432 13.0885792,14.7838529 13.4371574,15.7289884 C13.4468359,15.7495819 13.4550664,15.77064 13.4613156,15.7927819 C13.8277266,16.7310271 14.5321229,17.4363174 15.3770479,17.8159045 C16.2224301,18.1964981 17.2102462,18.2529368 18.1406011,17.8982787 C18.1603391,17.8889884 18.1806106,17.8807045 18.2018728,17.8742787 C19.1264358,17.502511 19.8211536,16.7869239 20.1953379,15.9276465 C20.5724182,15.0624852 20.6255356,14.0501497 20.2677361,13.0991303 L20.2634684,13.0873626 C19.9008678,12.1334013 19.1901462,11.4172723 18.3360762,11.0332723 Z M15.2466549,10.1548723 C16.4029683,9.70506581 17.630232,9.77079484 18.6788626,10.2426658 C19.7313799,10.7164723 20.6076266,11.5988206 21.0551998,12.776369 L21.0561143,12.7788465 C21.5032303,13.9564723 21.4395199,15.2076465 20.9735804,16.2758787 C20.7147759,16.8688335 20.3329707,17.4068981 19.8458452,17.8458658 C19.9689221,17.8816335 20.0746235,17.97384 20.1243877,18.1042916 L20.7230064,19.6807045 L20.7273503,19.6919303 C20.8118657,19.9136594 20.7027349,20.1638013 20.4845497,20.2495819 L17.9088507,21.25944 L17.8977242,21.2639303 C17.6794627,21.349711 17.4332327,21.2389239 17.3487935,21.0171174 L16.7500986,19.4408594 L16.7457547,19.4295561 C16.6882934,19.2789755 16.7201486,19.1146916 16.815257,18.9984077 C16.1963668,18.9930658 15.5899748,18.8566529 15.0342615,18.6065884 C13.981287,18.1327819 13.104964,17.249969 12.657467,16.0722658 L12.6525897,16.0591045 C12.2108845,14.8844206 12.2760429,13.6381239 12.7405344,12.5733755 C13.206855,11.5036723 14.0759381,10.6138916 15.2355285,10.1592852 L15.2466549,10.1548723 Z M17.9880314,20.3040852 L19.7825158,19.6002658 L19.4851498,18.8174013 L17.6905892,19.5212206 L17.9880314,20.3040852 Z" id="Fill-23" fill="#147853"></path>
                <path d="M16.5846116,12.4909703 C17.6000152,12.5396671 18.3838971,13.4148929 18.3359619,14.446351 C18.2880267,15.4778865 17.4264882,16.2742219 16.4110845,16.2255252 C15.3957571,16.1768284 14.6118752,15.3016026 14.6598104,14.2700671 C14.7077457,13.238609 15.5692841,12.4422735 16.5846116,12.4909703" id="Fill-25" fill="#2CC28C"></path>
                <path d="M16.5407459,13.4356103 C17.0424272,13.4596877 17.4297195,13.8921523 17.4060186,14.4018039 C17.3823939,14.9114555 16.9566925,15.3049781 16.4550112,15.2808232 C15.9533298,15.2568232 15.5659614,14.8243587 15.5897385,14.3147071 C15.6133632,13.8050555 16.0390645,13.4115329 16.5407459,13.4356103" id="Fill-27" fill="#147853"></path>
                <path d="M17.0160819,13.4584103 C17.2552246,13.4698684 17.4398019,13.6760361 17.428523,13.9189006 C17.4172441,14.1617652 17.2143768,14.3492748 16.9752341,14.3378168 C16.7361677,14.3263587 16.5515142,14.1202684 16.562793,13.8774039 C16.5740719,13.6344619 16.7770155,13.4469523 17.0160819,13.4584103" id="Fill-29" fill="#FFFFFF"></path>
                <polygon id="Fill-31" fill="#FFFFFF" points="18.1503558 20.7025626 20.6820062 27.3648077 22.4575909 26.6685755 19.9259405 20.0063303"></polygon>
                <path d="M19.5614041,20.8425832 L18.9739119,21.0731381 L21.0464815,26.5284929 L21.6345835,26.2985574 L19.5614041,20.8425832 Z M17.9213184,20.0995123 L19.6965982,19.4030477 C20.0244477,19.274609 20.3932975,19.4403639 20.5198038,19.7733445 L23.0515304,26.4358219 C23.1780367,26.76888 23.014874,27.1436671 22.6870245,27.2721058 L20.9112874,27.9681058 C20.5835142,28.0965445 20.2146644,27.9307897 20.0881581,27.597809 L17.5568888,20.9357961 C17.4303825,20.6027381 17.5935451,20.2281058 17.9213184,20.0995123 Z" id="Fill-33" fill="#147853"></path>
                <path d="M14.2015121,15.4840045 L14.2088407,15.5027759 L14.2015121,15.4840045 Z M15.8653598,11.7268743 L15.845817,11.7342029 L15.8465884,11.7342029 L15.8653598,11.7268743 Z M18.0188807,11.7615948 C17.351217,11.46144 16.5700024,11.4187819 15.8351989,11.7027561 L15.8086783,11.7130529 C15.0782186,12.0039174 14.5302024,12.5679174 14.2352751,13.2443303 C13.939738,13.9226013 13.8972898,14.7156852 14.1768231,15.4621626 L14.1869588,15.4891819 C14.4737318,16.2321755 15.0289879,16.7883561 15.6946702,17.0880465 C16.3657633,17.3896723 17.1513217,17.4324077 17.8894784,17.1425497 C18.6277114,16.8526142 19.1814432,16.2862142 19.478352,15.6049239 C19.7752608,14.923169 19.8167945,14.1256723 19.5324601,13.375711 C19.247135,12.6258271 18.6895166,12.0632981 18.0188807,11.7615948 Z M15.7019862,11.3559948 C16.5323553,11.03424 17.4134794,11.0818529 18.1666492,11.4202529 C18.9231722,11.7605884 19.5527316,12.3952723 19.8742558,13.241311 C20.1953227,14.0878916 20.1489879,14.9868852 19.814432,15.75504 C19.4793427,16.5235045 18.8545844,17.1631432 18.0217766,17.4897755 C17.1885116,17.8169497 16.3030436,17.7693368 15.5469779,17.4294658 C14.7904549,17.0890529 14.1604382,16.454911 13.8393713,15.6083303 L13.8354846,15.597569 C13.5187616,14.7539303 13.5660872,13.8593497 13.899195,13.0942142 C14.2342844,12.3256723 14.8590426,11.686111 15.691317,11.3599432 L15.7019862,11.3559948 Z" id="Fill-35" fill="#CCCCCC"></path>
                <path d="M18.8217919,26.4117832 C18.8217919,30.2708284 20.4328421,33.078209 24.0548092,34.2401187 L24.0548092,18.3014865 C20.435738,19.4589832 18.8217919,22.55088 18.8217919,26.4117832" id="Fill-37" fill="#2CC28C"></path>
                <path d="M25.1623263,34.0208826 C25.6103568,34.1641858 25.8590255,34.6501471 25.7180395,35.1053729 C25.5770536,35.5605213 25.0986159,35.8130632 24.6505854,35.6698374 C22.6648173,35.0332181 20.9944006,33.7767019 19.8207116,32.1502761 C18.6470226,30.5233858 17.9701377,28.5272052 17.9701377,26.4117987 C17.9701377,24.2954632 18.6480133,22.2988181 19.8226168,20.6709213 C20.9963058,19.0450374 22.6696947,17.7884439 24.6597304,17.1518245 C25.1077609,17.0100697 25.5847507,17.26416 25.7242886,17.7193084 C25.8638266,18.1744568 25.6137099,18.6590245 25.1656794,18.8007794 C23.5314618,19.3235923 22.1568869,20.3555148 21.1927716,21.6910761 C20.2291136,23.0260955 19.6734765,24.66816 19.6734765,26.4117987 C19.6734765,28.1548955 20.2286563,29.7965729 21.1908664,31.1300439 C22.1535337,32.4645987 23.5271179,33.4966761 25.1623263,34.0208826" id="Fill-39" fill="#147853"></path>
                <path d="M7.28535366,14.3105574 C7.09269826,14.1756929 7.0444582,13.9068929 7.17721362,13.7112542 C7.32254346,13.4974219 7.50506311,13.3267123 7.7083115,13.2089574 C7.92078114,13.0848542 8.15679924,13.0181961 8.39921886,13.0181961 C8.65025006,13.0181961 8.89358419,13.089809 9.11222672,13.2212671 L9.14027149,13.2398477 C9.33681353,13.3644929 9.51300786,13.5405445 9.65109788,13.7573187 C9.77851869,13.9569832 9.72303882,14.2242348 9.52657299,14.3537574 C9.33003096,14.4832026 9.06688259,14.4267639 8.93938557,14.2271768 C8.87087402,14.1197961 8.78734937,14.0334735 8.69757561,13.9746348 L8.6797428,13.9648026 C8.59233151,13.9123123 8.49623244,13.8833574 8.39921886,13.8833574 C8.30555847,13.8833574 8.21281257,13.9098348 8.12982139,13.9579123 L8.12936413,13.9574477 L8.12837342,13.9579123 C8.03471303,14.0118735 7.94730174,14.0947897 7.8753608,14.2006994 C7.74260538,14.3964155 7.47800905,14.4454219 7.28535366,14.3105574 Z" id="Fill-41" fill="#147853"></path>
            </g>
        </g>
    </g>
</svg>
