<?xml version="1.0" encoding="UTF-8"?>
<svg width="155px" height="20px" viewBox="0 0 155 20" version="1.1" xmlns="http://www.w3.org/2000/svg" xmlns:xlink="http://www.w3.org/1999/xlink">
    <defs>
        <rect id="path-1" x="0" y="0" width="155" height="20" rx="3"></rect>
        <path d="M5.27978516,7.96792969 C5.27978516,8.51578399 5.0533063,8.96516101 4.6003418,9.31607422 C4.14737729,9.66698743 3.52881251,9.84244141 2.74462891,9.84244141 C2.30061627,9.84244141 1.8933124,9.78962618 1.52270508,9.68399414 C1.15209776,9.5783621 0.841472607,9.46288474 0.590820312,9.33755859 L0.590820312,8.20425781 L0.64453125,8.20425781 C0.963217739,8.44416787 1.31770638,8.63483979 1.70800781,8.7762793 C2.09830924,8.91771881 2.4724917,8.9884375 2.83056641,8.9884375 C3.27457904,8.9884375 3.6219063,8.91682363 3.87255859,8.77359375 C4.12321089,8.63036387 4.24853516,8.40478019 4.24853516,8.09683594 C4.24853516,7.86050663 4.18050198,7.68147196 4.04443359,7.55972656 C3.90836521,7.43798116 3.64697459,7.33414105 3.26025391,7.24820313 C3.11702402,7.2159764 2.9299328,7.17837912 2.69897461,7.13541016 C2.46801642,7.09244119 2.25765069,7.04589218 2.06787109,6.99576172 C1.54150127,6.85611258 1.16821399,6.65111789 0.947998047,6.38077148 C0.727782102,6.11042508 0.617675781,5.77831577 0.617675781,5.38443359 C0.617675781,5.13736205 0.668700662,4.90461698 0.770751953,4.68619141 C0.872803245,4.46776583 1.02766823,4.27261805 1.23535156,4.10074219 C1.4358734,3.93244708 1.6909978,3.79906625 2.00073242,3.7005957 C2.31046704,3.60212516 2.65689913,3.55289063 3.04003906,3.55289063 C3.39811377,3.55289063 3.76065897,3.59675412 4.12768555,3.68448242 C4.49471212,3.77221073 4.79996623,3.87873635 5.04345703,4.0040625 L5.04345703,5.08365234 L4.98974609,5.08365234 C4.7319323,4.89387275 4.41862164,4.73363672 4.04980469,4.60293945 C3.68098774,4.47224219 3.31933771,4.40689453 2.96484375,4.40689453 C2.5960268,4.40689453 2.28450648,4.47761323 2.03027344,4.61905273 C1.7760404,4.76049224 1.64892578,4.97085798 1.64892578,5.25015625 C1.64892578,5.4972278 1.72591069,5.68342385 1.87988281,5.80875 C2.03027419,5.93407615 2.27376134,6.03612591 2.61035156,6.11490234 C2.79655041,6.15787131 3.0051258,6.20083963 3.23608398,6.24380859 C3.46704217,6.28677756 3.65950444,6.32616519 3.81347656,6.36197266 C4.28255443,6.46939507 4.64420446,6.65380078 4.8984375,6.91519531 C5.15267054,7.1801706 5.27978516,7.53107854 5.27978516,7.96792969 Z M11.6982422,9.69742188 L10.6884766,9.69742188 L10.6884766,9.03140625 C10.3483056,9.29996228 10.0224625,9.50585215 9.7109375,9.64908203 C9.3994125,9.79231191 9.05566594,9.86392578 8.6796875,9.86392578 C8.04947602,9.86392578 7.55892103,9.67146351 7.20800781,9.2865332 C6.8570946,8.90160289 6.68164062,8.33674852 6.68164062,7.59195313 L6.68164062,3.69791016 L7.69140625,3.69791016 L7.69140625,7.11392578 C7.69140625,7.41828928 7.70572902,7.67878472 7.734375,7.89541992 C7.76302098,8.11205512 7.82389276,8.297356 7.91699219,8.45132813 C8.01367236,8.608881 8.13899663,8.72346318 8.29296875,8.79507813 C8.44694087,8.86669307 8.67073421,8.9025 8.96435547,8.9025 C9.22575,8.9025 9.5113103,8.83446683 9.82104492,8.69839844 C10.1307795,8.56233005 10.4199205,8.38866642 10.6884766,8.17740234 L10.6884766,3.69791016 L11.6982422,3.69791016 L11.6982422,9.69742188 Z M18.965332,6.62515625 C18.965332,7.11213785 18.8955085,7.557039 18.7558594,7.95987305 C18.6162102,8.36270709 18.4192721,8.70376813 18.1650391,8.98306641 C17.9287098,9.24804169 17.6503108,9.45303638 17.329834,9.59805664 C17.0093571,9.7430769 16.6700864,9.81558594 16.3120117,9.81558594 C16.0004867,9.81558594 15.7185071,9.78156935 15.4660645,9.71353516 C15.2136218,9.64550096 14.956707,9.53987051 14.6953125,9.39664063 L14.6953125,11.9103125 L13.6855469,11.9103125 L13.6855469,3.69791016 L14.6953125,3.69791016 L14.6953125,4.32632813 C14.9638685,4.10074106 15.2655419,3.91185948 15.6003418,3.75967773 C15.9351416,3.60749598 16.2923158,3.53140625 16.671875,3.53140625 C17.3951859,3.53140625 17.9582499,3.80443412 18.361084,4.35049805 C18.763918,4.89656198 18.965332,5.65477379 18.965332,6.62515625 Z M17.9233398,6.65201172 C17.9233398,5.92870081 17.7998059,5.38801611 17.5527344,5.02994141 C17.3056628,4.6718667 16.9261093,4.49283203 16.4140625,4.49283203 C16.124022,4.49283203 15.8321955,4.55549417 15.5385742,4.68082031 C15.244953,4.80614646 14.9638685,4.97085835 14.6953125,5.17496094 L14.6953125,8.57486328 C14.9817723,8.70377018 15.2279449,8.79149716 15.4338379,8.83804688 C15.6397308,8.88459659 15.8733711,8.90787109 16.1347656,8.90787109 C16.6969429,8.90787109 17.1355779,8.71809435 17.4506836,8.33853516 C17.7657893,7.95897597 17.9233398,7.39680711 17.9233398,6.65201172 Z M25.8188477,6.62515625 C25.8188477,7.11213785 25.7490241,7.557039 25.609375,7.95987305 C25.4697259,8.36270709 25.2727877,8.70376813 25.0185547,8.98306641 C24.7822254,9.24804169 24.5038265,9.45303638 24.1833496,9.59805664 C23.8628727,9.7430769 23.5236021,9.81558594 23.1655273,9.81558594 C22.8540023,9.81558594 22.5720227,9.78156935 22.3195801,9.71353516 C22.0671374,9.64550096 21.8102227,9.53987051 21.5488281,9.39664063 L21.5488281,11.9103125 L20.5390625,11.9103125 L20.5390625,3.69791016 L21.5488281,3.69791016 L21.5488281,4.32632813 C21.8173842,4.10074106 22.1190576,3.91185948 22.4538574,3.75967773 C22.7886573,3.60749598 23.1458314,3.53140625 23.5253906,3.53140625 C24.2487015,3.53140625 24.8117656,3.80443412 25.2145996,4.35049805 C25.6174337,4.89656198 25.8188477,5.65477379 25.8188477,6.62515625 Z M24.7768555,6.65201172 C24.7768555,5.92870081 24.6533215,5.38801611 24.40625,5.02994141 C24.1591785,4.6718667 23.779625,4.49283203 23.2675781,4.49283203 C22.9775376,4.49283203 22.6857111,4.55549417 22.3920898,4.68082031 C22.0984686,4.80614646 21.8173842,4.97085835 21.5488281,5.17496094 L21.5488281,8.57486328 C21.8352879,8.70377018 22.0814606,8.79149716 22.2873535,8.83804688 C22.4932465,8.88459659 22.7268867,8.90787109 22.9882812,8.90787109 C23.5504585,8.90787109 23.9890935,8.71809435 24.3041992,8.33853516 C24.619305,7.95897597 24.7768555,7.39680711 24.7768555,6.65201172 Z M32.5058594,6.70035156 C32.5058594,7.67789551 32.2552108,8.44953493 31.7539062,9.01529297 C31.2526017,9.58105101 30.5812217,9.86392578 29.7397461,9.86392578 C28.891109,9.86392578 28.2170435,9.58105101 27.7175293,9.01529297 C27.2180151,8.44953493 26.9682617,7.67789551 26.9682617,6.70035156 C26.9682617,5.72280761 27.2180151,4.95027302 27.7175293,4.38272461 C28.2170435,3.8151762 28.891109,3.53140625 29.7397461,3.53140625 C30.5812217,3.53140625 31.2526017,3.8151762 31.7539062,4.38272461 C32.2552108,4.95027302 32.5058594,5.72280761 32.5058594,6.70035156 Z M31.4638672,6.70035156 C31.4638672,5.92332945 31.3116877,5.34594264 31.0073242,4.96817383 C30.7029607,4.59040501 30.2804389,4.40152344 29.7397461,4.40152344 C29.1918918,4.40152344 28.7666845,4.59040501 28.4641113,4.96817383 C28.1615382,5.34594264 28.0102539,5.92332945 28.0102539,6.70035156 C28.0102539,7.45230845 28.1624334,8.02253386 28.4667969,8.41104492 C28.7711604,8.79955598 29.1954725,8.99380859 29.7397461,8.99380859 C30.2768582,8.99380859 30.6984848,8.80134633 31.0046387,8.41641602 C31.3107925,8.03148571 31.4638672,7.45946994 31.4638672,6.70035156 Z M37.8125,4.79898438 L37.7587891,4.79898438 C37.6083977,4.7631769 37.4624844,4.73721688 37.3210449,4.72110352 C37.1796054,4.70499015 37.012208,4.69693359 36.8188477,4.69693359 C36.5073227,4.69693359 36.2065444,4.76586194 35.9165039,4.9037207 C35.6264634,5.04157947 35.3471693,5.21971896 35.0786133,5.43814453 L35.0786133,9.69742188 L34.0688477,9.69742188 L34.0688477,3.69791016 L35.0786133,3.69791016 L35.0786133,4.58414063 C35.479657,4.26187339 35.8332504,4.03360419 36.1394043,3.89932617 C36.4455582,3.76504816 36.7579737,3.69791016 37.0766602,3.69791016 C37.2521168,3.69791016 37.3792314,3.70238602 37.4580078,3.71133789 C37.5367842,3.72028976 37.6549471,3.73729805 37.8125,3.76236328 L37.8125,4.79898438 Z M41.878418,9.64371094 C41.6886384,9.6938414 41.4818533,9.73501937 41.2580566,9.76724609 C41.0342599,9.79947282 40.8346363,9.81558594 40.6591797,9.81558594 C40.0468719,9.81558594 39.5813818,9.65087404 39.2626953,9.32144531 C38.9440088,8.99201658 38.784668,8.46386431 38.784668,7.73697266 L38.784668,4.54654297 L38.1025391,4.54654297 L38.1025391,3.69791016 L38.784668,3.69791016 L38.784668,1.97378906 L39.7944336,1.97378906 L39.7944336,3.69791016 L41.878418,3.69791016 L41.878418,4.54654297 L39.7944336,4.54654297 L39.7944336,7.28042969 C39.7944336,7.59553543 39.801595,7.8417081 39.815918,8.01895508 C39.830241,8.19620206 39.8803707,8.36180913 39.9663086,8.51578125 C40.045085,8.65901113 40.153401,8.76374641 40.2912598,8.82999023 C40.4291185,8.89623406 40.6394843,8.92935547 40.9223633,8.92935547 C41.0870776,8.92935547 41.2589509,8.90518579 41.4379883,8.8568457 C41.6170256,8.80850562 41.7459306,8.76822282 41.824707,8.73599609 L41.878418,8.73599609 L41.878418,9.64371094 Z M48.1196289,6.80240234 L43.6992188,6.80240234 C43.6992188,7.17121929 43.7547195,7.49258652 43.8657227,7.76651367 C43.9767258,8.04044082 44.1289053,8.26512933 44.3222656,8.44058594 C44.5084645,8.6124618 44.7295723,8.74136676 44.9855957,8.82730469 C45.2416191,8.91324262 45.5235987,8.95621094 45.831543,8.95621094 C46.2397481,8.95621094 46.6506327,8.87475016 47.064209,8.71182617 C47.4777853,8.54890218 47.7722973,8.38866615 47.9477539,8.23111328 L48.0014648,8.23111328 L48.0014648,9.3321875 C47.6612939,9.47541738 47.3139666,9.59537061 46.9594727,9.69205078 C46.6049787,9.78873095 46.2325866,9.83707031 45.8422852,9.83707031 C44.8468375,9.83707031 44.069827,9.56762314 43.5112305,9.0287207 C42.9526339,8.48981827 42.6733398,7.72444506 42.6733398,6.73257813 C42.6733398,5.75145343 42.9409967,4.97265262 43.4763184,4.39615234 C44.01164,3.81965207 44.7161415,3.53140625 45.5898438,3.53140625 C46.3990926,3.53140625 47.0230284,3.76773201 47.4616699,4.24039063 C47.9003114,4.71304924 48.1196289,5.38442924 48.1196289,6.25455078 L48.1196289,6.80240234 Z M47.1367188,6.02896484 C47.133138,5.49901428 46.9997572,5.08902489 46.7365723,4.79898438 C46.4733874,4.50894386 46.0732449,4.36392578 45.5361328,4.36392578 C44.99544,4.36392578 44.5648616,4.52326664 44.2443848,4.84195313 C43.9239079,5.16063961 43.7421877,5.55630623 43.6992188,6.02896484 L47.1367188,6.02896484 Z M54.5166016,9.69742188 L53.5068359,9.69742188 L53.5068359,9.06900391 C53.2167954,9.3196562 52.9142268,9.51480399 52.5991211,9.65445313 C52.2840154,9.79410226 51.9420591,9.86392578 51.5732422,9.86392578 C50.8570928,9.86392578 50.2886577,9.58821239 49.8679199,9.03677734 C49.4471821,8.48534229 49.2368164,7.72086426 49.2368164,6.74332031 C49.2368164,6.23485423 49.3093254,5.78189652 49.4543457,5.38443359 C49.599366,4.98697067 49.7954089,4.64859515 50.0424805,4.36929688 C50.2859713,4.0971601 50.5697412,3.88947988 50.8937988,3.74625 C51.2178564,3.60302012 51.5535464,3.53140625 51.9008789,3.53140625 C52.2159846,3.53140625 52.4952787,3.56452766 52.7387695,3.63077148 C52.9822603,3.69701531 53.2382799,3.79996024 53.5068359,3.93960938 L53.5068359,1.34 L54.5166016,1.34 L54.5166016,9.69742188 Z M53.5068359,8.22037109 L53.5068359,4.7775 C53.2346992,4.6557546 52.991212,4.57160831 52.7763672,4.52505859 C52.5615224,4.47850888 52.3269869,4.45523438 52.0727539,4.45523438 C51.5069959,4.45523438 51.0665706,4.65217251 50.7514648,5.04605469 C50.4363591,5.43993687 50.2788086,5.99852503 50.2788086,6.72183594 C50.2788086,7.4344046 50.4005522,7.97598448 50.644043,8.3465918 C50.8875338,8.71719912 51.2778293,8.9025 51.8149414,8.9025 C52.1014012,8.9025 52.3914373,8.83894269 52.6850586,8.71182617 C52.9786799,8.58470965 53.2526029,8.42089293 53.5068359,8.22037109 Z M65.6508789,6.65201172 C65.6508789,7.15331631 65.5801602,7.60448367 65.4387207,8.00552734 C65.2972812,8.40657102 65.1066093,8.74315619 64.8666992,9.01529297 C64.6124662,9.29817199 64.3331721,9.51032807 64.0288086,9.65176758 C63.7244451,9.79320709 63.3896503,9.86392578 63.0244141,9.86392578 C62.6842431,9.86392578 62.3870455,9.82364298 62.1328125,9.74307617 C61.8785795,9.66250936 61.6279309,9.55419339 61.3808594,9.418125 L61.3164062,9.69742188 L60.3710938,9.69742188 L60.3710938,1.34 L61.3808594,1.34 L61.3808594,4.32632813 C61.6637384,4.09357957 61.9645166,3.90290764 62.2832031,3.75430664 C62.6018896,3.60570564 62.959959,3.53140625 63.3574219,3.53140625 C64.0664098,3.53140625 64.6258931,3.80353895 65.0358887,4.3478125 C65.4458842,4.89208605 65.6508789,5.66014478 65.6508789,6.65201172 Z M64.6088867,6.67886719 C64.6088867,5.96271777 64.4907238,5.41934756 64.2543945,5.04874023 C64.0180652,4.67813291 63.6367214,4.49283203 63.1103516,4.49283203 C62.8167303,4.49283203 62.5195328,4.55638934 62.21875,4.68350586 C61.9179672,4.81062238 61.6386732,4.9744391 61.3808594,5.17496094 L61.3808594,8.61246094 C61.6673191,8.74136783 61.9134918,8.83088517 62.1193848,8.88101563 C62.3252777,8.93114608 62.558918,8.95621094 62.8203125,8.95621094 C63.378909,8.95621094 63.8166488,8.7727004 64.1335449,8.40567383 C64.450441,8.03864725 64.6088867,7.4630508 64.6088867,6.67886719 Z M72.3862305,3.69791016 L68.8842773,11.9103125 L67.8046875,11.9103125 L68.921875,9.40738281 L66.5317383,3.69791016 L67.6274414,3.69791016 L69.4697266,8.14517578 L71.328125,3.69791016 L72.3862305,3.69791016 Z" id="path-3"></path>
        <path d="M5.27978516,7.27050781 C5.27978516,7.81836211 5.0533063,8.26773913 4.6003418,8.61865234 C4.14737729,8.96956556 3.52881251,9.14501953 2.74462891,9.14501953 C2.30061627,9.14501953 1.8933124,9.0922043 1.52270508,8.98657227 C1.15209776,8.88094023 0.841472607,8.76546287 0.590820312,8.64013672 L0.590820312,7.50683594 L0.64453125,7.50683594 C0.963217739,7.74674599 1.31770638,7.93741791 1.70800781,8.07885742 C2.09830924,8.22029693 2.4724917,8.29101562 2.83056641,8.29101562 C3.27457904,8.29101562 3.6219063,8.21940176 3.87255859,8.07617188 C4.12321089,7.93294199 4.24853516,7.70735831 4.24853516,7.39941406 C4.24853516,7.16308476 4.18050198,6.98405009 4.04443359,6.86230469 C3.90836521,6.74055929 3.64697459,6.63671918 3.26025391,6.55078125 C3.11702402,6.51855453 2.9299328,6.48095725 2.69897461,6.43798828 C2.46801642,6.39501932 2.25765069,6.3484703 2.06787109,6.29833984 C1.54150127,6.15869071 1.16821399,5.95369601 0.947998047,5.68334961 C0.727782102,5.41300321 0.617675781,5.0808939 0.617675781,4.68701172 C0.617675781,4.43994017 0.668700662,4.2071951 0.770751953,3.98876953 C0.872803245,3.77034396 1.02766823,3.57519617 1.23535156,3.40332031 C1.4358734,3.2350252 1.6909978,3.10164437 2.00073242,3.00317383 C2.31046704,2.90470328 2.65689913,2.85546875 3.04003906,2.85546875 C3.39811377,2.85546875 3.76065897,2.89933224 4.12768555,2.98706055 C4.49471212,3.07478885 4.79996623,3.18131448 5.04345703,3.30664062 L5.04345703,4.38623047 L4.98974609,4.38623047 C4.7319323,4.19645087 4.41862164,4.03621485 4.04980469,3.90551758 C3.68098774,3.77482031 3.31933771,3.70947266 2.96484375,3.70947266 C2.5960268,3.70947266 2.28450648,3.78019135 2.03027344,3.92163086 C1.7760404,4.06307037 1.64892578,4.2734361 1.64892578,4.55273438 C1.64892578,4.79980592 1.72591069,4.98600198 1.87988281,5.11132812 C2.03027419,5.23665427 2.27376134,5.33870403 2.61035156,5.41748047 C2.79655041,5.46044943 3.0051258,5.50341775 3.23608398,5.54638672 C3.46704217,5.58935568 3.65950444,5.62874331 3.81347656,5.66455078 C4.28255443,5.77197319 4.64420446,5.9563789 4.8984375,6.21777344 C5.15267054,6.48274872 5.27978516,6.83365667 5.27978516,7.27050781 Z M11.6982422,9 L10.6884766,9 L10.6884766,8.33398438 C10.3483056,8.60254041 10.0224625,8.80843027 9.7109375,8.95166016 C9.3994125,9.09489004 9.05566594,9.16650391 8.6796875,9.16650391 C8.04947602,9.16650391 7.55892103,8.97404164 7.20800781,8.58911133 C6.8570946,8.20418102 6.68164062,7.63932664 6.68164062,6.89453125 L6.68164062,3.00048828 L7.69140625,3.00048828 L7.69140625,6.41650391 C7.69140625,6.72086741 7.70572902,6.98136285 7.734375,7.19799805 C7.76302098,7.41463324 7.82389276,7.59993413 7.91699219,7.75390625 C8.01367236,7.91145912 8.13899663,8.02604131 8.29296875,8.09765625 C8.44694087,8.16927119 8.67073421,8.20507812 8.96435547,8.20507812 C9.22575,8.20507812 9.5113103,8.13704495 9.82104492,8.00097656 C10.1307795,7.86490817 10.4199205,7.69124455 10.6884766,7.47998047 L10.6884766,3.00048828 L11.6982422,3.00048828 L11.6982422,9 Z M18.965332,5.92773438 C18.965332,6.41471598 18.8955085,6.85961713 18.7558594,7.26245117 C18.6162102,7.66528522 18.4192721,8.00634626 18.1650391,8.28564453 C17.9287098,8.55061981 17.6503108,8.75561451 17.329834,8.90063477 C17.0093571,9.04565502 16.6700864,9.11816406 16.3120117,9.11816406 C16.0004867,9.11816406 15.7185071,9.08414748 15.4660645,9.01611328 C15.2136218,8.94807909 14.956707,8.84244863 14.6953125,8.69921875 L14.6953125,11.2128906 L13.6855469,11.2128906 L13.6855469,3.00048828 L14.6953125,3.00048828 L14.6953125,3.62890625 C14.9638685,3.40331918 15.2655419,3.21443761 15.6003418,3.06225586 C15.9351416,2.91007411 16.2923158,2.83398438 16.671875,2.83398438 C17.3951859,2.83398438 17.9582499,3.10701224 18.361084,3.65307617 C18.763918,4.1991401 18.965332,4.95735192 18.965332,5.92773438 Z M17.9233398,5.95458984 C17.9233398,5.23127894 17.7998059,4.69059424 17.5527344,4.33251953 C17.3056628,3.97444482 16.9261093,3.79541016 16.4140625,3.79541016 C16.124022,3.79541016 15.8321955,3.85807229 15.5385742,3.98339844 C15.244953,4.10872458 14.9638685,4.27343648 14.6953125,4.47753906 L14.6953125,7.87744141 C14.9817723,8.0063483 15.2279449,8.09407529 15.4338379,8.140625 C15.6397308,8.18717471 15.8733711,8.21044922 16.1347656,8.21044922 C16.6969429,8.21044922 17.1355779,8.02067247 17.4506836,7.64111328 C17.7657893,7.26155409 17.9233398,6.69938523 17.9233398,5.95458984 Z M25.8188477,5.92773438 C25.8188477,6.41471598 25.7490241,6.85961713 25.609375,7.26245117 C25.4697259,7.66528522 25.2727877,8.00634626 25.0185547,8.28564453 C24.7822254,8.55061981 24.5038265,8.75561451 24.1833496,8.90063477 C23.8628727,9.04565502 23.5236021,9.11816406 23.1655273,9.11816406 C22.8540023,9.11816406 22.5720227,9.08414748 22.3195801,9.01611328 C22.0671374,8.94807909 21.8102227,8.84244863 21.5488281,8.69921875 L21.5488281,11.2128906 L20.5390625,11.2128906 L20.5390625,3.00048828 L21.5488281,3.00048828 L21.5488281,3.62890625 C21.8173842,3.40331918 22.1190576,3.21443761 22.4538574,3.06225586 C22.7886573,2.91007411 23.1458314,2.83398438 23.5253906,2.83398438 C24.2487015,2.83398438 24.8117656,3.10701224 25.2145996,3.65307617 C25.6174337,4.1991401 25.8188477,4.95735192 25.8188477,5.92773438 Z M24.7768555,5.95458984 C24.7768555,5.23127894 24.6533215,4.69059424 24.40625,4.33251953 C24.1591785,3.97444482 23.779625,3.79541016 23.2675781,3.79541016 C22.9775376,3.79541016 22.6857111,3.85807229 22.3920898,3.98339844 C22.0984686,4.10872458 21.8173842,4.27343648 21.5488281,4.47753906 L21.5488281,7.87744141 C21.8352879,8.0063483 22.0814606,8.09407529 22.2873535,8.140625 C22.4932465,8.18717471 22.7268867,8.21044922 22.9882812,8.21044922 C23.5504585,8.21044922 23.9890935,8.02067247 24.3041992,7.64111328 C24.619305,7.26155409 24.7768555,6.69938523 24.7768555,5.95458984 Z M32.5058594,6.00292969 C32.5058594,6.98047364 32.2552108,7.75211306 31.7539062,8.31787109 C31.2526017,8.88362913 30.5812217,9.16650391 29.7397461,9.16650391 C28.891109,9.16650391 28.2170435,8.88362913 27.7175293,8.31787109 C27.2180151,7.75211306 26.9682617,6.98047364 26.9682617,6.00292969 C26.9682617,5.02538574 27.2180151,4.25285115 27.7175293,3.68530273 C28.2170435,3.11775432 28.891109,2.83398438 29.7397461,2.83398438 C30.5812217,2.83398438 31.2526017,3.11775432 31.7539062,3.68530273 C32.2552108,4.25285115 32.5058594,5.02538574 32.5058594,6.00292969 Z M31.4638672,6.00292969 C31.4638672,5.22590757 31.3116877,4.64852077 31.0073242,4.27075195 C30.7029607,3.89298314 30.2804389,3.70410156 29.7397461,3.70410156 C29.1918918,3.70410156 28.7666845,3.89298314 28.4641113,4.27075195 C28.1615382,4.64852077 28.0102539,5.22590757 28.0102539,6.00292969 C28.0102539,6.75488657 28.1624334,7.32511199 28.4667969,7.71362305 C28.7711604,8.1021341 29.1954725,8.29638672 29.7397461,8.29638672 C30.2768582,8.29638672 30.6984848,8.10392445 31.0046387,7.71899414 C31.3107925,7.33406383 31.4638672,6.76204807 31.4638672,6.00292969 Z M37.8125,4.1015625 L37.7587891,4.1015625 C37.6083977,4.06575503 37.4624844,4.039795 37.3210449,4.02368164 C37.1796054,4.00756828 37.012208,3.99951172 36.8188477,3.99951172 C36.5073227,3.99951172 36.2065444,4.06844007 35.9165039,4.20629883 C35.6264634,4.34415759 35.3471693,4.52229708 35.0786133,4.74072266 L35.0786133,9 L34.0688477,9 L34.0688477,3.00048828 L35.0786133,3.00048828 L35.0786133,3.88671875 C35.479657,3.56445151 35.8332504,3.33618231 36.1394043,3.2019043 C36.4455582,3.06762628 36.7579737,3.00048828 37.0766602,3.00048828 C37.2521168,3.00048828 37.3792314,3.00496415 37.4580078,3.01391602 C37.5367842,3.02286788 37.6549471,3.03987618 37.8125,3.06494141 L37.8125,4.1015625 Z M41.878418,8.94628906 C41.6886384,8.99641952 41.4818533,9.0375975 41.2580566,9.06982422 C41.0342599,9.10205094 40.8346363,9.11816406 40.6591797,9.11816406 C40.0468719,9.11816406 39.5813818,8.95345217 39.2626953,8.62402344 C38.9440088,8.29459471 38.784668,7.76644244 38.784668,7.03955078 L38.784668,3.84912109 L38.1025391,3.84912109 L38.1025391,3.00048828 L38.784668,3.00048828 L38.784668,1.27636719 L39.7944336,1.27636719 L39.7944336,3.00048828 L41.878418,3.00048828 L41.878418,3.84912109 L39.7944336,3.84912109 L39.7944336,6.58300781 C39.7944336,6.89811355 39.801595,7.14428622 39.815918,7.3215332 C39.830241,7.49878018 39.8803707,7.66438725 39.9663086,7.81835938 C40.045085,7.96158926 40.153401,8.06632454 40.2912598,8.13256836 C40.4291185,8.19881218 40.6394843,8.23193359 40.9223633,8.23193359 C41.0870776,8.23193359 41.2589509,8.20776391 41.4379883,8.15942383 C41.6170256,8.11108374 41.7459306,8.07080094 41.824707,8.03857422 L41.878418,8.03857422 L41.878418,8.94628906 Z M48.1196289,6.10498047 L43.6992188,6.10498047 C43.6992188,6.47379742 43.7547195,6.79516465 43.8657227,7.0690918 C43.9767258,7.34301895 44.1289053,7.56770746 44.3222656,7.74316406 C44.5084645,7.91503992 44.7295723,8.04394488 44.9855957,8.12988281 C45.2416191,8.21582074 45.5235987,8.25878906 45.831543,8.25878906 C46.2397481,8.25878906 46.6506327,8.17732829 47.064209,8.0144043 C47.4777853,7.85148031 47.7722973,7.69124428 47.9477539,7.53369141 L48.0014648,7.53369141 L48.0014648,8.63476562 C47.6612939,8.77799551 47.3139666,8.89794874 46.9594727,8.99462891 C46.6049787,9.09130908 46.2325866,9.13964844 45.8422852,9.13964844 C44.8468375,9.13964844 44.069827,8.87020126 43.5112305,8.33129883 C42.9526339,7.79239639 42.6733398,7.02702319 42.6733398,6.03515625 C42.6733398,5.05403155 42.9409967,4.27523075 43.4763184,3.69873047 C44.01164,3.12223019 44.7161415,2.83398438 45.5898438,2.83398438 C46.3990926,2.83398438 47.0230284,3.07031014 47.4616699,3.54296875 C47.9003114,4.01562736 48.1196289,4.68700737 48.1196289,5.55712891 L48.1196289,6.10498047 Z M47.1367188,5.33154297 C47.133138,4.8015924 46.9997572,4.39160301 46.7365723,4.1015625 C46.4733874,3.81152199 46.0732449,3.66650391 45.5361328,3.66650391 C44.99544,3.66650391 44.5648616,3.82584476 44.2443848,4.14453125 C43.9239079,4.46321774 43.7421877,4.85888436 43.6992188,5.33154297 L47.1367188,5.33154297 Z M54.5166016,9 L53.5068359,9 L53.5068359,8.37158203 C53.2167954,8.62223433 52.9142268,8.81738211 52.5991211,8.95703125 C52.2840154,9.09668039 51.9420591,9.16650391 51.5732422,9.16650391 C50.8570928,9.16650391 50.2886577,8.89079052 49.8679199,8.33935547 C49.4471821,7.78792042 49.2368164,7.02344239 49.2368164,6.04589844 C49.2368164,5.53743235 49.3093254,5.08447464 49.4543457,4.68701172 C49.599366,4.28954879 49.7954089,3.95117327 50.0424805,3.671875 C50.2859713,3.39973822 50.5697412,3.19205801 50.8937988,3.04882812 C51.2178564,2.90559824 51.5535464,2.83398438 51.9008789,2.83398438 C52.2159846,2.83398438 52.4952787,2.86710579 52.7387695,2.93334961 C52.9822603,2.99959343 53.2382799,3.10253836 53.5068359,3.2421875 L53.5068359,0.642578125 L54.5166016,0.642578125 L54.5166016,9 Z M53.5068359,7.52294922 L53.5068359,4.08007812 C53.2346992,3.95833272 52.991212,3.87418643 52.7763672,3.82763672 C52.5615224,3.78108701 52.3269869,3.7578125 52.0727539,3.7578125 C51.5069959,3.7578125 51.0665706,3.95475063 50.7514648,4.34863281 C50.4363591,4.74251499 50.2788086,5.30110315 50.2788086,6.02441406 C50.2788086,6.73698273 50.4005522,7.2785626 50.644043,7.64916992 C50.8875338,8.01977724 51.2778293,8.20507812 51.8149414,8.20507812 C52.1014012,8.20507812 52.3914373,8.14152082 52.6850586,8.0144043 C52.9786799,7.88728778 53.2526029,7.72347105 53.5068359,7.52294922 Z M65.6508789,5.95458984 C65.6508789,6.45589443 65.5801602,6.9070618 65.4387207,7.30810547 C65.2972812,7.70914914 65.1066093,8.04573432 64.8666992,8.31787109 C64.6124662,8.60075011 64.3331721,8.81290619 64.0288086,8.9543457 C63.7244451,9.09578521 63.3896503,9.16650391 63.0244141,9.16650391 C62.6842431,9.16650391 62.3870455,9.12622111 62.1328125,9.0456543 C61.8785795,8.96508749 61.6279309,8.85677151 61.3808594,8.72070312 L61.3164062,9 L60.3710938,9 L60.3710938,0.642578125 L61.3808594,0.642578125 L61.3808594,3.62890625 C61.6637384,3.39615769 61.9645166,3.20548577 62.2832031,3.05688477 C62.6018896,2.90828376 62.959959,2.83398438 63.3574219,2.83398438 C64.0664098,2.83398438 64.6258931,3.10611707 65.0358887,3.65039062 C65.4458842,4.19466418 65.6508789,4.96272291 65.6508789,5.95458984 Z M64.6088867,5.98144531 C64.6088867,5.2652959 64.4907238,4.72192568 64.2543945,4.35131836 C64.0180652,3.98071104 63.6367214,3.79541016 63.1103516,3.79541016 C62.8167303,3.79541016 62.5195328,3.85896746 62.21875,3.98608398 C61.9179672,4.11320051 61.6386732,4.27701723 61.3808594,4.47753906 L61.3808594,7.91503906 C61.6673191,8.04394596 61.9134918,8.13346329 62.1193848,8.18359375 C62.3252777,8.23372421 62.558918,8.25878906 62.8203125,8.25878906 C63.378909,8.25878906 63.8166488,8.07527853 64.1335449,7.70825195 C64.450441,7.34122538 64.6088867,6.76562892 64.6088867,5.98144531 Z M72.3862305,3.00048828 L68.8842773,11.2128906 L67.8046875,11.2128906 L68.921875,8.70996094 L66.5317383,3.00048828 L67.6274414,3.00048828 L69.4697266,7.44775391 L71.328125,3.00048828 L72.3862305,3.00048828 Z" id="path-4"></path>
        <path d="M6.10595703,7.20410156 C6.10595703,7.60156449 6.03076247,7.95247244 5.88037109,8.25683594 C5.72997972,8.56119944 5.52767054,8.81184797 5.2734375,9.00878906 C4.97265475,9.24511837 4.64233578,9.41341096 4.2824707,9.51367188 C3.92260562,9.61393279 3.46517205,9.6640625 2.91015625,9.6640625 L0.07421875,9.6640625 L0.07421875,1.66650391 L2.44287109,1.66650391 C3.02653287,1.66650391 3.46337746,1.68798807 3.75341797,1.73095703 C4.04345848,1.773926 4.32096222,1.86344333 4.5859375,1.99951172 C4.87955876,2.15348384 5.09261001,2.35131715 5.22509766,2.59301758 C5.3575853,2.83471801 5.42382812,3.12385899 5.42382812,3.46044922 C5.42382812,3.84000841 5.3271494,4.16316598 5.13378906,4.42993164 C4.94042872,4.6966973 4.6826188,4.91064373 4.36035156,5.07177734 L4.36035156,5.11474609 C4.90104437,5.22574925 5.32714688,5.46297019 5.63867188,5.82641602 C5.95019687,6.18986184 6.10595703,6.64908577 6.10595703,7.20410156 Z M4.31738281,3.60009766 C4.31738281,3.40673731 4.28515657,3.24381577 4.22070312,3.11132812 C4.15624968,2.97884048 4.05240957,2.87141968 3.90917969,2.7890625 C3.74088458,2.69238233 3.53678505,2.63240572 3.296875,2.60913086 C3.05696495,2.585856 2.7597674,2.57421875 2.40527344,2.57421875 L1.13769531,2.57421875 L1.13769531,4.88378906 L2.51269531,4.88378906 C2.84570479,4.88378906 3.1106761,4.86678077 3.30761719,4.83276367 C3.50455828,4.79874657 3.68717364,4.72802788 3.85546875,4.62060547 C4.02376386,4.51318306 4.14282192,4.37443119 4.21264648,4.2043457 C4.28247105,4.03426022 4.31738281,3.83284622 4.31738281,3.60009766 Z M4.99951172,7.24707031 C4.99951172,6.92480308 4.95117236,6.6687835 4.85449219,6.47900391 C4.75781202,6.28922431 4.58235804,6.12809311 4.328125,5.99560547 C4.15624914,5.90608679 3.94767375,5.84790052 3.70239258,5.82104492 C3.4571114,5.79418932 3.15901868,5.78076172 2.80810547,5.78076172 L1.13769531,5.78076172 L1.13769531,8.75634766 L2.54492188,8.75634766 C3.01041899,8.75634766 3.39176284,8.73217798 3.68896484,8.68383789 C3.98616685,8.63549781 4.229654,8.54687564 4.41943359,8.41796875 C4.61995543,8.27831961 4.76676386,8.11897876 4.85986328,7.93994141 C4.95296271,7.76090405 4.99951172,7.52994933 4.99951172,7.24707031 Z M12.6479492,6.66699219 C12.6479492,7.64453614 12.3973007,8.41617556 11.8959961,8.98193359 C11.3946915,9.54769163 10.7233115,9.83056641 9.88183594,9.83056641 C9.03319888,9.83056641 8.35913336,9.54769163 7.85961914,8.98193359 C7.36010492,8.41617556 7.11035156,7.64453614 7.11035156,6.66699219 C7.11035156,5.68944824 7.36010492,4.91691365 7.85961914,4.34936523 C8.35913336,3.78181682 9.03319888,3.49804688 9.88183594,3.49804688 C10.7233115,3.49804688 11.3946915,3.78181682 11.8959961,4.34936523 C12.3973007,4.91691365 12.6479492,5.68944824 12.6479492,6.66699219 Z M11.605957,6.66699219 C11.605957,5.88997007 11.4537776,5.31258327 11.1494141,4.93481445 C10.8450506,4.55704564 10.4225287,4.36816406 9.88183594,4.36816406 C9.33398164,4.36816406 8.9087743,4.55704564 8.60620117,4.93481445 C8.30362804,5.31258327 8.15234375,5.88997007 8.15234375,6.66699219 C8.15234375,7.41894907 8.30452322,7.98917449 8.60888672,8.37768555 C8.91325022,8.7661966 9.33756238,8.96044922 9.88183594,8.96044922 C10.418948,8.96044922 10.8405746,8.76798695 11.1467285,8.38305664 C11.4528824,7.99812633 11.605957,7.42611057 11.605957,6.66699219 Z M19.3242188,6.66699219 C19.3242188,7.64453614 19.0735702,8.41617556 18.5722656,8.98193359 C18.070961,9.54769163 17.399581,9.83056641 16.5581055,9.83056641 C15.7094684,9.83056641 15.0354029,9.54769163 14.5358887,8.98193359 C14.0363745,8.41617556 13.7866211,7.64453614 13.7866211,6.66699219 C13.7866211,5.68944824 14.0363745,4.91691365 14.5358887,4.34936523 C15.0354029,3.78181682 15.7094684,3.49804688 16.5581055,3.49804688 C17.399581,3.49804688 18.070961,3.78181682 18.5722656,4.34936523 C19.0735702,4.91691365 19.3242188,5.68944824 19.3242188,6.66699219 Z M18.2822266,6.66699219 C18.2822266,5.88997007 18.1300471,5.31258327 17.8256836,4.93481445 C17.5213201,4.55704564 17.0987983,4.36816406 16.5581055,4.36816406 C16.0102512,4.36816406 15.5850438,4.55704564 15.2824707,4.93481445 C14.9798976,5.31258327 14.8286133,5.88997007 14.8286133,6.66699219 C14.8286133,7.41894907 14.9807927,7.98917449 15.2851562,8.37768555 C15.5895198,8.7661966 16.0138319,8.96044922 16.5581055,8.96044922 C17.0952175,8.96044922 17.5168442,8.76798695 17.822998,8.38305664 C18.1291519,7.99812633 18.2822266,7.42611057 18.2822266,6.66699219 Z M25.1733398,7.93457031 C25.1733398,8.48242461 24.946861,8.93180163 24.4938965,9.28271484 C24.040932,9.63362806 23.4223672,9.80908203 22.6381836,9.80908203 C22.194171,9.80908203 21.7868671,9.7562668 21.4162598,9.65063477 C21.0456524,9.54500273 20.7350273,9.42952537 20.484375,9.30419922 L20.484375,8.17089844 L20.5380859,8.17089844 C20.8567724,8.41080849 21.2112611,8.60148041 21.6015625,8.74291992 C21.9918639,8.88435943 22.3660464,8.95507812 22.7241211,8.95507812 C23.1681337,8.95507812 23.515461,8.88346426 23.7661133,8.74023438 C24.0167656,8.59700449 24.1420898,8.37142081 24.1420898,8.06347656 C24.1420898,7.82714726 24.0740567,7.64811259 23.9379883,7.52636719 C23.8019199,7.40462179 23.5405293,7.30078168 23.1538086,7.21484375 C23.0105787,7.18261703 22.8234875,7.14501975 22.5925293,7.10205078 C22.3615711,7.05908182 22.1512054,7.0125328 21.9614258,6.96240234 C21.435056,6.82275321 21.0617687,6.61775851 20.8415527,6.34741211 C20.6213368,6.07706571 20.5112305,5.7449564 20.5112305,5.35107422 C20.5112305,5.10400267 20.5622553,4.8712576 20.6643066,4.65283203 C20.7663579,4.43440646 20.9212229,4.23925867 21.1289062,4.06738281 C21.3294281,3.8990877 21.5845525,3.76570687 21.8942871,3.66723633 C22.2040217,3.56876578 22.5504538,3.51953125 22.9335938,3.51953125 C23.2916685,3.51953125 23.6542137,3.56339474 24.0212402,3.65112305 C24.3882668,3.73885135 24.6935209,3.84537698 24.9370117,3.97070312 L24.9370117,5.05029297 L24.8833008,5.05029297 C24.625487,4.86051337 24.3121763,4.70027735 23.9433594,4.56958008 C23.5745424,4.43888281 23.2128924,4.37353516 22.8583984,4.37353516 C22.4895815,4.37353516 22.1780612,4.44425385 21.9238281,4.58569336 C21.6695951,4.72713287 21.5424805,4.9374986 21.5424805,5.21679688 C21.5424805,5.46386842 21.6194654,5.65006448 21.7734375,5.77539063 C21.9238289,5.90071677 22.167316,6.00276653 22.5039062,6.08154297 C22.6901051,6.12451193 22.8986805,6.16748025 23.1296387,6.21044922 C23.3605969,6.25341818 23.5530591,6.29280581 23.7070312,6.32861328 C24.1761091,6.43603569 24.5377591,6.6204414 24.7919922,6.88183594 C25.0462252,7.14681122 25.1733398,7.49771917 25.1733398,7.93457031 Z M29.7333984,9.61035156 C29.5436188,9.66048202 29.3368338,9.70166 29.1130371,9.73388672 C28.8892404,9.76611344 28.6896168,9.78222656 28.5141602,9.78222656 C27.9018524,9.78222656 27.4363623,9.61751467 27.1176758,9.28808594 C26.7989893,8.95865721 26.6396484,8.43050494 26.6396484,7.70361328 L26.6396484,4.51318359 L25.9575195,4.51318359 L25.9575195,3.66455078 L26.6396484,3.66455078 L26.6396484,1.94042969 L27.6494141,1.94042969 L27.6494141,3.66455078 L29.7333984,3.66455078 L29.7333984,4.51318359 L27.6494141,4.51318359 L27.6494141,7.24707031 C27.6494141,7.56217605 27.6565754,7.80834872 27.6708984,7.9855957 C27.6852214,8.16284268 27.7353511,8.32844975 27.8212891,8.48242188 C27.9000655,8.62565176 28.0083815,8.73038704 28.1462402,8.79663086 C28.284099,8.86287468 28.4944647,8.89599609 28.7773438,8.89599609 C28.9420581,8.89599609 29.1139314,8.87182641 29.2929688,8.82348633 C29.4720061,8.77514624 29.6009111,8.73486344 29.6796875,8.70263672 L29.7333984,8.70263672 L29.7333984,9.61035156 Z M33.8530273,9.6640625 L30.6948242,9.6640625 L30.6948242,8.84765625 L31.7421875,8.84765625 L31.7421875,2.48291016 L30.6948242,2.48291016 L30.6948242,1.66650391 L33.8530273,1.66650391 L33.8530273,2.48291016 L32.8056641,2.48291016 L32.8056641,8.84765625 L33.8530273,8.84765625 L33.8530273,9.6640625 Z M41.625,2.58496094 C41.950848,2.94303564 42.2006013,3.38167058 42.3742676,3.90087891 C42.5479338,4.42008723 42.6347656,5.00911129 42.6347656,5.66796875 C42.6347656,6.32682621 42.5461435,6.91674544 42.3688965,7.43774414 C42.1916495,7.95874284 41.9436865,8.39290191 41.625,8.74023438 C41.2955713,9.10188983 40.9061709,9.37402252 40.4567871,9.55664062 C40.0074034,9.73925873 39.494469,9.83056641 38.9179688,9.83056641 C38.3557915,9.83056641 37.8446475,9.73746838 37.3845215,9.55126953 C36.9243955,9.36507068 36.5332047,9.09472833 36.2109375,8.74023438 C35.8886703,8.38574042 35.6407072,7.95068617 35.467041,7.43505859 C35.2933748,6.91943102 35.206543,6.33040696 35.206543,5.66796875 C35.206543,5.01627278 35.2924796,4.43172459 35.4643555,3.91430664 C35.6362313,3.39688869 35.8868799,2.95377789 36.2163086,2.58496094 C36.5314143,2.23404772 36.9226051,1.96549572 37.3898926,1.77929688 C37.8571801,1.59309803 38.3665337,1.5 38.9179688,1.5 C39.4908883,1.5 40.005613,1.5939932 40.4621582,1.78198242 C40.9187035,1.96997164 41.3063135,2.23762847 41.625,2.58496094 Z M41.5283203,5.66796875 C41.5283203,4.6295521 41.2955752,3.82837196 40.8300781,3.2644043 C40.364581,2.70043663 39.7290079,2.41845703 38.9233398,2.41845703 C38.1105103,2.41845703 37.4722517,2.70043663 37.0085449,3.2644043 C36.5448382,3.82837196 36.3129883,4.6295521 36.3129883,5.66796875 C36.3129883,6.71712764 36.549314,7.52009813 37.0219727,8.0769043 C37.4946313,8.63371047 38.128414,8.91210938 38.9233398,8.91210938 C39.7182657,8.91210938 40.3511532,8.63371047 40.8220215,8.0769043 C41.2928897,7.52009813 41.5283203,6.71712764 41.5283203,5.66796875 Z" id="path-5"></path>
        <path d="M6.10595703,6.54003906 C6.10595703,6.93750199 6.03076247,7.28840994 5.88037109,7.59277344 C5.72997972,7.89713694 5.52767054,8.14778547 5.2734375,8.34472656 C4.97265475,8.58105587 4.64233578,8.74934846 4.2824707,8.84960938 C3.92260562,8.94987029 3.46517205,9 2.91015625,9 L0.07421875,9 L0.07421875,1.00244141 L2.44287109,1.00244141 C3.02653287,1.00244141 3.46337746,1.02392557 3.75341797,1.06689453 C4.04345848,1.1098635 4.32096222,1.19938083 4.5859375,1.33544922 C4.87955876,1.48942134 5.09261001,1.68725465 5.22509766,1.92895508 C5.3575853,2.17065551 5.42382812,2.45979649 5.42382812,2.79638672 C5.42382812,3.17594591 5.3271494,3.49910348 5.13378906,3.76586914 C4.94042872,4.0326348 4.6826188,4.24658123 4.36035156,4.40771484 L4.36035156,4.45068359 C4.90104437,4.56168675 5.32714688,4.79890769 5.63867188,5.16235352 C5.95019687,5.52579934 6.10595703,5.98502327 6.10595703,6.54003906 Z M4.31738281,2.93603516 C4.31738281,2.74267481 4.28515657,2.57975327 4.22070312,2.44726562 C4.15624968,2.31477798 4.05240957,2.20735718 3.90917969,2.125 C3.74088458,2.02831983 3.53678505,1.96834322 3.296875,1.94506836 C3.05696495,1.9217935 2.7597674,1.91015625 2.40527344,1.91015625 L1.13769531,1.91015625 L1.13769531,4.21972656 L2.51269531,4.21972656 C2.84570479,4.21972656 3.1106761,4.20271827 3.30761719,4.16870117 C3.50455828,4.13468407 3.68717364,4.06396538 3.85546875,3.95654297 C4.02376386,3.84912056 4.14282192,3.71036869 4.21264648,3.5402832 C4.28247105,3.37019772 4.31738281,3.16878372 4.31738281,2.93603516 Z M4.99951172,6.58300781 C4.99951172,6.26074058 4.95117236,6.004721 4.85449219,5.81494141 C4.75781202,5.62516181 4.58235804,5.46403061 4.328125,5.33154297 C4.15624914,5.24202429 3.94767375,5.18383802 3.70239258,5.15698242 C3.4571114,5.13012682 3.15901868,5.11669922 2.80810547,5.11669922 L1.13769531,5.11669922 L1.13769531,8.09228516 L2.54492188,8.09228516 C3.01041899,8.09228516 3.39176284,8.06811548 3.68896484,8.01977539 C3.98616685,7.97143531 4.229654,7.88281314 4.41943359,7.75390625 C4.61995543,7.61425711 4.76676386,7.45491626 4.85986328,7.27587891 C4.95296271,7.09684155 4.99951172,6.86588683 4.99951172,6.58300781 Z M12.6479492,6.00292969 C12.6479492,6.98047364 12.3973007,7.75211306 11.8959961,8.31787109 C11.3946915,8.88362913 10.7233115,9.16650391 9.88183594,9.16650391 C9.03319888,9.16650391 8.35913336,8.88362913 7.85961914,8.31787109 C7.36010492,7.75211306 7.11035156,6.98047364 7.11035156,6.00292969 C7.11035156,5.02538574 7.36010492,4.25285115 7.85961914,3.68530273 C8.35913336,3.11775432 9.03319888,2.83398438 9.88183594,2.83398438 C10.7233115,2.83398438 11.3946915,3.11775432 11.8959961,3.68530273 C12.3973007,4.25285115 12.6479492,5.02538574 12.6479492,6.00292969 Z M11.605957,6.00292969 C11.605957,5.22590757 11.4537776,4.64852077 11.1494141,4.27075195 C10.8450506,3.89298314 10.4225287,3.70410156 9.88183594,3.70410156 C9.33398164,3.70410156 8.9087743,3.89298314 8.60620117,4.27075195 C8.30362804,4.64852077 8.15234375,5.22590757 8.15234375,6.00292969 C8.15234375,6.75488657 8.30452322,7.32511199 8.60888672,7.71362305 C8.91325022,8.1021341 9.33756238,8.29638672 9.88183594,8.29638672 C10.418948,8.29638672 10.8405746,8.10392445 11.1467285,7.71899414 C11.4528824,7.33406383 11.605957,6.76204807 11.605957,6.00292969 Z M19.3242188,6.00292969 C19.3242188,6.98047364 19.0735702,7.75211306 18.5722656,8.31787109 C18.070961,8.88362913 17.399581,9.16650391 16.5581055,9.16650391 C15.7094684,9.16650391 15.0354029,8.88362913 14.5358887,8.31787109 C14.0363745,7.75211306 13.7866211,6.98047364 13.7866211,6.00292969 C13.7866211,5.02538574 14.0363745,4.25285115 14.5358887,3.68530273 C15.0354029,3.11775432 15.7094684,2.83398438 16.5581055,2.83398438 C17.399581,2.83398438 18.070961,3.11775432 18.5722656,3.68530273 C19.0735702,4.25285115 19.3242188,5.02538574 19.3242188,6.00292969 Z M18.2822266,6.00292969 C18.2822266,5.22590757 18.1300471,4.64852077 17.8256836,4.27075195 C17.5213201,3.89298314 17.0987983,3.70410156 16.5581055,3.70410156 C16.0102512,3.70410156 15.5850438,3.89298314 15.2824707,4.27075195 C14.9798976,4.64852077 14.8286133,5.22590757 14.8286133,6.00292969 C14.8286133,6.75488657 14.9807927,7.32511199 15.2851562,7.71362305 C15.5895198,8.1021341 16.0138319,8.29638672 16.5581055,8.29638672 C17.0952175,8.29638672 17.5168442,8.10392445 17.822998,7.71899414 C18.1291519,7.33406383 18.2822266,6.76204807 18.2822266,6.00292969 Z M25.1733398,7.27050781 C25.1733398,7.81836211 24.946861,8.26773913 24.4938965,8.61865234 C24.040932,8.96956556 23.4223672,9.14501953 22.6381836,9.14501953 C22.194171,9.14501953 21.7868671,9.0922043 21.4162598,8.98657227 C21.0456524,8.88094023 20.7350273,8.76546287 20.484375,8.64013672 L20.484375,7.50683594 L20.5380859,7.50683594 C20.8567724,7.74674599 21.2112611,7.93741791 21.6015625,8.07885742 C21.9918639,8.22029693 22.3660464,8.29101562 22.7241211,8.29101562 C23.1681337,8.29101562 23.515461,8.21940176 23.7661133,8.07617188 C24.0167656,7.93294199 24.1420898,7.70735831 24.1420898,7.39941406 C24.1420898,7.16308476 24.0740567,6.98405009 23.9379883,6.86230469 C23.8019199,6.74055929 23.5405293,6.63671918 23.1538086,6.55078125 C23.0105787,6.51855453 22.8234875,6.48095725 22.5925293,6.43798828 C22.3615711,6.39501932 22.1512054,6.3484703 21.9614258,6.29833984 C21.435056,6.15869071 21.0617687,5.95369601 20.8415527,5.68334961 C20.6213368,5.41300321 20.5112305,5.0808939 20.5112305,4.68701172 C20.5112305,4.43994017 20.5622553,4.2071951 20.6643066,3.98876953 C20.7663579,3.77034396 20.9212229,3.57519617 21.1289062,3.40332031 C21.3294281,3.2350252 21.5845525,3.10164437 21.8942871,3.00317383 C22.2040217,2.90470328 22.5504538,2.85546875 22.9335938,2.85546875 C23.2916685,2.85546875 23.6542137,2.89933224 24.0212402,2.98706055 C24.3882668,3.07478885 24.6935209,3.18131448 24.9370117,3.30664062 L24.9370117,4.38623047 L24.8833008,4.38623047 C24.625487,4.19645087 24.3121763,4.03621485 23.9433594,3.90551758 C23.5745424,3.77482031 23.2128924,3.70947266 22.8583984,3.70947266 C22.4895815,3.70947266 22.1780612,3.78019135 21.9238281,3.92163086 C21.6695951,4.06307037 21.5424805,4.2734361 21.5424805,4.55273438 C21.5424805,4.79980592 21.6194654,4.98600198 21.7734375,5.11132812 C21.9238289,5.23665427 22.167316,5.33870403 22.5039062,5.41748047 C22.6901051,5.46044943 22.8986805,5.50341775 23.1296387,5.54638672 C23.3605969,5.58935568 23.5530591,5.62874331 23.7070312,5.66455078 C24.1761091,5.77197319 24.5377591,5.9563789 24.7919922,6.21777344 C25.0462252,6.48274872 25.1733398,6.83365667 25.1733398,7.27050781 Z M29.7333984,8.94628906 C29.5436188,8.99641952 29.3368338,9.0375975 29.1130371,9.06982422 C28.8892404,9.10205094 28.6896168,9.11816406 28.5141602,9.11816406 C27.9018524,9.11816406 27.4363623,8.95345217 27.1176758,8.62402344 C26.7989893,8.29459471 26.6396484,7.76644244 26.6396484,7.03955078 L26.6396484,3.84912109 L25.9575195,3.84912109 L25.9575195,3.00048828 L26.6396484,3.00048828 L26.6396484,1.27636719 L27.6494141,1.27636719 L27.6494141,3.00048828 L29.7333984,3.00048828 L29.7333984,3.84912109 L27.6494141,3.84912109 L27.6494141,6.58300781 C27.6494141,6.89811355 27.6565754,7.14428622 27.6708984,7.3215332 C27.6852214,7.49878018 27.7353511,7.66438725 27.8212891,7.81835938 C27.9000655,7.96158926 28.0083815,8.06632454 28.1462402,8.13256836 C28.284099,8.19881218 28.4944647,8.23193359 28.7773438,8.23193359 C28.9420581,8.23193359 29.1139314,8.20776391 29.2929688,8.15942383 C29.4720061,8.11108374 29.6009111,8.07080094 29.6796875,8.03857422 L29.7333984,8.03857422 L29.7333984,8.94628906 Z M33.8530273,9 L30.6948242,9 L30.6948242,8.18359375 L31.7421875,8.18359375 L31.7421875,1.81884766 L30.6948242,1.81884766 L30.6948242,1.00244141 L33.8530273,1.00244141 L33.8530273,1.81884766 L32.8056641,1.81884766 L32.8056641,8.18359375 L33.8530273,8.18359375 L33.8530273,9 Z M41.625,1.92089844 C41.950848,2.27897314 42.2006013,2.71760808 42.3742676,3.23681641 C42.5479338,3.75602473 42.6347656,4.34504879 42.6347656,5.00390625 C42.6347656,5.66276371 42.5461435,6.25268294 42.3688965,6.77368164 C42.1916495,7.29468034 41.9436865,7.72883941 41.625,8.07617188 C41.2955713,8.43782733 40.9061709,8.70996002 40.4567871,8.89257812 C40.0074034,9.07519623 39.494469,9.16650391 38.9179688,9.16650391 C38.3557915,9.16650391 37.8446475,9.07340588 37.3845215,8.88720703 C36.9243955,8.70100818 36.5332047,8.43066583 36.2109375,8.07617188 C35.8886703,7.72167792 35.6407072,7.28662367 35.467041,6.77099609 C35.2933748,6.25536852 35.206543,5.66634446 35.206543,5.00390625 C35.206543,4.35221028 35.2924796,3.76766209 35.4643555,3.25024414 C35.6362313,2.73282619 35.8868799,2.28971539 36.2163086,1.92089844 C36.5314143,1.56998522 36.9226051,1.30143322 37.3898926,1.11523438 C37.8571801,0.929035527 38.3665337,0.8359375 38.9179688,0.8359375 C39.4908883,0.8359375 40.005613,0.929930701 40.4621582,1.11791992 C40.9187035,1.30590914 41.3063135,1.57356597 41.625,1.92089844 Z M41.5283203,5.00390625 C41.5283203,3.9654896 41.2955752,3.16430946 40.8300781,2.6003418 C40.364581,2.03637413 39.7290079,1.75439453 38.9233398,1.75439453 C38.1105103,1.75439453 37.4722517,2.03637413 37.0085449,2.6003418 C36.5448382,3.16430946 36.3129883,3.9654896 36.3129883,5.00390625 C36.3129883,6.05306514 36.549314,6.85603563 37.0219727,7.4128418 C37.4946313,7.96964797 38.128414,8.24804688 38.9233398,8.24804688 C39.7182657,8.24804688 40.3511532,7.96964797 40.8220215,7.4128418 C41.2928897,6.85603563 41.5283203,6.05306514 41.5283203,5.00390625 Z" id="path-6"></path>
    </defs>
    <g id="boostIO-badge-v.1.0.0" stroke="none" stroke-width="1" fill="none" fill-rule="evenodd">
        <g id="Badge">
            <mask id="mask-2" fill="white">
                <use xlink:href="#path-1"></use>
            </mask>
            <g id="Box"></g>
            <g id="Container" mask="url(#mask-2)">
                <polygon id="Label-Box" fill="#555555" points="0 0 100 0 100 20 0 20"></polygon>
                <polygon id="Text-Box" fill="#00BA7C" points="100 0 155 0 155 20 100 20"></polygon>
            </g>
            <g id="BoostIO" mask="url(#mask-2)" fill="#1EC38B">
                <g transform="translate(6.000000, 4.000000)" id="Oval">
                    <circle cx="5.4" cy="6" r="5.4"></circle>
                    <circle fill-opacity="0.400000006" cx="7.25034965" cy="6" r="5.4"></circle>
                    <circle fill-opacity="0.200000018" cx="8.68531469" cy="6" r="5.4"></circle>
                </g>
            </g>
            <g id="Label" mask="url(#mask-2)">
                <g transform="translate(22.000000, 5.000000)" id="supported-by">
                    <g>
                        <use fill="#000000" xlink:href="#path-3"></use>
                        <use fill-opacity="0.3" fill="#010101" xlink:href="#path-3"></use>
                    </g>
                    <g>
                        <use fill="#000000" xlink:href="#path-4"></use>
                        <use fill="#FFFFFF" xlink:href="#path-4"></use>
                    </g>
                </g>
            </g>
            <g id="Text" mask="url(#mask-2)">
                <g transform="translate(107.000000, 5.000000)" id="BoostIO">
                    <g>
                        <use fill="#000000" xlink:href="#path-5"></use>
                        <use fill-opacity="0.3" fill="#010101" xlink:href="#path-5"></use>
                    </g>
                    <g>
                        <use fill="#000000" xlink:href="#path-6"></use>
                        <use fill="#FFFFFF" xlink:href="#path-6"></use>
                    </g>
                </g>
            </g>
        </g>
    </g>
</svg>